<?xml version="1.0" encoding="UTF-8" standalone="no"?>
<!-- Created with Inkscape (http://www.inkscape.org/) -->

<svg
   xmlns:dc="http://purl.org/dc/elements/1.1/"
   xmlns:cc="http://creativecommons.org/ns#"
   xmlns:rdf="http://www.w3.org/1999/02/22-rdf-syntax-ns#"
   xmlns:svg="http://www.w3.org/2000/svg"
   xmlns="http://www.w3.org/2000/svg"
   xmlns:sodipodi="http://sodipodi.sourceforge.net/DTD/sodipodi-0.dtd"
   xmlns:inkscape="http://www.inkscape.org/namespaces/inkscape"
   width="200"
   height="200"
   viewBox="0 0 52.916665 52.916668"
   version="1.1"
   id="svg8"
   inkscape:version="0.92.3 (2405546, 2018-03-11)"
   sodipodi:docname="icono.svg">
  <defs
     id="defs2" />
  <sodipodi:namedview
     id="base"
     pagecolor="#ffffff"
     bordercolor="#666666"
     borderopacity="1.0"
     inkscape:pageopacity="0.0"
     inkscape:pageshadow="2"
     inkscape:zoom="2"
     inkscape:cx="-15.57894"
     inkscape:cy="35.697137"
     inkscape:document-units="mm"
     inkscape:current-layer="layer1"
     showgrid="false"
     units="px"
     inkscape:window-width="1366"
     inkscape:window-height="745"
     inkscape:window-x="-8"
     inkscape:window-y="-8"
     inkscape:window-maximized="1" />
  <metadata
     id="metadata5">
    <rdf:RDF>
      <cc:Work
         rdf:about="">
        <dc:format>image/svg+xml</dc:format>
        <dc:type
           rdf:resource="http://purl.org/dc/dcmitype/StillImage" />
        <dc:title />
      </cc:Work>
    </rdf:RDF>
  </metadata>
  <g
     inkscape:label="Capa 1"
     inkscape:groupmode="layer"
     id="layer1"
     transform="translate(0,-244.08332)">
    <rect
       style="fill:#ecf0f1;fill-opacity:1;fill-rule:evenodd;stroke:none;stroke-width:2.16031361;stroke-linejoin:miter;stroke-miterlimit:4;stroke-dasharray:none;stroke-dashoffset:0;stroke-opacity:1"
       id="rect815"
       width="52.916668"
       height="52.916668"
       x="2.5687237e-008"
       y="244.08334" />
    <path
       style="fill:#7f8c8d;fill-opacity:1;stroke:#2c3e50;stroke-width:0.396875;stroke-linecap:butt;stroke-linejoin:miter;stroke-opacity:1;stroke-miterlimit:4;stroke-dasharray:none"
       d="m 7.8920549,278.56392 c 0,0 0.6523692,-2.8879 0.7834647,-4.35803 0.047841,-0.5365 0,-1.61589 0,-1.61589 0,0 -1.5345522,-2.08913 -2.0076283,-3.28076 -0.3815249,-0.96102 -0.5299019,-2.00747 -0.6365651,-3.03593 -0.052197,-0.50329 -0.052401,-1.01469 0,-1.51796 0.098463,-0.94565 0.1619071,-1.94096 0.5875985,-2.79109 0.3210557,-0.64118 0.8862587,-1.13708 1.4200298,-1.6159 0.5494437,-0.49288 1.1496231,-0.94696 1.8117621,-1.27313 0.9817844,-0.48363 2.0462474,-0.85728 3.1338584,-0.97933 1.431902,-0.16069 2.924544,-0.0563 4.309056,0.34276 1.150471,0.33164 2.303021,0.85276 3.182825,1.66487 0.765347,0.70646 1.328145,1.65856 1.664863,2.64419 0.164342,0.48105 0.169482,1.01011 0.1469,1.51796 -0.01181,0.26545 -0.1469,0.78347 -0.1469,0.78347 l 2.399361,2.84006 c 0,0 0.176171,0.48654 0.146899,0.7345 -0.0274,0.23208 -0.123715,0.4763 -0.293799,0.63656 -0.293397,0.27647 -0.91569,0.0969 -1.12623,0.4407 -0.158969,0.25957 -0.01948,0.62472 0.09007,0.9087 0.06979,0.18091 0.341441,0.27359 0.346245,0.46743 0.0077,0.312 -0.550122,0.46847 -0.519369,0.77905 0.0201,0.20303 0.432807,0.43281 0.432807,0.43281 0,0 -0.443561,0.44312 -0.553994,0.72711 -0.0693,0.17822 -0.0775,0.38181 -0.05194,0.57131 0.04614,0.34204 0.301976,0.62989 0.363558,0.96949 0.03397,0.18738 0.06195,0.39123 0,0.5713 -0.09764,0.28381 -0.318079,0.52427 -0.553994,0.70981 -0.209096,0.16445 -0.727115,0.32893 -0.727115,0.32893 l -3.150837,0.0866 c 0,0 -0.500076,0.76513 -0.640554,1.19455 -0.141335,0.43205 -0.190436,1.35037 -0.190436,1.35037 z"
       id="path3277"
       inkscape:connector-curvature="0"
       sodipodi:nodetypes="cscsssssssssssccsssssscsssssccscc" />
    <ellipse
       style="fill:#f1c40f;fill-opacity:1;fill-rule:evenodd;stroke:none;stroke-width:0.14949965;stroke-linejoin:miter;stroke-miterlimit:4;stroke-dasharray:none;stroke-dashoffset:0;stroke-opacity:1"
       id="path3279"
       cx="14.649438"
       cy="262.77222"
       rx="5.9108443"
       ry="3.7318335" />
    <circle
       style="fill:#f1c40f;fill-opacity:1;fill-rule:evenodd;stroke:none;stroke-width:0.12091883;stroke-linejoin:miter;stroke-miterlimit:4;stroke-dasharray:none;stroke-dashoffset:0;stroke-opacity:1"
       id="path3334"
       cx="9.862958"
       cy="266.45694"
       r="0.59984016" />
    <ellipse
       style="fill:#f1c40f;fill-opacity:1;fill-rule:evenodd;stroke:none;stroke-width:0.12091883;stroke-linejoin:miter;stroke-miterlimit:4;stroke-dasharray:none;stroke-dashoffset:0;stroke-opacity:1"
       id="path3336"
       cx="9.112278"
       cy="267.7095"
       rx="0.44069889"
       ry="0.42845726" />
    <ellipse
       style="fill:#f1c40f;fill-opacity:1;fill-rule:evenodd;stroke:none;stroke-width:0.12091883;stroke-linejoin:miter;stroke-miterlimit:4;stroke-dasharray:none;stroke-dashoffset:0;stroke-opacity:1"
       id="path3338"
       cx="8.5736494"
       cy="268.66827"
       rx="0.24483271"
       ry="0.23259106" />
    <text
       xml:space="preserve"
       style="font-style:normal;font-variant:normal;font-weight:normal;font-stretch:normal;font-size:2.46944451px;line-height:1.25;font-family:sans-serif;-inkscape-font-specification:'sans-serif, Normal';font-variant-ligatures:normal;font-variant-caps:normal;font-variant-numeric:normal;font-feature-settings:normal;text-align:start;letter-spacing:0px;word-spacing:0px;writing-mode:lr-tb;text-anchor:start;fill:#34495e;fill-opacity:1;stroke:none;stroke-width:0.05424364"
       x="9.4712257"
       y="263.40506"
       id="text3342"><tspan
         sodipodi:role="line"
         id="tspan3340"
         x="9.4712257"
         y="263.40506"
         style="font-style:normal;font-variant:normal;font-weight:normal;font-stretch:normal;font-size:2.46944451px;font-family:sans-serif;-inkscape-font-specification:'sans-serif, Normal';font-variant-ligatures:normal;font-variant-caps:normal;font-variant-numeric:normal;font-feature-settings:normal;text-align:start;writing-mode:lr-tb;text-anchor:start;fill:#34495e;fill-opacity:1;stroke-width:0.05424364">Me gusta</tspan></text>
    <path
       sodipodi:nodetypes="cscsssssssssssccsssssscsssssccscc"
       inkscape:connector-curvature="0"
       id="path3351"
       d="m 44.744813,278.32101 c 0,0 -0.64469,-2.85391 -0.774243,-4.30673 -0.04728,-0.53019 0,-1.59687 0,-1.59687 0,0 1.516491,-2.06455 1.983998,-3.24215 0.377035,-0.94971 0.523665,-1.98384 0.629072,-3.00019 0.05159,-0.49737 0.05179,-1.00275 0,-1.50009 -0.0973,-0.93452 -0.160001,-1.91812 -0.580682,-2.75825 -0.317277,-0.63362 -0.875827,-1.12369 -1.403315,-1.59687 -0.542977,-0.48709 -1.136092,-0.93581 -1.790438,-1.25815 -0.970228,-0.47794 -2.022162,-0.84719 -3.096971,-0.96781 -1.415048,-0.15879 -2.890121,-0.0557 -4.258337,0.33874 -1.136929,0.32774 -2.275914,0.84272 -3.145362,1.64526 -0.756339,0.69815 -1.312512,1.63905 -1.645267,2.61307 -0.162407,0.47539 -0.167487,0.99822 -0.14517,1.5001 0.01167,0.26232 0.14517,0.77425 0.14517,0.77425 l -2.37112,2.80663 c 0,0 -0.174097,0.48081 -0.14517,0.72585 0.02707,0.22935 0.12226,0.47069 0.290342,0.62906 0.289943,0.27322 0.904912,0.0958 1.112973,0.43552 0.157098,0.25652 0.01925,0.61736 -0.08901,0.89801 -0.06897,0.17878 -0.337423,0.27036 -0.342169,0.46192 -0.0077,0.30834 0.543647,0.46296 0.513255,0.76989 -0.01987,0.20064 -0.427713,0.42771 -0.427713,0.42771 0,0 0.43834,0.43791 0.547473,0.71855 0.06848,0.17613 0.07658,0.37731 0.05133,0.56459 -0.04559,0.33801 -0.298423,0.62247 -0.35928,0.95807 -0.03357,0.18518 -0.06123,0.38663 0,0.56458 0.09649,0.28047 0.314335,0.5181 0.547472,0.70145 0.206635,0.16252 0.718558,0.32506 0.718558,0.32506 l 3.11375,0.0856 c 0,0 0.49419,0.75612 0.633014,1.18048 0.139671,0.42696 0.188195,1.33448 0.188195,1.33448 z"
       style="fill:#7f8c8d;fill-opacity:1;stroke:#2c3e50;stroke-width:0.396875;stroke-linecap:butt;stroke-linejoin:miter;stroke-opacity:1;stroke-miterlimit:4;stroke-dasharray:none" />
    <ellipse
       ry="3.6879084"
       rx="5.8412714"
       cy="262.71518"
       cx="-38.066978"
       id="ellipse3353"
       style="fill:#f1c40f;fill-opacity:1;fill-rule:evenodd;stroke:none;stroke-width:0.14773998;stroke-linejoin:miter;stroke-miterlimit:4;stroke-dasharray:none;stroke-dashoffset:0;stroke-opacity:1"
       transform="scale(-1,1)" />
    <circle
       r="0.59277982"
       cy="266.35654"
       cx="-42.797119"
       id="circle3355"
       style="fill:#f1c40f;fill-opacity:1;fill-rule:evenodd;stroke:none;stroke-width:0.11949558;stroke-linejoin:miter;stroke-miterlimit:4;stroke-dasharray:none;stroke-dashoffset:0;stroke-opacity:1"
       transform="scale(-1,1)" />
    <ellipse
       ry="0.42341417"
       rx="0.43551168"
       cy="267.59436"
       cx="-43.538963"
       id="ellipse3357"
       style="fill:#f1c40f;fill-opacity:1;fill-rule:evenodd;stroke:none;stroke-width:0.11949558;stroke-linejoin:miter;stroke-miterlimit:4;stroke-dasharray:none;stroke-dashoffset:0;stroke-opacity:1"
       transform="scale(-1,1)" />
    <ellipse
       ry="0.22985339"
       rx="0.24195094"
       cy="268.54184"
       cx="-44.071251"
       id="ellipse3359"
       style="fill:#f1c40f;fill-opacity:1;fill-rule:evenodd;stroke:none;stroke-width:0.11949558;stroke-linejoin:miter;stroke-miterlimit:4;stroke-dasharray:none;stroke-dashoffset:0;stroke-opacity:1"
       transform="scale(-1,1)" />
    <text
       id="text3365"
       y="263.42105"
       x="33.892796"
       style="font-style:normal;font-variant:normal;font-weight:normal;font-stretch:normal;font-size:2.46944451px;line-height:1.25;font-family:sans-serif;-inkscape-font-specification:'sans-serif, Normal';font-variant-ligatures:normal;font-variant-caps:normal;font-variant-numeric:normal;font-feature-settings:normal;text-align:start;letter-spacing:0px;word-spacing:0px;writing-mode:lr-tb;text-anchor:start;fill:#34495e;fill-opacity:1;stroke:none;stroke-width:0.05424364"
       xml:space="preserve"><tspan
         style="font-style:normal;font-variant:normal;font-weight:normal;font-stretch:normal;font-size:2.46944451px;font-family:sans-serif;-inkscape-font-specification:'sans-serif, Normal';font-variant-ligatures:normal;font-variant-caps:normal;font-variant-numeric:normal;font-feature-settings:normal;text-align:start;writing-mode:lr-tb;text-anchor:start;fill:#34495e;fill-opacity:1;stroke-width:0.05424364"
         y="263.42105"
         x="33.892796"
         id="tspan3363"
         sodipodi:role="line">A mí no</tspan></text>
  </g>
</svg>
