<?xml version="1.0" encoding="UTF-8" standalone="no"?>
<!-- Created with Inkscape (http://www.inkscape.org/) -->

<svg
   xmlns:dc="http://purl.org/dc/elements/1.1/"
   xmlns:cc="http://creativecommons.org/ns#"
   xmlns:rdf="http://www.w3.org/1999/02/22-rdf-syntax-ns#"
   xmlns:svg="http://www.w3.org/2000/svg"
   xmlns="http://www.w3.org/2000/svg"
   xmlns:sodipodi="http://sodipodi.sourceforge.net/DTD/sodipodi-0.dtd"
   xmlns:inkscape="http://www.inkscape.org/namespaces/inkscape"
   width="200"
   height="200"
   viewBox="0 0 52.916665 52.916668"
   version="1.1"
   id="svg8"
   inkscape:version="0.92.3 (2405546, 2018-03-11)"
   sodipodi:docname="icono.svg">
  <defs
     id="defs2" />
  <sodipodi:namedview
     id="base"
     pagecolor="#ffffff"
     bordercolor="#666666"
     borderopacity="1.0"
     inkscape:pageopacity="0.0"
     inkscape:pageshadow="2"
     inkscape:zoom="2.8284271"
     inkscape:cx="112.12073"
     inkscape:cy="101.81571"
     inkscape:document-units="mm"
     inkscape:current-layer="layer1"
     showgrid="false"
     units="px"
     inkscape:window-width="1366"
     inkscape:window-height="745"
     inkscape:window-x="-8"
     inkscape:window-y="-8"
     inkscape:window-maximized="1" />
  <metadata
     id="metadata5">
    <rdf:RDF>
      <cc:Work
         rdf:about="">
        <dc:format>image/svg+xml</dc:format>
        <dc:type
           rdf:resource="http://purl.org/dc/dcmitype/StillImage" />
        <dc:title />
      </cc:Work>
    </rdf:RDF>
  </metadata>
  <g
     inkscape:label="Capa 1"
     inkscape:groupmode="layer"
     id="layer1"
     transform="translate(0,-244.08332)">
    <rect
       style="fill:#ecf0f1;fill-opacity:1;fill-rule:evenodd;stroke:none;stroke-width:2.16031361;stroke-linejoin:miter;stroke-miterlimit:4;stroke-dasharray:none;stroke-dashoffset:0;stroke-opacity:1"
       id="rect815"
       width="52.916668"
       height="52.916668"
       x="2.5687237e-008"
       y="244.08334" />
    <g
       id="g5391"
       transform="matrix(0.98151778,0,0,1.2838697,2.7207321,-79.60451)"
       style="stroke-width:0.47139277;stroke-miterlimit:4;stroke-dasharray:none">
      <path
         sodipodi:nodetypes="ccssc"
         inkscape:connector-curvature="0"
         id="path5271"
         d="m 23.250348,267.55232 c 1.077218,3.2552 -7.647539,9.99359 -10.441994,10.0918 -4.39554,0 -5.4120032,-2.0022 -5.4120094,-3.21537 -7.3e-6,-1.21317 2.4172152,-3.66106 8.1498494,-4.04309 4.385821,-0.29227 5.824429,-5.60932 7.704154,-2.83334 z"
         style="fill:#fd9644;fill-opacity:1;fill-rule:evenodd;stroke:#34495e;stroke-width:0.47139277;stroke-linejoin:miter;stroke-miterlimit:4;stroke-dasharray:none;stroke-dashoffset:0;stroke-opacity:1" />
      <path
         sodipodi:nodetypes="csc"
         inkscape:connector-curvature="0"
         id="path5274"
         d="m 15.482522,276.75272 c 0,0 2.192258,0.17268 2.483157,1.01873 0.278179,0.80906 -0.573035,1.84645 -0.573035,1.84645"
         style="fill:none;stroke:#34495e;stroke-width:0.47139277;stroke-linecap:butt;stroke-linejoin:miter;stroke-miterlimit:4;stroke-dasharray:none;stroke-opacity:1" />
      <path
         style="fill:none;stroke:#34495e;stroke-width:0.47139277;stroke-linecap:butt;stroke-linejoin:miter;stroke-miterlimit:4;stroke-dasharray:none;stroke-opacity:1"
         d="m 8.9169478,276.75272 c 0,0 -2.1922569,0.17268 -2.4831551,1.01873 -0.278179,0.80906 0.5730349,1.84645 0.5730349,1.84645"
         id="path5276"
         inkscape:connector-curvature="0"
         sodipodi:nodetypes="csc" />
      <path
         sodipodi:nodetypes="cscsc"
         inkscape:connector-curvature="0"
         id="path5278"
         d="m 19.952204,280.43926 c 2e-6,0.82564 -0.939772,0.60488 -1.941956,0.60488 -1.002185,0 -1.687273,-0.60488 -1.687273,-0.60488 -1e-6,-0.65054 0.81749,-1.07732 1.814614,-1.17791 1.893574,-0.19101 1.814615,0.52737 1.814615,1.17791 z"
         style="fill:#fd9644;fill-opacity:1;fill-rule:evenodd;stroke:#34495e;stroke-width:0.47139277;stroke-linejoin:miter;stroke-miterlimit:4;stroke-dasharray:none;stroke-dashoffset:0;stroke-opacity:1" />
      <path
         style="fill:#fd9644;fill-opacity:1;fill-rule:evenodd;stroke:#34495e;stroke-width:0.47139277;stroke-linejoin:miter;stroke-miterlimit:4;stroke-dasharray:none;stroke-dashoffset:0;stroke-opacity:1"
         d="m 4.7794585,280.57433 c -2.7e-6,0.82564 0.9397713,0.60488 1.9419547,0.60488 1.0021842,0 1.6872724,-0.60488 1.6872724,-0.60488 6e-7,-0.65054 -0.8174905,-1.07732 -1.8146136,-1.17791 -1.8935728,-0.19101 -1.8146142,0.52737 -1.8146135,1.17791 z"
         id="path5281"
         inkscape:connector-curvature="0"
         sodipodi:nodetypes="cscsc" />
      <path
         sodipodi:nodetypes="csc"
         inkscape:connector-curvature="0"
         id="path5283"
         d="m 22.804654,266.91564 c 0,0 1.101738,-0.36247 1.549755,-1.08636 0.334051,-0.53975 0.540264,-1.26061 0.540264,-1.26061"
         style="fill:none;stroke:#34495e;stroke-width:0.47139277;stroke-linecap:butt;stroke-linejoin:miter;stroke-miterlimit:4;stroke-dasharray:none;stroke-opacity:1" />
      <ellipse
         ry="2.2305756"
         rx="2.3656414"
         cy="263.21347"
         cx="25.787388"
         id="path5285"
         style="fill:#fd9644;fill-opacity:1;fill-rule:evenodd;stroke:#34495e;stroke-width:0.47139277;stroke-linejoin:miter;stroke-miterlimit:4;stroke-dasharray:none;stroke-dashoffset:0;stroke-opacity:1" />
      <path
         sodipodi:nodetypes="cssc"
         inkscape:connector-curvature="0"
         id="path5287"
         d="m 23.250349,267.55232 c 0,0 0.872438,1.87278 1.639798,2.5154 0.412443,0.34539 0.94778,0.63487 1.485726,0.6303 1.182397,-0.01 3.241581,-1.4407 3.241581,-1.4407"
         style="fill:none;stroke:#34495e;stroke-width:0.47139277;stroke-linecap:butt;stroke-linejoin:miter;stroke-miterlimit:4;stroke-dasharray:none;stroke-opacity:1" />
      <path
         sodipodi:nodetypes="sscss"
         inkscape:connector-curvature="0"
         id="path5289"
         d="m 32.621217,268.71704 c 4e-6,0.52217 -0.849276,-0.0892 -1.869146,0.21326 -0.998158,0.29599 -1.314708,0.44397 -1.314704,-0.0782 4e-6,-0.52216 0.317353,-1.08052 1.337217,-1.08052 1.019865,0 1.84663,0.42329 1.846633,0.94545 z"
         style="fill:#fd9644;fill-opacity:1;fill-rule:evenodd;stroke:#34495e;stroke-width:0.47139277;stroke-linejoin:miter;stroke-miterlimit:4;stroke-dasharray:none;stroke-dashoffset:0;stroke-opacity:1" />
      <path
         sodipodi:nodetypes="cssc"
         inkscape:connector-curvature="0"
         id="path5292"
         d="m 21.531237,267.71148 c 0,0 -1.779553,3.45938 -1.400754,5.221 0.126826,0.5898 0.656407,1.04836 1.146072,1.40075 1.068589,0.76903 3.692901,1.40076 3.692901,1.40076"
         style="fill:none;stroke:#34495e;stroke-width:0.47139277;stroke-linecap:butt;stroke-linejoin:miter;stroke-miterlimit:4;stroke-dasharray:none;stroke-opacity:1" />
      <path
         style="fill:#fd9644;fill-opacity:1;fill-rule:evenodd;stroke:#34495e;stroke-width:0.47139277;stroke-linejoin:miter;stroke-miterlimit:4;stroke-dasharray:none;stroke-dashoffset:0;stroke-opacity:1"
         d="m 24.804631,275.5811 c 0.0302,-0.52001 0.756066,0.19795 1.687691,0.0278 0.911791,-0.1665 1.204081,-0.27319 1.173876,0.24681 -0.03021,0.52 -0.346948,1.03527 -1.261076,0.90422 -0.914127,-0.13105 -1.630691,-0.65884 -1.600491,-1.17884 z"
         id="path5294"
         inkscape:connector-curvature="0"
         sodipodi:nodetypes="sscss" />
      <ellipse
         ry="1.5287391"
         rx="1.909875"
         cy="272.56271"
         cx="33.468185"
         id="path5301"
         style="fill:#808e9b;fill-opacity:1;fill-rule:evenodd;stroke:#34495e;stroke-width:0.47139277;stroke-linejoin:miter;stroke-miterlimit:4;stroke-dasharray:none;stroke-dashoffset:0;stroke-opacity:1" />
      <path
         sodipodi:nodetypes="csccscc"
         inkscape:connector-curvature="0"
         id="rect5298"
         d="m 29.551171,272.92112 c 0,0 0.235883,0.16012 0.974208,0.17477 0.86786,0.0172 1.08948,-0.16467 1.08948,-0.16467 l 1.587687,1.21313 c 0,0 -1.120386,0.29583 -1.978941,0.28935 -0.631153,-0.005 -1.102884,-0.12789 -1.102884,-0.12789 z"
         style="fill:#808e9b;fill-opacity:1;fill-rule:evenodd;stroke:#34495e;stroke-width:0.47139277;stroke-linejoin:miter;stroke-miterlimit:4;stroke-dasharray:none;stroke-dashoffset:0;stroke-opacity:1" />
      <path
         sodipodi:nodetypes="csc"
         inkscape:connector-curvature="0"
         id="path5341"
         d="m 35.229464,273.19629 c 0,0 0.260102,0.51403 0.501131,0.63477 0.189244,0.0948 0.634764,0.0167 0.634764,0.0167"
         style="fill:none;stroke:#34495e;stroke-width:0.47139277;stroke-linecap:butt;stroke-linejoin:miter;stroke-opacity:1;stroke-miterlimit:4;stroke-dasharray:none" />
      <ellipse
         ry="1.2194172"
         rx="0.4009043"
         cy="273.98138"
         cx="34.12698"
         id="path5343"
         style="fill:#808e9b;fill-opacity:1;fill-rule:evenodd;stroke:#34495e;stroke-width:0.47139277;stroke-linejoin:miter;stroke-miterlimit:4;stroke-dasharray:none;stroke-dashoffset:0;stroke-opacity:1" />
      <path
         sodipodi:nodetypes="csc"
         inkscape:connector-curvature="0"
         id="path5356"
         d="m 42.268328,274.07435 c 0,0 0.444764,1.19727 0.294455,1.75297 -0.220674,0.81585 -0.744573,1.59621 -0.744573,1.59621"
         style="fill:none;stroke:#34495e;stroke-width:0.47139277;stroke-linecap:butt;stroke-linejoin:miter;stroke-opacity:1;stroke-miterlimit:4;stroke-dasharray:none" />
      <path
         sodipodi:nodetypes="cscsc"
         inkscape:connector-curvature="0"
         id="path5345"
         d="m 43.481412,273.70578 c 2e-6,0.6135 -1.626635,1.11084 -3.633195,1.11084 -2.00656,0 -3.633197,-0.49734 -3.633195,-1.11084 -2e-6,-0.6135 1.703828,-1.21034 3.666604,-0.79346 2.12349,0.45102 3.549675,-0.55503 3.599786,0.79346 z"
         style="fill:#808e9b;fill-opacity:1;fill-rule:evenodd;stroke:#34495e;stroke-width:0.47139277;stroke-linejoin:miter;stroke-miterlimit:4;stroke-dasharray:none;stroke-dashoffset:0;stroke-opacity:1" />
      <path
         sodipodi:nodetypes="csc"
         inkscape:connector-curvature="0"
         id="path5348"
         d="m 36.192356,274.00348 c 0,0 0.109624,0.83994 -0.08352,1.18601 -0.344159,0.61665 -1.453279,1.33635 -1.453279,1.33635"
         style="fill:none;stroke:#34495e;stroke-width:0.47139277;stroke-linecap:butt;stroke-linejoin:miter;stroke-opacity:1;stroke-miterlimit:4;stroke-dasharray:none" />
      <ellipse
         ry="0.60856557"
         rx="1.2171311"
         cy="276.50745"
         cx="33.760971"
         id="path5350"
         style="fill:#808e9b;fill-opacity:1;fill-rule:evenodd;stroke:#34495e;stroke-width:0.47139277;stroke-opacity:1;stroke-miterlimit:4;stroke-dasharray:none" />
      <path
         style="fill:none;stroke:#34495e;stroke-width:0.47139277;stroke-linecap:butt;stroke-linejoin:miter;stroke-opacity:1;stroke-miterlimit:4;stroke-dasharray:none"
         d="m 37.505825,274.07435 c 0,0 0.562882,1.43351 0.412573,1.80022 -0.320535,0.78202 -0.862691,1.54896 -0.862691,1.54896"
         id="path5352"
         inkscape:connector-curvature="0"
         sodipodi:nodetypes="csc" />
      <ellipse
         style="fill:#808e9b;fill-opacity:1;fill-rule:evenodd;stroke:#34495e;stroke-width:0.47139277;stroke-opacity:1;stroke-miterlimit:4;stroke-dasharray:none"
         id="ellipse5354"
         cx="36.468491"
         cy="277.96506"
         rx="1.1173846"
         ry="0.55869228" />
      <ellipse
         ry="0.5287683"
         rx="1.0575366"
         cy="277.88239"
         cx="41.249104"
         id="ellipse5358"
         style="fill:#808e9b;fill-opacity:1;fill-rule:evenodd;stroke:#34495e;stroke-width:0.47139277;stroke-opacity:1;stroke-miterlimit:4;stroke-dasharray:none" />
      <path
         style="fill:none;stroke:#34495e;stroke-width:0.47139277;stroke-linecap:butt;stroke-linejoin:miter;stroke-opacity:1;stroke-miterlimit:4;stroke-dasharray:none"
         d="m 43.481412,273.70578 c 0,0 0.06394,1.0789 0.156346,1.44768 0.0924,0.36878 0.464448,0.56454 0.563331,1.06124 0.104672,0.52579 -0.181169,1.20883 -0.181169,1.20883"
         id="path5360"
         inkscape:connector-curvature="0"
         sodipodi:nodetypes="cssc" />
      <ellipse
         style="fill:#808e9b;fill-opacity:1;fill-rule:evenodd;stroke:#34495e;stroke-width:0.47139277;stroke-opacity:1;stroke-miterlimit:4;stroke-dasharray:none"
         id="ellipse5362"
         cx="43.365772"
         cy="277.88239"
         rx="1.0575366"
         ry="0.5287683" />
      <path
         sodipodi:nodetypes="cssc"
         inkscape:connector-curvature="0"
         id="path5364"
         d="m 45.678399,269.18894 c 0,0 -0.667643,0.25184 -0.930336,1.23507 -0.206786,0.77397 0.138108,1.34472 0.138108,1.34472 0.07245,0.53119 -1.456839,1.44506 -1.456839,1.44506"
         style="fill:none;stroke:#34495e;stroke-width:0.47139277;stroke-linecap:butt;stroke-linejoin:miter;stroke-opacity:1;stroke-miterlimit:4;stroke-dasharray:none" />
    </g>
  </g>
</svg>
