<?xml version="1.0" encoding="UTF-8" standalone="no"?>
<svg
   xmlns:dc="http://purl.org/dc/elements/1.1/"
   xmlns:cc="http://creativecommons.org/ns#"
   xmlns:rdf="http://www.w3.org/1999/02/22-rdf-syntax-ns#"
   xmlns:svg="http://www.w3.org/2000/svg"
   xmlns="http://www.w3.org/2000/svg"
   xmlns:xlink="http://www.w3.org/1999/xlink"
   xmlns:sodipodi="http://sodipodi.sourceforge.net/DTD/sodipodi-0.dtd"
   xmlns:inkscape="http://www.inkscape.org/namespaces/inkscape"
   version="1.1"
   x="0px"
   y="0px"
   width="200px"
   height="200px"
   viewBox="0 0 200 200"
   xml:space="preserve"
   id="svg3699"
   sodipodi:docname="icono.svg"
   inkscape:version="0.92.3 (2405546, 2018-03-11)"><metadata
     id="metadata3705"><rdf:RDF><cc:Work
         rdf:about=""><dc:format>image/svg+xml</dc:format><dc:type
           rdf:resource="http://purl.org/dc/dcmitype/StillImage" /></cc:Work></rdf:RDF></metadata><defs
     id="defs3703" /><sodipodi:namedview
     pagecolor="#ffffff"
     bordercolor="#666666"
     borderopacity="1"
     objecttolerance="10"
     gridtolerance="10"
     guidetolerance="10"
     inkscape:pageopacity="0"
     inkscape:pageshadow="2"
     inkscape:window-width="1366"
     inkscape:window-height="745"
     id="namedview3701"
     showgrid="false"
     inkscape:zoom="2.965"
     inkscape:cx="100"
     inkscape:cy="96.964587"
     inkscape:window-x="-8"
     inkscape:window-y="-8"
     inkscape:window-maximized="1"
     inkscape:current-layer="svg3699" /><style
     type="text/css"
     id="style3677">.st0{clip-path:url(#XMLID_34_);fill:#99D468;} .st1{clip-path:url(#XMLID_34_);fill-rule:evenodd;clip-rule:evenodd;fill:#82C250;} .st2{clip-path:url(#XMLID_34_);} .st3{fill-rule:evenodd;clip-rule:evenodd;fill:#CB93EC;} .st4{fill-rule:evenodd;clip-rule:evenodd;fill:#B377D9;} .st5{fill-rule:evenodd;clip-rule:evenodd;fill:#DCB7F2;} .st6{fill-rule:evenodd;clip-rule:evenodd;fill:#E7663F;} .st7{fill-rule:evenodd;clip-rule:evenodd;fill:#F77E51;}</style><g
     id="XMLID_161_"><defs
       id="defs3680"><circle
         id="XMLID_163_"
         cx="100"
         cy="100"
         r="100" /></defs><clipPath
       id="XMLID_34_"><use
         xlink:href="#XMLID_163_"
         overflow="visible"
         id="use3682"
         style="overflow:visible"
         x="0"
         y="0"
         width="100%"
         height="100%" /></clipPath><path
       id="XMLID_32_"
       class="st0"
       d="M 0,0 H 200 V 200 H 0 Z"
       clip-path="url(#XMLID_34_)"
       inkscape:connector-curvature="0"
       style="fill:#99d468" /><path
       class="st1"
       d="m 96,-4.2 c 0,-0.2 -0.2,-0.3 -0.4,-0.4 -0.3,-0.1 -0.4,-0.1 -0.5,-0.2 -0.2,-0.2 -0.3,-0.4 -0.4,-0.7 -0.1,-0.4 -0.1,-0.9 0,-1.5 0.1,-0.6 0.2,-1.1 0.3,-1.5 0.1,-0.4 0.2,-0.6 0.1,-0.8 0,-0.1 -0.1,-0.2 -0.2,-0.4 0.1,-0.3 0.1,-0.5 0,-0.7 0,-0.2 -0.2,-0.4 -0.4,-0.5 -0.2,-0.1 -0.5,-0.2 -0.8,-0.1 -0.5,0.1 -0.9,0.4 -1.3,0.8 -0.6,0.7 -1.1,1.6 -1.5,2.8 -0.3,1 -0.3,1.9 -0.2,2.7 0.1,0.3 0.2,0.6 0.4,0.8 0.3,0.3 0.6,0.4 1,0.3 0.4,-0.1 0.8,-0.5 1.1,-1.1 0.2,-0.3 0.3,-0.7 0.5,-1.2 0,0.3 0.1,0.6 0.1,0.7 0.2,0.7 0.4,1 0.7,1.2 0.3,0.3 0.7,0.4 1.1,0.3 0.1,0 0.2,-0.1 0.3,-0.2 C 96,-4 96,-4.1 96,-4.2 Z M 94.2,-9 c -0.1,0.2 -0.2,0.6 -0.3,1.1 -0.2,0.8 -0.4,1.5 -0.6,1.9 -0.3,0.8 -0.6,1.2 -0.9,1.3 -0.1,0 -0.2,0 -0.3,-0.1 C 92,-4.9 92,-5 91.9,-5.2 c -0.2,-0.7 0,-1.6 0.5,-2.8 0.4,-1.1 0.9,-1.6 1.4,-1.8 h 0.3 c 0.1,0.1 0.2,0.1 0.3,0.3 -0.1,0.3 -0.2,0.4 -0.2,0.5 z"
       clip-path="url(#XMLID_34_)"
       id="path3686"
       inkscape:connector-curvature="0"
       style="clip-rule:evenodd;fill:#82c250;fill-rule:evenodd" /><g
       class="st2"
       clip-path="url(#XMLID_34_)"
       id="g3692"><path
         id="XMLID_29_"
         class="st3"
         d="m 86.2,6.2 20.8,8.6 c 1.1,0.5 1.7,1.8 1.2,2.9 L 48.4,162.1 c -0.5,1.1 -1.8,1.7 -2.9,1.2 l -20.8,-8.6 c -1.1,-0.5 -1.7,-1.8 -1.2,-2.9 L 83.3,7.4 c 0.5,-1.2 1.8,-1.7 2.9,-1.2 z"
         inkscape:connector-curvature="0"
         style="clip-rule:evenodd;fill:#cb93ec;fill-rule:evenodd" /><path
         id="XMLID_28_"
         class="st4"
         d="m 86.2,6.2 6.2,2.6 -61.5,148.5 -6.2,-2.6 c -1.1,-0.5 -1.7,-1.8 -1.2,-2.9 L 83.3,7.4 c 0.5,-1.2 1.8,-1.7 2.9,-1.2 z"
         inkscape:connector-curvature="0"
         style="clip-rule:evenodd;fill:#b377d9;fill-rule:evenodd" /><path
         class="st5"
         d="m 41.5,155.3 6.3,2.6 -0.4,1.1 -6.3,-2.6 z m 57.8,-139.5 6.3,2.6 -0.4,1.1 -6.3,-2.6 z m -6.4,4.2 10.2,4.2 -0.4,1.1 -10.2,-4.2 z m 1.5,7.4 6.3,2.6 -0.4,1.1 -6.3,-2.6 z m -6.3,4.2 10.2,4.2 -0.4,1.1 -10.2,-4.2 z m 1.5,7.5 6.3,2.6 -0.4,1.1 -6.3,-2.6 z m -6.3,4.1 10.2,4.2 -0.5,1.1 -10.2,-4.2 z m 1.5,7.5 6.3,2.6 -0.4,1.1 -6.3,-2.6 z m -6.3,4.2 10.2,4.2 -0.4,1.1 L 78,55.9 Z m 1.5,7.4 6.3,2.6 -0.5,1.1 -6.3,-2.6 z m -6.3,4.2 10.2,4.2 -0.4,1.1 -10.2,-4.2 z m 1.5,7.4 6.3,2.6 L 81,77.6 74.7,75 Z m -6.4,4.2 10.2,4.2 -0.4,1.1 -10.2,-4.2 z m 1.6,7.4 6.3,2.6 -0.4,1.1 L 70,86.6 Z M 64,89.7 74.2,93.9 73.8,95 63.6,90.8 Z m 1.5,7.5 6.3,2.6 -0.4,1.1 -6.3,-2.6 z m -6.3,4.1 10.2,4.2 -0.4,1.1 -10.2,-4.2 z m 1.5,7.5 6.3,2.6 -0.4,1.1 -6.3,-2.6 z m -6.3,4.2 10.2,4.2 -0.4,1.1 -10.3,-4.3 z m 1.5,7.4 6.3,2.6 -0.4,1.1 -6.3,-2.6 z m -6.3,4.2 10.2,4.2 -0.4,1.1 -10.2,-4.2 z m 1.5,7.4 6.3,2.6 -0.4,1.1 -6.3,-2.6 z m -6.3,4.2 10.2,4.2 -0.4,1.1 -10.2,-4.2 z m 1.5,7.4 6.3,2.6 -0.4,1.1 -6.3,-2.6 z m -6.4,4.2 10.2,4.2 -0.4,1.1 -10.2,-4.2 z"
         id="path3690"
         inkscape:connector-curvature="0"
         style="clip-rule:evenodd;fill:#dcb7f2;fill-rule:evenodd" /></g><g
       class="st2"
       clip-path="url(#XMLID_34_)"
       id="g3696"><path
         id="XMLID_2_"
         class="st6"
         d="m 166.9,168.8 -38.1,7.7 -66.3,-8.3 52.1,-121.8 z"
         inkscape:connector-curvature="0"
         style="clip-rule:evenodd;fill:#e7663f;fill-rule:evenodd" /><path
         id="XMLID_1_"
         class="st7"
         d="M 128.8,176.5 62.5,168.2 114.6,46.4 Z"
         inkscape:connector-curvature="0"
         style="clip-rule:evenodd;fill:#f77e51;fill-rule:evenodd" /></g></g></svg>