<?xml version="1.0" encoding="UTF-8" standalone="no"?>
<!-- Created with Inkscape (http://www.inkscape.org/) -->

<svg
   xmlns:dc="http://purl.org/dc/elements/1.1/"
   xmlns:cc="http://creativecommons.org/ns#"
   xmlns:rdf="http://www.w3.org/1999/02/22-rdf-syntax-ns#"
   xmlns:svg="http://www.w3.org/2000/svg"
   xmlns="http://www.w3.org/2000/svg"
   xmlns:xlink="http://www.w3.org/1999/xlink"
   xmlns:sodipodi="http://sodipodi.sourceforge.net/DTD/sodipodi-0.dtd"
   xmlns:inkscape="http://www.inkscape.org/namespaces/inkscape"
   width="200"
   height="200"
   viewBox="0 0 52.916665 52.916668"
   version="1.1"
   id="svg8"
   inkscape:version="0.92.3 (2405546, 2018-03-11)"
   sodipodi:docname="icono.svg">
  <defs
     id="defs2">
    <linearGradient
       inkscape:collect="always"
       id="linearGradient4749">
      <stop
         style="stop-color:#e74c3c;stop-opacity:1"
         offset="0"
         id="stop4745" />
      <stop
         style="stop-color:#3498db;stop-opacity:1"
         offset="1"
         id="stop4747" />
    </linearGradient>
    <marker
       inkscape:stockid="Arrow1Lend"
       orient="auto"
       refY="0.0"
       refX="0.0"
       id="marker4385"
       style="overflow:visible;"
       inkscape:isstock="true">
      <path
         id="path4383"
         d="M 0.0,0.0 L 5.0,-5.0 L -12.5,0.0 L 5.0,5.0 L 0.0,0.0 z "
         style="fill-rule:evenodd;stroke:#3498db;stroke-width:1pt;stroke-opacity:1;fill:#3498db;fill-opacity:1"
         transform="scale(0.8) rotate(180) translate(12.5,0)" />
    </marker>
    <marker
       inkscape:stockid="Arrow1Lend"
       orient="auto"
       refY="0.0"
       refX="0.0"
       id="marker3805"
       style="overflow:visible;"
       inkscape:isstock="true">
      <path
         id="path3803"
         d="M 0.0,0.0 L 5.0,-5.0 L -12.5,0.0 L 5.0,5.0 L 0.0,0.0 z "
         style="fill-rule:evenodd;stroke:#e74c3c;stroke-width:1pt;stroke-opacity:1;fill:#e74c3c;fill-opacity:1"
         transform="scale(0.8) rotate(180) translate(12.5,0)" />
    </marker>
    <marker
       inkscape:isstock="true"
       style="overflow:visible"
       id="marker3317"
       refX="0.0"
       refY="0.0"
       orient="auto"
       inkscape:stockid="Arrow1Lstart">
      <path
         transform="scale(0.8) translate(12.5,0)"
         style="fill-rule:evenodd;stroke:#3498db;stroke-width:1pt;stroke-opacity:1;fill:#3498db;fill-opacity:1"
         d="M 0.0,0.0 L 5.0,-5.0 L -12.5,0.0 L 5.0,5.0 L 0.0,0.0 z "
         id="path3315" />
    </marker>
    <marker
       inkscape:isstock="true"
       style="overflow:visible"
       id="marker2993"
       refX="0.0"
       refY="0.0"
       orient="auto"
       inkscape:stockid="Arrow1Lstart">
      <path
         transform="scale(0.8) translate(12.5,0)"
         style="fill-rule:evenodd;stroke:#e74c3c;stroke-width:1pt;stroke-opacity:1;fill:#e74c3c;fill-opacity:1"
         d="M 0.0,0.0 L 5.0,-5.0 L -12.5,0.0 L 5.0,5.0 L 0.0,0.0 z "
         id="path2991" />
    </marker>
    <marker
       inkscape:stockid="Arrow1Lstart"
       orient="auto"
       refY="0.0"
       refX="0.0"
       id="marker1683"
       style="overflow:visible"
       inkscape:isstock="true">
      <path
         id="path1681"
         d="M 0.0,0.0 L 5.0,-5.0 L -12.5,0.0 L 5.0,5.0 L 0.0,0.0 z "
         style="fill-rule:evenodd;stroke:#e74c3c;stroke-width:1pt;stroke-opacity:1;fill:#e74c3c;fill-opacity:1"
         transform="scale(0.8) translate(12.5,0)" />
    </marker>
    <marker
       inkscape:isstock="true"
       style="overflow:visible"
       id="marker1677"
       refX="0.0"
       refY="0.0"
       orient="auto"
       inkscape:stockid="Arrow1Lstart">
      <path
         transform="scale(0.8) translate(12.5,0)"
         style="fill-rule:evenodd;stroke:#3498db;stroke-width:1pt;stroke-opacity:1;fill:#3498db;fill-opacity:1"
         d="M 0.0,0.0 L 5.0,-5.0 L -12.5,0.0 L 5.0,5.0 L 0.0,0.0 z "
         id="path1675" />
    </marker>
    <marker
       inkscape:stockid="Arrow2Lend"
       orient="auto"
       refY="0.0"
       refX="0.0"
       id="Arrow2Lend"
       style="overflow:visible;"
       inkscape:isstock="true">
      <path
         id="path1420"
         style="fill-rule:evenodd;stroke-width:0.625;stroke-linejoin:round;stroke:#000000;stroke-opacity:1;fill:#000000;fill-opacity:1"
         d="M 8.7185878,4.0337352 L -2.2072895,0.016013256 L 8.7185884,-4.0017078 C 6.9730900,-1.6296469 6.9831476,1.6157441 8.7185878,4.0337352 z "
         transform="scale(1.1) rotate(180) translate(1,0)" />
    </marker>
    <linearGradient
       inkscape:collect="always"
       xlink:href="#linearGradient4749"
       id="linearGradient4751"
       x1="17.335314"
       y1="253.9996"
       x2="43.006573"
       y2="253.974"
       gradientUnits="userSpaceOnUse"
       gradientTransform="matrix(0.73074352,-0.44420487,0.44420487,0.73074352,-105.75511,90.956262)" />
  </defs>
  <sodipodi:namedview
     id="base"
     pagecolor="#ffffff"
     bordercolor="#666666"
     borderopacity="1.0"
     inkscape:pageopacity="0.0"
     inkscape:pageshadow="2"
     inkscape:zoom="2.8"
     inkscape:cx="38.52044"
     inkscape:cy="98.888579"
     inkscape:document-units="mm"
     inkscape:current-layer="layer1"
     showgrid="false"
     units="px"
     inkscape:window-width="1366"
     inkscape:window-height="745"
     inkscape:window-x="-8"
     inkscape:window-y="-8"
     inkscape:window-maximized="1"
     showguides="true"
     inkscape:guide-bbox="true"
     inkscape:snap-bbox="true">
    <inkscape:grid
       type="xygrid"
       id="grid6106" />
  </sodipodi:namedview>
  <metadata
     id="metadata5">
    <rdf:RDF>
      <cc:Work
         rdf:about="">
        <dc:format>image/svg+xml</dc:format>
        <dc:type
           rdf:resource="http://purl.org/dc/dcmitype/StillImage" />
        <dc:title />
      </cc:Work>
    </rdf:RDF>
  </metadata>
  <g
     inkscape:label="Capa 1"
     inkscape:groupmode="layer"
     id="layer1"
     transform="translate(0,-244.08332)">
    <rect
       style="fill:#bdc3c7;fill-opacity:1;fill-rule:evenodd;stroke:none;stroke-width:2.16031361;stroke-linejoin:miter;stroke-miterlimit:4;stroke-dasharray:none;stroke-dashoffset:0;stroke-opacity:1"
       id="rect815"
       width="52.916668"
       height="52.916668"
       x="2.5687237e-008"
       y="244.08334" />
    <path
       style="opacity:1;vector-effect:none;fill:#f39c12;fill-opacity:1;fill-rule:evenodd;stroke:none;stroke-width:0.45732093;stroke-linecap:butt;stroke-linejoin:miter;stroke-miterlimit:4;stroke-dasharray:none;stroke-dashoffset:0;stroke-opacity:1"
       d="m 19.964673,282.65558 c 2.586161,1.8109 -2.047496,5.71651 -4.57321,5.71651 -2.525714,0 -4.573209,-2.55936 -4.573208,-5.71651 -1e-6,-3.15714 4.689149,-7.26877 4.689149,-7.26877 -0.689069,0.36524 1.803519,5.41056 4.457269,7.26877 z"
       id="path6112"
       inkscape:connector-curvature="0"
       sodipodi:nodetypes="ssscs" />
    <path
       sodipodi:nodetypes="ssscs"
       inkscape:connector-curvature="0"
       id="path6115"
       d="m 18.217631,284.13572 c 1.50859,1.05636 -1.194369,3.33463 -2.667697,3.33463 -1.473329,0 -2.667697,-1.49297 -2.667697,-3.33463 0,-1.84166 2.735329,-4.24011 2.735329,-4.24011 -0.401956,0.21306 1.052049,3.15615 2.600065,4.24011 z"
       style="opacity:1;vector-effect:none;fill:#2980b9;fill-opacity:1;fill-rule:evenodd;stroke:none;stroke-width:0.26676968;stroke-linecap:butt;stroke-linejoin:miter;stroke-miterlimit:4;stroke-dasharray:none;stroke-dashoffset:0;stroke-opacity:1" />
    <path
       style="opacity:1;vector-effect:none;fill:#ecf0f1;fill-opacity:1;fill-rule:evenodd;stroke:none;stroke-width:0.13973635;stroke-linecap:butt;stroke-linejoin:miter;stroke-miterlimit:4;stroke-dasharray:none;stroke-dashoffset:0;stroke-opacity:1"
       d="m 17.052944,285.36295 c 0.790213,0.55333 -0.625621,1.74671 -1.397363,1.74671 -0.771743,0 -1.397364,-0.78203 -1.397364,-1.74671 0,-0.96467 1.43279,-2.221 1.43279,-2.221 -0.210548,0.1116 0.551073,1.65322 1.361937,2.221 z"
       id="path6125"
       inkscape:connector-curvature="0"
       sodipodi:nodetypes="ssscs" />
    <path
       style="opacity:1;vector-effect:none;fill:url(#linearGradient4751);fill-opacity:1;fill-rule:evenodd;stroke:none;stroke-width:0.22626191;stroke-linecap:butt;stroke-linejoin:miter;stroke-miterlimit:4;stroke-dasharray:none;stroke-dashoffset:0;stroke-opacity:1"
       d="m 21.305705,267.30505 18.524224,-11.96427 c 0.789714,-0.51008 1.558606,-0.73042 2.046942,0.0729 0.488333,0.80333 -0.0547,1.39513 -0.870194,1.86289 l -19.140286,10.97886 c -0.407758,0.23386 0.0237,2.62885 -0.17092,2.74662 -3.870679,2.3423 -4.685785,2.30817 -5.914598,0.2867 -1.239301,-2.03872 -0.894332,-2.778 2.986027,-5.12382 0.186108,-0.11252 2.143944,1.39514 2.538805,1.1401 z"
       id="rect4675"
       inkscape:connector-curvature="0"
       sodipodi:nodetypes="sssssssss" />
  </g>
</svg>
