<?xml version="1.0" encoding="UTF-8" standalone="no"?>
<!-- Created with Inkscape (http://www.inkscape.org/) -->

<svg
   xmlns:dc="http://purl.org/dc/elements/1.1/"
   xmlns:cc="http://creativecommons.org/ns#"
   xmlns:rdf="http://www.w3.org/1999/02/22-rdf-syntax-ns#"
   xmlns:svg="http://www.w3.org/2000/svg"
   xmlns="http://www.w3.org/2000/svg"
   xmlns:sodipodi="http://sodipodi.sourceforge.net/DTD/sodipodi-0.dtd"
   xmlns:inkscape="http://www.inkscape.org/namespaces/inkscape"
   width="200"
   height="200"
   viewBox="0 0 52.916665 52.916668"
   version="1.1"
   id="svg8"
   inkscape:version="0.92.3 (2405546, 2018-03-11)"
   sodipodi:docname="icono.svg">
  <defs
     id="defs2" />
  <sodipodi:namedview
     id="base"
     pagecolor="#ffffff"
     bordercolor="#666666"
     borderopacity="1.0"
     inkscape:pageopacity="0.0"
     inkscape:pageshadow="2"
     inkscape:zoom="1.4142136"
     inkscape:cx="181.01924"
     inkscape:cy="64.218644"
     inkscape:document-units="mm"
     inkscape:current-layer="layer1"
     showgrid="false"
     units="px"
     inkscape:window-width="1366"
     inkscape:window-height="745"
     inkscape:window-x="-8"
     inkscape:window-y="-8"
     inkscape:window-maximized="1"
     showguides="true"
     inkscape:guide-bbox="true"
     inkscape:snap-global="false">
    <sodipodi:guide
       position="11.943607,37.885456"
       orientation="0,1"
       id="guide4664"
       inkscape:locked="false" />
  </sodipodi:namedview>
  <metadata
     id="metadata5">
    <rdf:RDF>
      <cc:Work
         rdf:about="">
        <dc:format>image/svg+xml</dc:format>
        <dc:type
           rdf:resource="http://purl.org/dc/dcmitype/StillImage" />
        <dc:title />
      </cc:Work>
    </rdf:RDF>
  </metadata>
  <g
     inkscape:label="Capa 1"
     inkscape:groupmode="layer"
     id="layer1"
     transform="translate(0,-244.08332)">
    <rect
       style="fill:#ecf0f1;fill-opacity:1;fill-rule:evenodd;stroke:none;stroke-width:2.16031361;stroke-linejoin:miter;stroke-miterlimit:4;stroke-dasharray:none;stroke-dashoffset:0;stroke-opacity:1"
       id="rect815"
       width="52.916668"
       height="52.916668"
       x="2.5687237e-008"
       y="244.08334" />
    <rect
       style="fill:#fd9644;fill-opacity:1;fill-rule:evenodd;stroke:#4b6584;stroke-width:0.52916667;stroke-linejoin:miter;stroke-miterlimit:4;stroke-dasharray:none;stroke-dashoffset:0;stroke-opacity:1"
       id="rect4598"
       width="33.4599"
       height="4.1404309"
       x="9.6905851"
       y="255.34349" />
    <rect
       style="fill:#fd9644;fill-opacity:1;fill-rule:evenodd;stroke:#4b6584;stroke-width:0.396875;stroke-linejoin:miter;stroke-miterlimit:4;stroke-dasharray:none;stroke-dashoffset:0;stroke-opacity:1"
       id="rect4600"
       width="11.829623"
       height="25.877987"
       x="9.6879244"
       y="259.48129" />
    <rect
       style="fill:#fd9644;fill-opacity:1;fill-rule:evenodd;stroke:#4b6584;stroke-width:0.396875;stroke-linejoin:miter;stroke-miterlimit:4;stroke-dasharray:none;stroke-dashoffset:0;stroke-opacity:1"
       id="rect4602"
       width="21.55829"
       height="4.2849474"
       x="21.514887"
       y="259.48398" />
    <rect
       style="fill:#fd9644;fill-opacity:1;fill-rule:evenodd;stroke:#4b6584;stroke-width:0.26458333;stroke-linejoin:miter;stroke-miterlimit:4;stroke-dasharray:none;stroke-dashoffset:0;stroke-opacity:1"
       id="rect4604"
       width="7.0513988"
       height="4.3110433"
       x="21.520908"
       y="263.77493" />
    <rect
       y="263.771"
       x="35.601379"
       height="4.3069091"
       width="7.4697309"
       id="rect4628"
       style="fill:#fd9644;fill-opacity:1;fill-rule:evenodd;stroke:#4b6584;stroke-width:0.26458333;stroke-linejoin:miter;stroke-miterlimit:4;stroke-dasharray:none;stroke-dashoffset:0;stroke-opacity:1" />
    <rect
       style="fill:#fd9644;fill-opacity:1;fill-rule:evenodd;stroke:#4b6584;stroke-width:0.26458333;stroke-linejoin:miter;stroke-miterlimit:4;stroke-dasharray:none;stroke-dashoffset:0;stroke-opacity:1"
       id="rect4630"
       width="7.0513988"
       height="4.3110433"
       x="28.572306"
       y="263.77493" />
    <rect
       y="268.08994"
       x="21.543232"
       height="4.3110433"
       width="7.0513988"
       id="rect4632"
       style="fill:#fd9644;fill-opacity:1;fill-rule:evenodd;stroke:#4b6584;stroke-width:0.26458333;stroke-linejoin:miter;stroke-miterlimit:4;stroke-dasharray:none;stroke-dashoffset:0;stroke-opacity:1" />
    <rect
       style="fill:#fd9644;fill-opacity:1;fill-rule:evenodd;stroke:#4b6584;stroke-width:0.26458333;stroke-linejoin:miter;stroke-miterlimit:4;stroke-dasharray:none;stroke-dashoffset:0;stroke-opacity:1"
       id="rect4634"
       width="7.4697309"
       height="4.3069091"
       x="35.623703"
       y="268.086" />
    <rect
       y="268.08994"
       x="28.594631"
       height="4.3110433"
       width="7.0513988"
       id="rect4636"
       style="fill:#fd9644;fill-opacity:1;fill-rule:evenodd;stroke:#4b6584;stroke-width:0.26458333;stroke-linejoin:miter;stroke-miterlimit:4;stroke-dasharray:none;stroke-dashoffset:0;stroke-opacity:1" />
    <rect
       style="fill:#fd9644;fill-opacity:1;fill-rule:evenodd;stroke:#4b6584;stroke-width:0.26458333;stroke-linejoin:miter;stroke-miterlimit:4;stroke-dasharray:none;stroke-dashoffset:0;stroke-opacity:1"
       id="rect4638"
       width="7.0513988"
       height="4.3110433"
       x="21.565559"
       y="272.40497" />
    <rect
       y="272.401"
       x="35.64603"
       height="4.3069091"
       width="7.4697309"
       id="rect4640"
       style="fill:#fd9644;fill-opacity:1;fill-rule:evenodd;stroke:#4b6584;stroke-width:0.26458333;stroke-linejoin:miter;stroke-miterlimit:4;stroke-dasharray:none;stroke-dashoffset:0;stroke-opacity:1" />
    <rect
       style="fill:#fd9644;fill-opacity:1;fill-rule:evenodd;stroke:#4b6584;stroke-width:0.26458333;stroke-linejoin:miter;stroke-miterlimit:4;stroke-dasharray:none;stroke-dashoffset:0;stroke-opacity:1"
       id="rect4642"
       width="7.0513988"
       height="4.3110433"
       x="28.616957"
       y="272.40497" />
    <rect
       y="276.71994"
       x="21.587887"
       height="4.3110433"
       width="7.0513988"
       id="rect4644"
       style="fill:#fd9644;fill-opacity:1;fill-rule:evenodd;stroke:#4b6584;stroke-width:0.26458333;stroke-linejoin:miter;stroke-miterlimit:4;stroke-dasharray:none;stroke-dashoffset:0;stroke-opacity:1" />
    <rect
       style="fill:#fd9644;fill-opacity:1;fill-rule:evenodd;stroke:#4b6584;stroke-width:0.26458333;stroke-linejoin:miter;stroke-miterlimit:4;stroke-dasharray:none;stroke-dashoffset:0;stroke-opacity:1"
       id="rect4646"
       width="7.4697309"
       height="4.3069091"
       x="35.668358"
       y="276.716" />
    <rect
       y="276.71994"
       x="28.639284"
       height="4.3110433"
       width="7.0513988"
       id="rect4648"
       style="fill:#fd9644;fill-opacity:1;fill-rule:evenodd;stroke:#4b6584;stroke-width:0.26458333;stroke-linejoin:miter;stroke-miterlimit:4;stroke-dasharray:none;stroke-dashoffset:0;stroke-opacity:1" />
    <rect
       style="fill:#fd9644;fill-opacity:1;fill-rule:evenodd;stroke:#4b6584;stroke-width:0.26458333;stroke-linejoin:miter;stroke-miterlimit:4;stroke-dasharray:none;stroke-dashoffset:0;stroke-opacity:1"
       id="rect4650"
       width="7.0513988"
       height="4.3110433"
       x="21.587887"
       y="281.03101" />
    <rect
       y="281.02707"
       x="35.668358"
       height="4.3069091"
       width="7.4697309"
       id="rect4652"
       style="fill:#fd9644;fill-opacity:1;fill-rule:evenodd;stroke:#4b6584;stroke-width:0.26458333;stroke-linejoin:miter;stroke-miterlimit:4;stroke-dasharray:none;stroke-dashoffset:0;stroke-opacity:1" />
    <rect
       style="fill:#fd9644;fill-opacity:1;fill-rule:evenodd;stroke:#4b6584;stroke-width:0.26458333;stroke-linejoin:miter;stroke-miterlimit:4;stroke-dasharray:none;stroke-dashoffset:0;stroke-opacity:1"
       id="rect4654"
       width="7.0513988"
       height="4.3110433"
       x="28.639284"
       y="281.03101" />
    <path
       style="color:#000000;font-style:normal;font-variant:normal;font-weight:normal;font-stretch:normal;font-size:medium;line-height:normal;font-family:sans-serif;font-variant-ligatures:normal;font-variant-position:normal;font-variant-caps:normal;font-variant-numeric:normal;font-variant-alternates:normal;font-feature-settings:normal;text-indent:0;text-align:start;text-decoration:none;text-decoration-line:none;text-decoration-style:solid;text-decoration-color:#000000;letter-spacing:normal;word-spacing:normal;text-transform:none;writing-mode:lr-tb;direction:ltr;text-orientation:mixed;dominant-baseline:auto;baseline-shift:baseline;text-anchor:start;white-space:normal;shape-padding:0;clip-rule:nonzero;display:inline;overflow:visible;visibility:visible;opacity:1;isolation:auto;mix-blend-mode:normal;color-interpolation:sRGB;color-interpolation-filters:linearRGB;solid-color:#000000;solid-opacity:1;vector-effect:none;fill:#34495e;fill-opacity:1;fill-rule:nonzero;stroke:none;stroke-width:3.00345778;stroke-linecap:butt;stroke-linejoin:miter;stroke-miterlimit:4;stroke-dasharray:none;stroke-dashoffset:0;stroke-opacity:1;color-rendering:auto;image-rendering:auto;shape-rendering:auto;text-rendering:auto;enable-background:accumulate"
       d="m 11.290448,262.30574 -3.7e-4,0.025 -3.7e-4,0.025 -3.7e-4,0.025 -3.7e-4,0.025 -3.7e-4,0.0249 -3.69e-4,0.025 -3.7e-4,0.025 -3.7e-4,0.025 0.947634,-0.46761 0.947633,0.48532 0.947634,-0.48532 0.947634,0.50303 0.947634,-0.50303 0.947633,0.52074 0.947634,-0.52074 0.947634,0.53845 1.89e-4,-0.025 1.9e-4,-0.025 1.88e-4,-0.025 1.9e-4,-0.0249 1.89e-4,-0.025 1.89e-4,-0.025 1.89e-4,-0.025 1.89e-4,-0.025 -0.947452,-0.53845 -0.947454,0.52073 -0.947453,-0.52073 -0.947453,0.50303 -0.947453,-0.50303 -0.947453,0.48532 -0.947453,-0.48532 z"
       id="path4656"
       inkscape:connector-curvature="0"
       sodipodi:nodetypes="ccccccccccccccccccccccccccccccccc" />
    <path
       style="color:#000000;font-style:normal;font-variant:normal;font-weight:normal;font-stretch:normal;font-size:medium;line-height:normal;font-family:sans-serif;font-variant-ligatures:normal;font-variant-position:normal;font-variant-caps:normal;font-variant-numeric:normal;font-variant-alternates:normal;font-feature-settings:normal;text-indent:0;text-align:start;text-decoration:none;text-decoration-line:none;text-decoration-style:solid;text-decoration-color:#000000;letter-spacing:normal;word-spacing:normal;text-transform:none;writing-mode:lr-tb;direction:ltr;text-orientation:mixed;dominant-baseline:auto;baseline-shift:baseline;text-anchor:start;white-space:normal;shape-padding:0;clip-rule:nonzero;display:inline;overflow:visible;visibility:visible;opacity:1;isolation:auto;mix-blend-mode:normal;color-interpolation:sRGB;color-interpolation-filters:linearRGB;solid-color:#000000;solid-opacity:1;vector-effect:none;fill:#34495e;fill-opacity:1;fill-rule:nonzero;stroke:none;stroke-width:3.00345778;stroke-linecap:butt;stroke-linejoin:miter;stroke-miterlimit:4;stroke-dasharray:none;stroke-dashoffset:0;stroke-opacity:1;color-rendering:auto;image-rendering:auto;shape-rendering:auto;text-rendering:auto;enable-background:accumulate"
       d="m 11.290448,265.50945 -3.7e-4,0.025 -3.7e-4,0.025 -3.7e-4,0.025 -3.7e-4,0.025 -3.7e-4,0.0249 -3.69e-4,0.025 -3.7e-4,0.025 -3.7e-4,0.025 0.947634,-0.4676 0.947633,0.48531 0.947634,-0.48531 0.947634,0.50302 0.947634,-0.50302 0.947633,0.52073 0.947634,-0.52073 0.947634,0.53844 1.89e-4,-0.025 1.9e-4,-0.025 1.88e-4,-0.025 1.9e-4,-0.0249 1.89e-4,-0.025 1.89e-4,-0.025 1.89e-4,-0.025 1.89e-4,-0.025 -0.947452,-0.53844 -0.947454,0.52073 -0.947453,-0.52073 -0.947453,0.50302 -0.947453,-0.50302 -0.947453,0.48531 -0.947453,-0.48531 z"
       id="path4668"
       inkscape:connector-curvature="0"
       sodipodi:nodetypes="ccccccccccccccccccccccccccccccccc" />
    <path
       sodipodi:nodetypes="ccccccccccccccccccccccccccccccccc"
       inkscape:connector-curvature="0"
       id="path4670"
       d="m 11.290448,268.71316 -3.7e-4,0.025 -3.7e-4,0.025 -3.7e-4,0.025 -3.7e-4,0.025 -3.7e-4,0.0249 -3.69e-4,0.025 -3.7e-4,0.025 -3.7e-4,0.025 0.947634,-0.4676 0.947633,0.48531 0.947634,-0.48531 0.947634,0.50301 0.947634,-0.50301 0.947633,0.52073 0.947634,-0.52073 0.947634,0.53843 1.89e-4,-0.025 1.9e-4,-0.025 1.88e-4,-0.025 1.9e-4,-0.0249 1.89e-4,-0.025 1.89e-4,-0.025 1.89e-4,-0.025 1.89e-4,-0.025 -0.947452,-0.53844 -0.947454,0.52073 -0.947453,-0.52073 -0.947453,0.50302 -0.947453,-0.50302 -0.947453,0.48532 -0.947453,-0.48532 z"
       style="color:#000000;font-style:normal;font-variant:normal;font-weight:normal;font-stretch:normal;font-size:medium;line-height:normal;font-family:sans-serif;font-variant-ligatures:normal;font-variant-position:normal;font-variant-caps:normal;font-variant-numeric:normal;font-variant-alternates:normal;font-feature-settings:normal;text-indent:0;text-align:start;text-decoration:none;text-decoration-line:none;text-decoration-style:solid;text-decoration-color:#000000;letter-spacing:normal;word-spacing:normal;text-transform:none;writing-mode:lr-tb;direction:ltr;text-orientation:mixed;dominant-baseline:auto;baseline-shift:baseline;text-anchor:start;white-space:normal;shape-padding:0;clip-rule:nonzero;display:inline;overflow:visible;visibility:visible;opacity:1;isolation:auto;mix-blend-mode:normal;color-interpolation:sRGB;color-interpolation-filters:linearRGB;solid-color:#000000;solid-opacity:1;vector-effect:none;fill:#34495e;fill-opacity:1;fill-rule:nonzero;stroke:none;stroke-width:3.00345778;stroke-linecap:butt;stroke-linejoin:miter;stroke-miterlimit:4;stroke-dasharray:none;stroke-dashoffset:0;stroke-opacity:1;color-rendering:auto;image-rendering:auto;shape-rendering:auto;text-rendering:auto;enable-background:accumulate" />
    <path
       style="color:#000000;font-style:normal;font-variant:normal;font-weight:normal;font-stretch:normal;font-size:medium;line-height:normal;font-family:sans-serif;font-variant-ligatures:normal;font-variant-position:normal;font-variant-caps:normal;font-variant-numeric:normal;font-variant-alternates:normal;font-feature-settings:normal;text-indent:0;text-align:start;text-decoration:none;text-decoration-line:none;text-decoration-style:solid;text-decoration-color:#000000;letter-spacing:normal;word-spacing:normal;text-transform:none;writing-mode:lr-tb;direction:ltr;text-orientation:mixed;dominant-baseline:auto;baseline-shift:baseline;text-anchor:start;white-space:normal;shape-padding:0;clip-rule:nonzero;display:inline;overflow:visible;visibility:visible;opacity:1;isolation:auto;mix-blend-mode:normal;color-interpolation:sRGB;color-interpolation-filters:linearRGB;solid-color:#000000;solid-opacity:1;vector-effect:none;fill:#34495e;fill-opacity:1;fill-rule:nonzero;stroke:none;stroke-width:3.00345778;stroke-linecap:butt;stroke-linejoin:miter;stroke-miterlimit:4;stroke-dasharray:none;stroke-dashoffset:0;stroke-opacity:1;color-rendering:auto;image-rendering:auto;shape-rendering:auto;text-rendering:auto;enable-background:accumulate"
       d="m 11.290448,271.91687 -3.7e-4,0.025 -3.7e-4,0.025 -3.7e-4,0.025 -3.7e-4,0.025 -3.7e-4,0.0249 -3.69e-4,0.025 -3.7e-4,0.025 -3.7e-4,0.025 0.947634,-0.46761 0.947633,0.48531 0.947634,-0.48531 0.947634,0.50303 0.947634,-0.50303 0.947633,0.52073 0.947634,-0.52073 0.947634,0.53845 1.89e-4,-0.025 1.9e-4,-0.025 1.88e-4,-0.025 1.9e-4,-0.0249 1.89e-4,-0.025 1.89e-4,-0.025 1.89e-4,-0.025 1.89e-4,-0.025 -0.947452,-0.53843 -0.947454,0.52073 -0.947453,-0.52073 -0.947453,0.50302 -0.947453,-0.50302 -0.947453,0.48531 -0.947453,-0.48531 z"
       id="path4672"
       inkscape:connector-curvature="0"
       sodipodi:nodetypes="ccccccccccccccccccccccccccccccccc" />
    <path
       sodipodi:nodetypes="ccccccccccccccccccccccccccccccccc"
       inkscape:connector-curvature="0"
       id="path4674"
       d="m 11.290448,275.12057 -3.7e-4,0.025 -3.7e-4,0.025 -3.7e-4,0.025 -3.7e-4,0.025 -3.7e-4,0.0249 -3.69e-4,0.025 -3.7e-4,0.025 -3.7e-4,0.025 0.947634,-0.4676 0.947633,0.48531 0.947634,-0.48531 0.947634,0.50301 0.947634,-0.50301 0.947633,0.52073 0.947634,-0.52073 0.947634,0.53843 1.89e-4,-0.025 1.9e-4,-0.025 1.88e-4,-0.025 1.9e-4,-0.0249 1.89e-4,-0.025 1.89e-4,-0.025 1.89e-4,-0.025 1.89e-4,-0.025 -0.947452,-0.53843 -0.947454,0.52073 -0.947453,-0.52073 -0.947453,0.50301 -0.947453,-0.50301 -0.947453,0.48531 -0.947453,-0.48531 z"
       style="color:#000000;font-style:normal;font-variant:normal;font-weight:normal;font-stretch:normal;font-size:medium;line-height:normal;font-family:sans-serif;font-variant-ligatures:normal;font-variant-position:normal;font-variant-caps:normal;font-variant-numeric:normal;font-variant-alternates:normal;font-feature-settings:normal;text-indent:0;text-align:start;text-decoration:none;text-decoration-line:none;text-decoration-style:solid;text-decoration-color:#000000;letter-spacing:normal;word-spacing:normal;text-transform:none;writing-mode:lr-tb;direction:ltr;text-orientation:mixed;dominant-baseline:auto;baseline-shift:baseline;text-anchor:start;white-space:normal;shape-padding:0;clip-rule:nonzero;display:inline;overflow:visible;visibility:visible;opacity:1;isolation:auto;mix-blend-mode:normal;color-interpolation:sRGB;color-interpolation-filters:linearRGB;solid-color:#000000;solid-opacity:1;vector-effect:none;fill:#34495e;fill-opacity:1;fill-rule:nonzero;stroke:none;stroke-width:3.00345778;stroke-linecap:butt;stroke-linejoin:miter;stroke-miterlimit:4;stroke-dasharray:none;stroke-dashoffset:0;stroke-opacity:1;color-rendering:auto;image-rendering:auto;shape-rendering:auto;text-rendering:auto;enable-background:accumulate" />
    <path
       style="color:#000000;font-style:normal;font-variant:normal;font-weight:normal;font-stretch:normal;font-size:medium;line-height:normal;font-family:sans-serif;font-variant-ligatures:normal;font-variant-position:normal;font-variant-caps:normal;font-variant-numeric:normal;font-variant-alternates:normal;font-feature-settings:normal;text-indent:0;text-align:start;text-decoration:none;text-decoration-line:none;text-decoration-style:solid;text-decoration-color:#000000;letter-spacing:normal;word-spacing:normal;text-transform:none;writing-mode:lr-tb;direction:ltr;text-orientation:mixed;dominant-baseline:auto;baseline-shift:baseline;text-anchor:start;white-space:normal;shape-padding:0;clip-rule:nonzero;display:inline;overflow:visible;visibility:visible;opacity:1;isolation:auto;mix-blend-mode:normal;color-interpolation:sRGB;color-interpolation-filters:linearRGB;solid-color:#000000;solid-opacity:1;vector-effect:none;fill:#34495e;fill-opacity:1;fill-rule:nonzero;stroke:none;stroke-width:3.00345778;stroke-linecap:butt;stroke-linejoin:miter;stroke-miterlimit:4;stroke-dasharray:none;stroke-dashoffset:0;stroke-opacity:1;color-rendering:auto;image-rendering:auto;shape-rendering:auto;text-rendering:auto;enable-background:accumulate"
       d="m 11.290448,278.32428 -3.7e-4,0.025 -3.7e-4,0.025 -3.7e-4,0.025 -3.7e-4,0.025 -3.7e-4,0.0249 -3.69e-4,0.025 -3.7e-4,0.025 -3.7e-4,0.025 0.947634,-0.4676 0.947633,0.48532 0.947634,-0.48532 0.947634,0.50302 0.947634,-0.50302 0.947633,0.52073 0.947634,-0.52073 0.947634,0.53844 1.89e-4,-0.025 1.9e-4,-0.025 1.88e-4,-0.025 1.9e-4,-0.0249 1.89e-4,-0.025 1.89e-4,-0.025 1.89e-4,-0.025 1.89e-4,-0.025 -0.947452,-0.53844 -0.947454,0.52073 -0.947453,-0.52073 -0.947453,0.50302 -0.947453,-0.50302 -0.947453,0.48531 -0.947453,-0.48531 z"
       id="path4676"
       inkscape:connector-curvature="0"
       sodipodi:nodetypes="ccccccccccccccccccccccccccccccccc" />
    <path
       sodipodi:nodetypes="ccccccccccccccccccccccccccccccccc"
       inkscape:connector-curvature="0"
       id="path4678"
       d="m 28.109821,261.90528 -3.7e-4,0.025 -3.7e-4,0.025 -3.7e-4,0.025 -3.7e-4,0.025 -3.7e-4,0.0249 -3.69e-4,0.025 -3.7e-4,0.025 -3.71e-4,0.025 0.947635,-0.46761 0.947634,0.48532 0.947635,-0.48532 0.947633,0.50303 0.947635,-0.50303 0.947633,0.52073 0.947634,-0.52073 0.947633,0.53845 1.9e-4,-0.025 1.88e-4,-0.025 1.9e-4,-0.025 1.89e-4,-0.0249 1.9e-4,-0.025 1.88e-4,-0.025 1.9e-4,-0.025 1.89e-4,-0.025 -0.947452,-0.53844 -0.947455,0.52073 -0.947452,-0.52073 -0.947454,0.50303 -0.947452,-0.50303 -0.947454,0.48531 -0.947454,-0.48531 z"
       style="color:#000000;font-style:normal;font-variant:normal;font-weight:normal;font-stretch:normal;font-size:medium;line-height:normal;font-family:sans-serif;font-variant-ligatures:normal;font-variant-position:normal;font-variant-caps:normal;font-variant-numeric:normal;font-variant-alternates:normal;font-feature-settings:normal;text-indent:0;text-align:start;text-decoration:none;text-decoration-line:none;text-decoration-style:solid;text-decoration-color:#000000;letter-spacing:normal;word-spacing:normal;text-transform:none;writing-mode:lr-tb;direction:ltr;text-orientation:mixed;dominant-baseline:auto;baseline-shift:baseline;text-anchor:start;white-space:normal;shape-padding:0;clip-rule:nonzero;display:inline;overflow:visible;visibility:visible;opacity:1;isolation:auto;mix-blend-mode:normal;color-interpolation:sRGB;color-interpolation-filters:linearRGB;solid-color:#000000;solid-opacity:1;vector-effect:none;fill:#34495e;fill-opacity:1;fill-rule:nonzero;stroke:none;stroke-width:3.00345778;stroke-linecap:butt;stroke-linejoin:miter;stroke-miterlimit:4;stroke-dasharray:none;stroke-dashoffset:0;stroke-opacity:1;color-rendering:auto;image-rendering:auto;shape-rendering:auto;text-rendering:auto;enable-background:accumulate" />
  </g>
</svg>
