<?xml version="1.0" encoding="UTF-8" standalone="no"?>
<svg
   xmlns:dc="http://purl.org/dc/elements/1.1/"
   xmlns:cc="http://creativecommons.org/ns#"
   xmlns:rdf="http://www.w3.org/1999/02/22-rdf-syntax-ns#"
   xmlns:svg="http://www.w3.org/2000/svg"
   xmlns="http://www.w3.org/2000/svg"
   xmlns:xlink="http://www.w3.org/1999/xlink"
   xmlns:sodipodi="http://sodipodi.sourceforge.net/DTD/sodipodi-0.dtd"
   xmlns:inkscape="http://www.inkscape.org/namespaces/inkscape"
   version="1.1"
   x="0px"
   y="0px"
   width="200px"
   height="200px"
   viewBox="0 0 200 200"
   xml:space="preserve"
   id="svg2287"
   sodipodi:docname="icono.svg"
   inkscape:version="0.92.3 (2405546, 2018-03-11)"><metadata
     id="metadata2293"><rdf:RDF><cc:Work
         rdf:about=""><dc:format>image/svg+xml</dc:format><dc:type
           rdf:resource="http://purl.org/dc/dcmitype/StillImage" /></cc:Work></rdf:RDF></metadata><defs
     id="defs2291" /><sodipodi:namedview
     pagecolor="#ffffff"
     bordercolor="#666666"
     borderopacity="1"
     objecttolerance="10"
     gridtolerance="10"
     guidetolerance="10"
     inkscape:pageopacity="0"
     inkscape:pageshadow="2"
     inkscape:window-width="724"
     inkscape:window-height="480"
     id="namedview2289"
     showgrid="false"
     inkscape:zoom="1.18"
     inkscape:cx="100"
     inkscape:cy="100"
     inkscape:window-x="0"
     inkscape:window-y="0"
     inkscape:window-maximized="0"
     inkscape:current-layer="svg2287" /><style
     type="text/css"
     id="style2254">.st0{clip-path:url(#XMLID_2_);fill:#99D468;} .st1{clip-path:url(#XMLID_2_);} .st2{fill:#B1C252;stroke:#82C250;stroke-width:2;stroke-linecap:round;stroke-linejoin:round;stroke-miterlimit:10;} .st3{clip-path:url(#XMLID_2_);fill:#B1C252;stroke:#82C250;stroke-width:2;stroke-linecap:round;stroke-linejoin:round;stroke-miterlimit:10;} .st4{clip-path:url(#XMLID_2_);fill:#82C250;} .st5{clip-path:url(#XMLID_2_);fill-rule:evenodd;clip-rule:evenodd;fill:#82C250;} .st6{clip-path:url(#XMLID_2_);fill:none;stroke:#82C250;stroke-linecap:round;stroke-linejoin:round;stroke-miterlimit:10;stroke-dasharray:4;} .st7{fill:#FCCE54;stroke:#F5F6F8;stroke-width:2;stroke-linecap:round;stroke-linejoin:round;stroke-miterlimit:10;}</style><g
     id="XMLID_136_"><defs
       id="defs2257"><circle
         id="XMLID_137_"
         cx="100"
         cy="100"
         r="100" /></defs><clipPath
       id="XMLID_2_"><use
         xlink:href="#XMLID_137_"
         overflow="visible"
         id="use2259"
         style="overflow:visible"
         x="0"
         y="0"
         width="100%"
         height="100%" /></clipPath><path
       class="st0"
       d="M 0,0 H 200 V 200 H 0 Z"
       clip-path="url(#XMLID_2_)"
       id="path2262"
       inkscape:connector-curvature="0"
       style="fill:#99d468" /><g
       class="st1"
       clip-path="url(#XMLID_2_)"
       id="g2266"><path
         class="st2"
         d="M 29.8,137.2 30,48.2"
         id="path2264"
         inkscape:connector-curvature="0"
         style="fill:#b1c252;stroke:#82c250;stroke-width:2;stroke-linecap:round;stroke-linejoin:round;stroke-miterlimit:10" /></g><path
       class="st3"
       d="M 143.7,150 H 43"
       clip-path="url(#XMLID_2_)"
       id="path2268"
       inkscape:connector-curvature="0"
       style="fill:#b1c252;stroke:#82c250;stroke-width:2;stroke-linecap:round;stroke-linejoin:round;stroke-miterlimit:10" /><circle
       class="st4"
       cx="30"
       cy="48.200001"
       r="2.3"
       clip-path="url(#XMLID_2_)"
       id="circle2270"
       style="fill:#82c250" /><circle
       class="st4"
       cx="29.799999"
       cy="137.10001"
       r="2.3"
       clip-path="url(#XMLID_2_)"
       id="circle2272"
       style="fill:#82c250" /><circle
       class="st4"
       cx="43.099998"
       cy="150.10001"
       r="2.3"
       clip-path="url(#XMLID_2_)"
       id="circle2274"
       style="fill:#82c250" /><circle
       class="st4"
       cx="143.89999"
       cy="150.2"
       r="2.3"
       clip-path="url(#XMLID_2_)"
       id="circle2276"
       style="fill:#82c250" /><path
       class="st5"
       d="m 17.3,89.6 c 0.1,-0.8 0.4,-2.2 1.1,-4.4 0.6,-2 1.2,-3.9 1.8,-5.6 0.2,-0.5 0.3,-0.9 0.2,-1.1 0,-0.2 -0.1,-0.3 -0.2,-0.4 -0.2,-0.1 -0.3,-0.2 -0.5,-0.2 -0.2,0 -0.3,0.2 -0.4,0.4 -0.1,0.2 -0.3,0.6 -0.4,1.1 -0.7,2.2 -1.3,4.3 -1.9,6.3 -0.5,2 -1.1,4.4 -1.6,7.2 -0.3,1.5 -0.4,2.4 -0.3,2.7 0,0.2 0.1,0.3 0.3,0.4 0.1,0.1 0.3,0.1 0.5,0.1 0.2,-0.1 0.4,-0.3 0.4,-0.6 0.6,-3.4 1.7,-5.7 3.4,-7 -0.4,1.3 -0.7,2.1 -0.8,2.3 -0.3,1.1 -0.4,2.1 -0.3,2.9 0.1,0.2 0.2,0.5 0.3,0.7 0.2,0.3 0.6,0.4 1,0.3 0.4,-0.1 0.8,-0.3 1.1,-0.7 0.5,-0.6 1,-1.4 1.4,-2.4 0.5,-1.1 0.7,-1.9 0.6,-2.2 0,-0.2 -0.2,-0.3 -0.4,-0.3 -0.2,0 -0.4,0.3 -0.5,0.7 -0.8,2 -1.4,3 -1.9,3.1 -0.2,0.1 -0.4,0 -0.4,-0.3 -0.1,-0.3 0,-0.8 0.2,-1.5 0.2,-0.9 0.6,-1.9 1.1,-3.1 0.3,-0.6 0.4,-1 0.3,-1.3 0,-0.2 -0.2,-0.3 -0.4,-0.4 -0.2,-0.1 -0.3,-0.1 -0.5,-0.1 -0.4,0.1 -0.9,0.5 -1.7,1.3 -0.4,0.6 -0.9,1.3 -1.5,2.1 z m 76.4,74.3 c -0.1,-0.4 -0.3,-0.7 -0.5,-0.9 -0.3,-0.3 -0.7,-0.4 -1,-0.3 -0.6,0.1 -1.2,0.6 -1.9,1.4 0.4,-1.8 1.1,-4.1 2.2,-7 0.3,-1 0.5,-1.5 0.6,-1.6 0.1,-0.3 0.1,-0.6 0.1,-0.8 0,-0.2 -0.1,-0.3 -0.2,-0.4 -0.2,-0.2 -0.4,-0.2 -0.6,-0.2 -0.2,0 -0.3,0.2 -0.4,0.5 -0.1,0.3 -0.4,1.1 -0.9,2.6 -1.2,3.6 -2.2,7.1 -3,10.7 -0.6,2.5 -0.8,3.9 -0.7,4.2 0,0.1 0.1,0.3 0.2,0.4 0.2,0.2 0.4,0.2 0.5,0.2 0.1,0 0.2,-0.1 0.3,-0.2 0,-0.1 0.1,-0.3 0.2,-0.7 0,0 0,-0.1 0.1,-0.3 0.2,0.2 0.4,0.3 0.7,0.3 h 0.8 c 0.7,-0.2 1.4,-0.7 2,-1.7 0.8,-1.2 1.3,-2.4 1.6,-3.6 0,-0.9 0.1,-1.8 -0.1,-2.6 z m -1.3,2.1 c -0.1,0.7 -0.3,1.3 -0.6,2 -0.6,1.6 -1.3,2.4 -2.1,2.6 h -0.5 c -0.2,-0.1 -0.3,-0.2 -0.5,-0.3 0,0 0,-0.1 0.1,-0.4 0.1,-0.5 0.2,-1 0.4,-1.6 0.3,-1.2 0.8,-2.1 1.2,-2.8 0.5,-0.7 0.9,-1.1 1.3,-1.2 h 0.4 c 0.1,0.1 0.2,0.2 0.2,0.4 0.2,0.3 0.2,0.7 0.1,1.3 z"
       clip-path="url(#XMLID_2_)"
       id="path2278"
       inkscape:connector-curvature="0"
       style="clip-rule:evenodd;fill:#82c250;fill-rule:evenodd" /><path
       class="st6"
       d="m 76.2,47.5 h 100.4 v 90.2 H 76.2 Z"
       clip-path="url(#XMLID_2_)"
       id="path2280"
       inkscape:connector-curvature="0"
       style="fill:none;stroke:#82c250;stroke-linecap:round;stroke-linejoin:round;stroke-miterlimit:10;stroke-dasharray:4" /><g
       class="st1"
       clip-path="url(#XMLID_2_)"
       id="g2284"><path
         class="st7"
         d="M 143.6,137.2 H 43.8 l 32,-89 h 99.8 z"
         id="path2282"
         inkscape:connector-curvature="0"
         style="fill:#fcce54;stroke:#f5f6f8;stroke-width:2;stroke-linecap:round;stroke-linejoin:round;stroke-miterlimit:10" /></g></g></svg>