<?xml version="1.0" encoding="UTF-8" standalone="no"?>
<svg
   xmlns:dc="http://purl.org/dc/elements/1.1/"
   xmlns:cc="http://creativecommons.org/ns#"
   xmlns:rdf="http://www.w3.org/1999/02/22-rdf-syntax-ns#"
   xmlns:svg="http://www.w3.org/2000/svg"
   xmlns="http://www.w3.org/2000/svg"
   xmlns:xlink="http://www.w3.org/1999/xlink"
   xmlns:sodipodi="http://sodipodi.sourceforge.net/DTD/sodipodi-0.dtd"
   xmlns:inkscape="http://www.inkscape.org/namespaces/inkscape"
   version="1.1"
   x="0px"
   y="0px"
   width="200px"
   height="200px"
   viewBox="0 0 200 200"
   xml:space="preserve"
   id="svg1049"
   sodipodi:docname="icono.svg"
   inkscape:version="0.92.3 (2405546, 2018-03-11)"><metadata
     id="metadata1055"><rdf:RDF><cc:Work
         rdf:about=""><dc:format>image/svg+xml</dc:format><dc:type
           rdf:resource="http://purl.org/dc/dcmitype/StillImage" /></cc:Work></rdf:RDF></metadata><defs
     id="defs1053" /><sodipodi:namedview
     pagecolor="#ffffff"
     bordercolor="#666666"
     borderopacity="1"
     objecttolerance="10"
     gridtolerance="10"
     guidetolerance="10"
     inkscape:pageopacity="0"
     inkscape:pageshadow="2"
     inkscape:window-width="1366"
     inkscape:window-height="745"
     id="namedview1051"
     showgrid="false"
     inkscape:zoom="1.18"
     inkscape:cx="100"
     inkscape:cy="100"
     inkscape:window-x="-8"
     inkscape:window-y="-8"
     inkscape:window-maximized="1"
     inkscape:current-layer="svg1049" /><style
     type="text/css"
     id="style998">.st0{clip-path:url(#XMLID_2_);fill:#99D468;} .st1{clip-path:url(#XMLID_2_);} .st2{fill:#3AB65C;} .st3{fill:#ED5564;} .st4{fill:#F17B86;} .st5{fill:#FCCE54;} .st6{fill:#FDDE8D;} .st7{fill:#506378;} .st8{fill:#36404B;} .st9{clip-path:url(#XMLID_2_);fill:#955751;} .st10{clip-path:url(#XMLID_2_);fill:#824C47;}</style><g
     id="XMLID_66_"><defs
       id="defs1001"><circle
         id="XMLID_103_"
         cx="100"
         cy="100"
         r="100" /></defs><clipPath
       id="XMLID_2_"><use
         xlink:href="#XMLID_103_"
         overflow="visible"
         id="use1003"
         style="overflow:visible"
         x="0"
         y="0"
         width="100%"
         height="100%" /></clipPath><path
       class="st0"
       d="M 0,0 H 200 V 200 H 0 Z"
       clip-path="url(#XMLID_2_)"
       id="path1006"
       inkscape:connector-curvature="0"
       style="fill:#99d468" /><g
       class="st1"
       clip-path="url(#XMLID_2_)"
       id="g1042"><path
         class="st2"
         d="m 63,101.5 c 0,0 -3.6,-0.6 -6.4,1.3 -1.1,0.8 -2,1.8 -2.6,2.8 l 0.3,-1.4 -1.3,-0.3 -0.9,8.1 1.4,-3.7 c 1.2,0.1 3.7,0 5.8,-1.4 2.8,-1.8 3.7,-5.4 3.7,-5.4 z"
         id="path1008"
         inkscape:connector-curvature="0"
         style="fill:#3ab65c" /><path
         class="st3"
         d="m 61,109.9 c -3,-0.6 -6.1,0.2 -8.9,2.1 -1.9,-2.8 -4.4,-4.8 -7.4,-5.4 -9,-1.8 -14.9,8.6 -13.6,19.2 0.9,7.7 5.5,13.4 10.6,14.4 1.7,0.3 3.3,0.2 4.8,-0.3 1.2,1.1 2.6,1.9 4.3,2.2 5,1 11.5,-2.4 15.3,-9.1 5.2,-9.4 3.9,-21.3 -5.1,-23.1 z"
         id="path1010"
         inkscape:connector-curvature="0"
         style="fill:#ed5564" /><path
         class="st4"
         d="m 42.2,109.3 c -1.5,-0.3 -3,0.7 -3.3,2.2 -0.3,1.5 0.7,3 2.2,3.3 1.5,0.3 3,-0.7 3.3,-2.2 0.2,-1.6 -0.7,-3 -2.2,-3.3 z m -5.2,6 c -0.6,-0.1 -1.2,0.3 -1.3,0.9 -0.1,0.6 0.3,1.2 0.9,1.3 0.6,0.1 1.2,-0.3 1.3,-0.9 0,-0.6 -0.3,-1.1 -0.9,-1.3 z"
         id="path1012"
         inkscape:connector-curvature="0"
         style="fill:#f17b86" /><path
         class="st2"
         d="m 166.7,91 c 0,0 -3.6,-0.6 -6.4,1.3 -1.1,0.8 -2,1.8 -2.6,2.8 l 0.3,-1.4 -1.3,-0.3 -0.9,8.1 1.4,-3.7 c 1.2,0.1 3.7,0 5.8,-1.4 2.8,-1.8 3.7,-5.4 3.7,-5.4 z"
         id="path1014"
         inkscape:connector-curvature="0"
         style="fill:#3ab65c" /><path
         class="st5"
         d="m 155.7,101 c -1.9,-2.8 -24.7,7.6 -23,24.7 0.9,7.7 5.5,13.4 10.6,14.4 1.7,0.3 3.3,0.2 4.8,-0.3 1.2,1.1 2.6,1.9 4.3,2.2 5,1 11.6,-2.3 15.3,-9.1 7.1,-12.8 -9.2,-33.8 -12,-31.9 z"
         id="path1016"
         inkscape:connector-curvature="0"
         style="fill:#fcce54" /><path
         class="st6"
         d="m 153.2,105.4 c -2.5,-2.8 -6.4,-0.2 -4.8,3.2 2.4,2.8 6.4,0.2 4.8,-3.2 z m -7.1,4.9 c -0.6,-0.1 -1.2,0.3 -1.3,0.9 -0.1,0.6 0.3,1.2 0.9,1.3 0.6,0.1 1.2,-0.3 1.3,-0.9 0.1,-0.6 -0.3,-1.1 -0.9,-1.3 z"
         id="path1018"
         inkscape:connector-curvature="0"
         style="fill:#fdde8d" /><path
         class="st7"
         d="M 99.6,138.2 94,49.7 v -0.3 l 5.6,-21.8 c 0.3,-1 1.7,-1 2,0 l 5.6,21.8 v 0.3 l -5.6,88.5 c 0,1.3 -1.9,1.3 -2,0 z"
         id="path1020"
         inkscape:connector-curvature="0"
         style="fill:#506378" /><g
         id="g1024"><path
           class="st7"
           d="m 151.4,150.9 c 13.7,0 24.8,-11.1 24.8,-24.8 h -49.5 c -0.1,13.7 11,24.8 24.7,24.8 z m -24.8,-25 h -0.2 c -0.4,-0.1 -0.6,-0.5 -0.5,-0.9 l 25.5,-66.9 25.5,66.9 c 0.1,0.4 -0.1,0.8 -0.5,0.9 -0.4,0.1 -0.8,-0.1 -0.9,-0.5 l -24.1,-61.3 -24.1,61.3 c 0,0.3 -0.3,0.5 -0.7,0.5 z"
           id="path1022"
           inkscape:connector-curvature="0"
           style="fill:#506378" /></g><g
         id="g1028"><path
           class="st7"
           d="m 49.8,150.9 c 13.7,0 24.8,-11.1 24.8,-24.8 H 25.1 c 0,13.7 11.1,24.8 24.7,24.8 z m -24.7,-25 h -0.2 c -0.4,-0.1 -0.6,-0.5 -0.5,-0.9 L 49.9,58.1 75.3,125 c 0.1,0.4 -0.1,0.8 -0.5,0.9 -0.4,0.1 -0.8,-0.1 -0.9,-0.5 L 49.8,64.1 25.7,125.4 c 0,0.3 -0.3,0.5 -0.6,0.5 z"
           id="path1026"
           inkscape:connector-curvature="0"
           style="fill:#506378" /></g><g
         id="g1036"><path
           class="st7"
           d="m 153,45.6 c 0,4.2 -16.2,8.9 -28.8,8.9 -6.5,0 -12,-1.3 -15.8,-3.1 0.3,-0.9 0.5,-1.9 0.5,-2.9 0,-4.6 -3.7,-8.3 -8.3,-8.3 -4.6,0 -8.3,3.7 -8.3,8.3 0,1 0.2,2 0.5,2.9 -3.8,1.8 -9.3,3.1 -15.8,3.1 -12.6,0 -28.8,-4.7 -28.8,-8.9 h -3 c 0,6.6 18.1,11.8 31.8,11.8 6.9,0 13,-1.3 17.3,-3.5 1.5,1.7 3.8,2.9 6.3,2.9 2.5,0 4.7,-1.1 6.3,-2.9 4.4,2.2 10.5,3.5 17.3,3.5 13.7,0 31.8,-5.2 31.8,-11.8 z"
           id="path1030"
           inkscape:connector-curvature="0"
           style="fill:#506378" /><path
           class="st7"
           d="m 49.8,66.1 c -2.9,0 -5.3,-2.4 -5.3,-5.3 0,-2.6 2,-4.8 4.5,-5.2 v -4.7 c 0,-0.4 0.3,-0.7 0.7,-0.7 0.4,0 0.7,0.3 0.7,0.7 V 57 h -0.7 c -2.1,0 -3.8,1.7 -3.8,3.8 0,2.1 1.7,3.8 3.8,3.8 2.1,0 3.8,-1.7 3.8,-3.8 0,-0.4 0.3,-0.7 0.7,-0.7 0.4,0 0.7,0.3 0.7,0.7 0.2,2.9 -2.2,5.3 -5.1,5.3 z m 101.6,0 c 2.9,0 5.3,-2.4 5.3,-5.3 0,-2.6 -2,-4.8 -4.5,-5.2 v -4.7 c 0,-0.4 -0.3,-0.7 -0.7,-0.7 -0.4,0 -0.7,0.3 -0.7,0.7 V 57 h 0.7 c 2.1,0 3.8,1.7 3.8,3.8 0,2.1 -1.7,3.8 -3.8,3.8 -2.1,0 -3.8,-1.7 -3.8,-3.8 0,-0.4 -0.3,-0.7 -0.7,-0.7 -0.4,0 -0.7,0.3 -0.7,0.7 -0.1,2.9 2.2,5.3 5.1,5.3 z"
           id="path1032"
           inkscape:connector-curvature="0"
           style="fill:#506378" /><circle
           class="st8"
           cx="100.6"
           cy="48.599998"
           r="3.8"
           id="circle1034"
           style="fill:#36404b" /></g><g
         id="g1040"><path
           class="st8"
           d="m 141,156.3 h -22.8 c -3.7,0 -6.8,-3 -6.8,-6.8 v -4 c 0,-5.9 -4.8,-10.7 -10.8,-10.7 -5.9,0 -10.8,4.8 -10.8,10.7 v 4 c 0,3.7 -3,6.8 -6.8,6.8 H 60.3 c -3,0 -5.4,2.4 -5.4,5.4 v 5.4 h 91.4 v -5.4 c 0,-3 -2.4,-5.4 -5.3,-5.4 z m -40.4,-6.6 c -2.3,0 -4.2,-1.9 -4.2,-4.2 0,-2.3 1.9,-4.2 4.2,-4.2 2.3,0 4.2,1.9 4.2,4.2 0.1,2.4 -1.8,4.2 -4.2,4.2 z"
           id="path1038"
           inkscape:connector-curvature="0"
           style="fill:#36404b" /></g></g><path
       class="st9"
       d="m 25.9,175.7 h 149.5 v 24.4 H 25.9 Z m 0,-8.6 h 149.5 v 8.6 H 25.9 Z"
       clip-path="url(#XMLID_2_)"
       id="path1044"
       inkscape:connector-curvature="0"
       style="fill:#955751" /><path
       class="st10"
       d="M 25.9,175.7 H 175.4 V 180 H 25.9 Z"
       clip-path="url(#XMLID_2_)"
       id="path1046"
       inkscape:connector-curvature="0"
       style="fill:#824c47" /></g></svg>