<?xml version="1.0" encoding="UTF-8" standalone="no"?>
<!-- Created with Inkscape (http://www.inkscape.org/) -->

<svg
   xmlns:dc="http://purl.org/dc/elements/1.1/"
   xmlns:cc="http://creativecommons.org/ns#"
   xmlns:rdf="http://www.w3.org/1999/02/22-rdf-syntax-ns#"
   xmlns:svg="http://www.w3.org/2000/svg"
   xmlns="http://www.w3.org/2000/svg"
   xmlns:sodipodi="http://sodipodi.sourceforge.net/DTD/sodipodi-0.dtd"
   xmlns:inkscape="http://www.inkscape.org/namespaces/inkscape"
   width="200"
   height="200"
   viewBox="0 0 52.916665 52.916668"
   version="1.1"
   id="svg8"
   inkscape:version="0.92.3 (2405546, 2018-03-11)"
   sodipodi:docname="icono.svg">
  <defs
     id="defs2">
    <marker
       inkscape:stockid="Arrow1Lend"
       orient="auto"
       refY="0.0"
       refX="0.0"
       id="marker4385"
       style="overflow:visible;"
       inkscape:isstock="true">
      <path
         id="path4383"
         d="M 0.0,0.0 L 5.0,-5.0 L -12.5,0.0 L 5.0,5.0 L 0.0,0.0 z "
         style="fill-rule:evenodd;stroke:#3498db;stroke-width:1pt;stroke-opacity:1;fill:#3498db;fill-opacity:1"
         transform="scale(0.8) rotate(180) translate(12.5,0)" />
    </marker>
    <marker
       inkscape:isstock="true"
       style="overflow:visible;"
       id="marker4121"
       refX="0.0"
       refY="0.0"
       orient="auto"
       inkscape:stockid="Arrow1Lend"
       inkscape:collect="always">
      <path
         transform="scale(0.8) rotate(180) translate(12.5,0)"
         style="fill-rule:evenodd;stroke:#3498db;stroke-width:1pt;stroke-opacity:1;fill:#3498db;fill-opacity:1"
         d="M 0.0,0.0 L 5.0,-5.0 L -12.5,0.0 L 5.0,5.0 L 0.0,0.0 z "
         id="path4119" />
    </marker>
    <marker
       inkscape:stockid="Arrow1Lend"
       orient="auto"
       refY="0.0"
       refX="0.0"
       id="marker3805"
       style="overflow:visible;"
       inkscape:isstock="true">
      <path
         id="path3803"
         d="M 0.0,0.0 L 5.0,-5.0 L -12.5,0.0 L 5.0,5.0 L 0.0,0.0 z "
         style="fill-rule:evenodd;stroke:#e74c3c;stroke-width:1pt;stroke-opacity:1;fill:#e74c3c;fill-opacity:1"
         transform="scale(0.8) rotate(180) translate(12.5,0)" />
    </marker>
    <marker
       inkscape:isstock="true"
       style="overflow:visible;"
       id="marker3557"
       refX="0.0"
       refY="0.0"
       orient="auto"
       inkscape:stockid="Arrow1Lend"
       inkscape:collect="always">
      <path
         transform="scale(0.8) rotate(180) translate(12.5,0)"
         style="fill-rule:evenodd;stroke:#e74c3c;stroke-width:1pt;stroke-opacity:1;fill:#e74c3c;fill-opacity:1"
         d="M 0.0,0.0 L 5.0,-5.0 L -12.5,0.0 L 5.0,5.0 L 0.0,0.0 z "
         id="path3555" />
    </marker>
    <marker
       inkscape:isstock="true"
       style="overflow:visible"
       id="marker3317"
       refX="0.0"
       refY="0.0"
       orient="auto"
       inkscape:stockid="Arrow1Lstart">
      <path
         transform="scale(0.8) translate(12.5,0)"
         style="fill-rule:evenodd;stroke:#3498db;stroke-width:1pt;stroke-opacity:1;fill:#3498db;fill-opacity:1"
         d="M 0.0,0.0 L 5.0,-5.0 L -12.5,0.0 L 5.0,5.0 L 0.0,0.0 z "
         id="path3315" />
    </marker>
    <marker
       inkscape:stockid="Arrow1Lstart"
       orient="auto"
       refY="0.0"
       refX="0.0"
       id="marker3125"
       style="overflow:visible"
       inkscape:isstock="true"
       inkscape:collect="always">
      <path
         id="path3123"
         d="M 0.0,0.0 L 5.0,-5.0 L -12.5,0.0 L 5.0,5.0 L 0.0,0.0 z "
         style="fill-rule:evenodd;stroke:#3498db;stroke-width:1pt;stroke-opacity:1;fill:#3498db;fill-opacity:1"
         transform="scale(0.8) translate(12.5,0)" />
    </marker>
    <marker
       inkscape:isstock="true"
       style="overflow:visible"
       id="marker2993"
       refX="0.0"
       refY="0.0"
       orient="auto"
       inkscape:stockid="Arrow1Lstart">
      <path
         transform="scale(0.8) translate(12.5,0)"
         style="fill-rule:evenodd;stroke:#e74c3c;stroke-width:1pt;stroke-opacity:1;fill:#e74c3c;fill-opacity:1"
         d="M 0.0,0.0 L 5.0,-5.0 L -12.5,0.0 L 5.0,5.0 L 0.0,0.0 z "
         id="path2991" />
    </marker>
    <marker
       inkscape:stockid="Arrow1Lstart"
       orient="auto"
       refY="0.0"
       refX="0.0"
       id="marker2837"
       style="overflow:visible"
       inkscape:isstock="true"
       inkscape:collect="always">
      <path
         id="path2835"
         d="M 0.0,0.0 L 5.0,-5.0 L -12.5,0.0 L 5.0,5.0 L 0.0,0.0 z "
         style="fill-rule:evenodd;stroke:#e74c3c;stroke-width:1pt;stroke-opacity:1;fill:#e74c3c;fill-opacity:1"
         transform="scale(0.8) translate(12.5,0)" />
    </marker>
    <marker
       inkscape:isstock="true"
       style="overflow:visible"
       id="marker2257"
       refX="0.0"
       refY="0.0"
       orient="auto"
       inkscape:stockid="Arrow1Lstart"
       inkscape:collect="always">
      <path
         transform="scale(0.8) translate(12.5,0)"
         style="fill-rule:evenodd;stroke:#e74c3c;stroke-width:1pt;stroke-opacity:1;fill:#e74c3c;fill-opacity:1"
         d="M 0.0,0.0 L 5.0,-5.0 L -12.5,0.0 L 5.0,5.0 L 0.0,0.0 z "
         id="path2255" />
    </marker>
    <marker
       inkscape:stockid="Arrow1Lend"
       orient="auto"
       refY="0.0"
       refX="0.0"
       id="marker1687"
       style="overflow:visible;"
       inkscape:isstock="true"
       inkscape:collect="always">
      <path
         id="path1685"
         d="M 0.0,0.0 L 5.0,-5.0 L -12.5,0.0 L 5.0,5.0 L 0.0,0.0 z "
         style="fill-rule:evenodd;stroke:#e74c3c;stroke-width:1pt;stroke-opacity:1;fill:#e74c3c;fill-opacity:1"
         transform="scale(0.8) rotate(180) translate(12.5,0)" />
    </marker>
    <marker
       inkscape:stockid="Arrow1Lstart"
       orient="auto"
       refY="0.0"
       refX="0.0"
       id="marker1683"
       style="overflow:visible"
       inkscape:isstock="true">
      <path
         id="path1681"
         d="M 0.0,0.0 L 5.0,-5.0 L -12.5,0.0 L 5.0,5.0 L 0.0,0.0 z "
         style="fill-rule:evenodd;stroke:#e74c3c;stroke-width:1pt;stroke-opacity:1;fill:#e74c3c;fill-opacity:1"
         transform="scale(0.8) translate(12.5,0)" />
    </marker>
    <marker
       inkscape:stockid="Arrow1Lend"
       orient="auto"
       refY="0.0"
       refX="0.0"
       id="Arrow1Lend"
       style="overflow:visible;"
       inkscape:isstock="true"
       inkscape:collect="always">
      <path
         id="path1402"
         d="M 0.0,0.0 L 5.0,-5.0 L -12.5,0.0 L 5.0,5.0 L 0.0,0.0 z "
         style="fill-rule:evenodd;stroke:#3498db;stroke-width:1pt;stroke-opacity:1;fill:#3498db;fill-opacity:1"
         transform="scale(0.8) rotate(180) translate(12.5,0)" />
    </marker>
    <marker
       inkscape:isstock="true"
       style="overflow:visible"
       id="marker1677"
       refX="0.0"
       refY="0.0"
       orient="auto"
       inkscape:stockid="Arrow1Lstart">
      <path
         transform="scale(0.8) translate(12.5,0)"
         style="fill-rule:evenodd;stroke:#3498db;stroke-width:1pt;stroke-opacity:1;fill:#3498db;fill-opacity:1"
         d="M 0.0,0.0 L 5.0,-5.0 L -12.5,0.0 L 5.0,5.0 L 0.0,0.0 z "
         id="path1675" />
    </marker>
    <marker
       inkscape:isstock="true"
       style="overflow:visible"
       id="marker1669"
       refX="0.0"
       refY="0.0"
       orient="auto"
       inkscape:stockid="Arrow1Lstart"
       inkscape:collect="always">
      <path
         transform="scale(0.8) translate(12.5,0)"
         style="fill-rule:evenodd;stroke:#3498db;stroke-width:1pt;stroke-opacity:1;fill:#3498db;fill-opacity:1"
         d="M 0.0,0.0 L 5.0,-5.0 L -12.5,0.0 L 5.0,5.0 L 0.0,0.0 z "
         id="path1667" />
    </marker>
    <marker
       inkscape:stockid="Arrow2Lend"
       orient="auto"
       refY="0.0"
       refX="0.0"
       id="Arrow2Lend"
       style="overflow:visible;"
       inkscape:isstock="true">
      <path
         id="path1420"
         style="fill-rule:evenodd;stroke-width:0.625;stroke-linejoin:round;stroke:#000000;stroke-opacity:1;fill:#000000;fill-opacity:1"
         d="M 8.7185878,4.0337352 L -2.2072895,0.016013256 L 8.7185884,-4.0017078 C 6.9730900,-1.6296469 6.9831476,1.6157441 8.7185878,4.0337352 z "
         transform="scale(1.1) rotate(180) translate(1,0)" />
    </marker>
  </defs>
  <sodipodi:namedview
     id="base"
     pagecolor="#ffffff"
     bordercolor="#666666"
     borderopacity="1.0"
     inkscape:pageopacity="0.0"
     inkscape:pageshadow="2"
     inkscape:zoom="2.8"
     inkscape:cx="54.374364"
     inkscape:cy="96.665737"
     inkscape:document-units="mm"
     inkscape:current-layer="layer1"
     showgrid="false"
     units="px"
     inkscape:window-width="1366"
     inkscape:window-height="745"
     inkscape:window-x="-8"
     inkscape:window-y="-8"
     inkscape:window-maximized="1"
     showguides="true"
     inkscape:guide-bbox="true">
    <inkscape:grid
       type="xygrid"
       id="grid6106" />
  </sodipodi:namedview>
  <metadata
     id="metadata5">
    <rdf:RDF>
      <cc:Work
         rdf:about="">
        <dc:format>image/svg+xml</dc:format>
        <dc:type
           rdf:resource="http://purl.org/dc/dcmitype/StillImage" />
        <dc:title />
      </cc:Work>
    </rdf:RDF>
  </metadata>
  <g
     inkscape:label="Capa 1"
     inkscape:groupmode="layer"
     id="layer1"
     transform="translate(0,-244.08332)">
    <rect
       style="fill:#bdc3c7;fill-opacity:1;fill-rule:evenodd;stroke:none;stroke-width:2.16031361;stroke-linejoin:miter;stroke-miterlimit:4;stroke-dasharray:none;stroke-dashoffset:0;stroke-opacity:1"
       id="rect815"
       width="52.916668"
       height="52.916668"
       x="2.5687237e-008"
       y="244.08334" />
    <path
       style="opacity:1;vector-effect:none;fill:#f39c12;fill-opacity:1;fill-rule:evenodd;stroke:none;stroke-width:0.53477621;stroke-linecap:butt;stroke-linejoin:miter;stroke-miterlimit:4;stroke-dasharray:none;stroke-dashoffset:0;stroke-opacity:1"
       d="m 32.626287,284.52335 c 3.024173,2.11761 -2.394275,6.68471 -5.347763,6.68471 -2.953488,0 -5.347763,-2.99284 -5.347762,-6.68471 -1e-6,-3.69185 5.48334,-8.49986 5.48334,-8.49986 -0.805775,0.4271 2.108976,6.32693 5.212185,8.49986 z"
       id="path6112"
       inkscape:connector-curvature="0"
       sodipodi:nodetypes="ssscs" />
    <path
       sodipodi:nodetypes="ssscs"
       inkscape:connector-curvature="0"
       id="path6115"
       d="m 30.583353,286.25418 c 1.764096,1.23527 -1.396656,3.89941 -3.119518,3.89941 -1.722863,0 -3.119518,-1.74583 -3.119518,-3.89941 0,-2.15357 3.198605,-4.95824 3.198605,-4.95824 -0.470034,0.24914 1.230232,3.6907 3.040431,4.95824 z"
       style="opacity:1;vector-effect:none;fill:#2980b9;fill-opacity:1;fill-rule:evenodd;stroke:none;stroke-width:0.31195179;stroke-linecap:butt;stroke-linejoin:miter;stroke-miterlimit:4;stroke-dasharray:none;stroke-dashoffset:0;stroke-opacity:1" />
    <path
       style="opacity:1;vector-effect:none;fill:#ecf0f1;fill-opacity:1;fill-rule:evenodd;stroke:none;stroke-width:0.16340314;stroke-linecap:butt;stroke-linejoin:miter;stroke-miterlimit:4;stroke-dasharray:none;stroke-dashoffset:0;stroke-opacity:1"
       d="m 29.221406,287.68927 c 0.924049,0.64704 -0.731581,2.04254 -1.634031,2.04254 -0.902451,0 -1.634032,-0.91448 -1.634032,-2.04254 0,-1.12806 1.675458,-2.59717 1.675458,-2.59717 -0.246208,0.1305 0.644407,1.93322 1.592605,2.59717 z"
       id="path6125"
       inkscape:connector-curvature="0"
       sodipodi:nodetypes="ssscs" />
    <path
       style="fill:none;fill-rule:evenodd;stroke:#e74c3c;stroke-width:0.26458333;stroke-miterlimit:4;stroke-dasharray:none;stroke-opacity:1;marker-start:url(#marker2257)"
       d="m 17.021565,253.92564 c 6.231112,1.49542 7.520375,8.04729 7.289609,10.52193 0.05832,4.35836 -1.333803,9.48493 -6.640842,11.35087"
       id="path1396"
       inkscape:connector-curvature="0"
       sodipodi:nodetypes="ccc"
       inkscape:tile-cx="19.719253"
       inkscape:tile-cy="19.188634"
       inkscape:tile-w="9.3516535"
       inkscape:tile-h="25.809746"
       inkscape:tile-x0="14.768292"
       inkscape:tile-y0="6.1306568" />
    <path
       sodipodi:nodetypes="ccc"
       inkscape:connector-curvature="0"
       id="path1665"
       d="m 14.740187,275.50141 c -6.2440297,-1.44053 -7.5909021,-7.9808 -7.3819227,-10.45737 -0.096671,-4.35768 1.2502786,-9.4963 6.5406897,-11.40887"
       style="fill:none;fill-rule:evenodd;stroke:#3498db;stroke-width:0.26458333;stroke-miterlimit:4;stroke-dasharray:none;stroke-opacity:1;marker-start:url(#marker1669)" />
    <path
       sodipodi:nodetypes="ccc"
       inkscape:connector-curvature="0"
       id="path1671"
       d="m 38.086933,253.56637 c 6.435299,1.54443 7.76681,8.311 7.528481,10.86673 0.06023,4.50117 -1.377509,9.79573 -6.858454,11.72281"
       style="fill:none;fill-rule:evenodd;stroke:#3498db;stroke-width:0.26458333;stroke-miterlimit:4;stroke-dasharray:none;stroke-opacity:1;marker-end:url(#Arrow1Lend)" />
    <path
       style="fill:none;fill-rule:evenodd;stroke:#e74c3c;stroke-width:0.26458333;stroke-miterlimit:4;stroke-dasharray:none;stroke-opacity:1;marker-end:url(#marker1687)"
       d="m 35.870956,275.33667 c -6.150207,-1.41888 -7.476842,-7.86087 -7.271003,-10.30023 -0.09522,-4.2922 1.231492,-9.35361 6.442411,-11.23743"
       id="path1673"
       inkscape:connector-curvature="0"
       sodipodi:nodetypes="ccc" />
    <path
       inkscape:tile-y0="6.1306568"
       inkscape:tile-x0="14.768292"
       inkscape:tile-h="25.809746"
       inkscape:tile-w="9.3516535"
       inkscape:tile-cy="19.188634"
       inkscape:tile-cx="19.719253"
       sodipodi:nodetypes="ccc"
       inkscape:connector-curvature="0"
       id="path2833"
       d="m 17.272538,257.63067 c 4.094096,0.98256 4.941194,5.2874 4.789571,6.91335 0.03832,2.86361 -0.876363,6.23198 -4.363305,7.45797"
       style="fill:none;fill-rule:evenodd;stroke:#e74c3c;stroke-width:0.26458333;stroke-miterlimit:4;stroke-dasharray:none;stroke-opacity:1;marker-start:url(#marker2837)" />
    <path
       style="fill:none;fill-rule:evenodd;stroke:#e74c3c;stroke-width:0.26458333;stroke-miterlimit:4;stroke-dasharray:none;stroke-opacity:1;marker-start:url(#marker2993)"
       d="m 16.113918,259.79194 c 2.847503,0.68339 3.436673,3.67746 3.331216,4.80833 0.02665,1.99169 -0.609522,4.33443 -3.034742,5.18713"
       id="path2989"
       inkscape:connector-curvature="0"
       sodipodi:nodetypes="ccc"
       inkscape:tile-cx="19.719253"
       inkscape:tile-cy="19.188634"
       inkscape:tile-w="9.3516535"
       inkscape:tile-h="25.809746"
       inkscape:tile-x0="14.768292"
       inkscape:tile-y0="6.1306568" />
    <path
       style="fill:none;fill-rule:evenodd;stroke:#3498db;stroke-width:0.26458333;stroke-miterlimit:4;stroke-dasharray:none;stroke-opacity:1;marker-start:url(#marker3125)"
       d="m 14.947855,271.8461 c -4.12569,-0.95182 -5.0156242,-5.27324 -4.877543,-6.90962 -0.06387,-2.87929 0.826111,-6.2746 4.321706,-7.53831"
       id="path3121"
       inkscape:connector-curvature="0"
       sodipodi:nodetypes="ccc" />
    <path
       sodipodi:nodetypes="ccc"
       inkscape:connector-curvature="0"
       id="path3313"
       d="m 16.007491,269.40923 c -2.713464,-0.62602 -3.298773,-3.4682 -3.207957,-4.54446 -0.04201,-1.8937 0.543333,-4.12679 2.842384,-4.95794"
       style="fill:none;fill-rule:evenodd;stroke:#3498db;stroke-width:0.26458333;stroke-miterlimit:4;stroke-dasharray:none;stroke-opacity:1;marker-start:url(#marker3317)" />
    <path
       sodipodi:nodetypes="ccc"
       inkscape:connector-curvature="0"
       id="path3553"
       d="m 35.467929,271.48404 c -3.955911,-0.91265 -4.809223,-5.05624 -4.676825,-6.62528 -0.06124,-2.76081 0.792116,-6.01639 4.143861,-7.22809"
       style="fill:none;fill-rule:evenodd;stroke:#e74c3c;stroke-width:0.26458333;stroke-miterlimit:4;stroke-dasharray:none;stroke-opacity:1;marker-end:url(#marker3557)" />
    <path
       style="fill:none;fill-rule:evenodd;stroke:#e74c3c;stroke-width:0.26458333;stroke-miterlimit:4;stroke-dasharray:none;stroke-opacity:1;marker-end:url(#marker3805)"
       d="m 36.584363,269.37199 c -2.752978,-0.63513 -3.346812,-3.51872 -3.254674,-4.61064 -0.04262,-1.92129 0.551246,-4.18689 2.883776,-5.03013"
       id="path3801"
       inkscape:connector-curvature="0"
       sodipodi:nodetypes="ccc" />
    <path
       style="fill:none;fill-rule:evenodd;stroke:#3498db;stroke-width:0.26458333;stroke-miterlimit:4;stroke-dasharray:none;stroke-opacity:1;marker-end:url(#marker4121)"
       d="m 37.989099,257.3467 c 4.286777,1.02879 5.173744,5.53624 5.014985,7.23871 0.04013,2.99839 -0.917607,6.52527 -4.568657,7.80897"
       id="path4117"
       inkscape:connector-curvature="0"
       sodipodi:nodetypes="ccc" />
    <path
       sodipodi:nodetypes="ccc"
       inkscape:connector-curvature="0"
       id="path4381"
       d="m 37.456698,259.84753 c 2.865446,0.68769 3.458328,3.70064 3.352208,4.83863 0.02682,2.00424 -0.613364,4.36175 -3.053865,5.21982"
       style="fill:none;fill-rule:evenodd;stroke:#3498db;stroke-width:0.26458333;stroke-miterlimit:4;stroke-dasharray:none;stroke-opacity:1;marker-end:url(#marker4385)" />
  </g>
</svg>
