<?xml version="1.0" encoding="UTF-8" standalone="no"?>
<!-- Created with Inkscape (http://www.inkscape.org/) -->

<svg
   xmlns:dc="http://purl.org/dc/elements/1.1/"
   xmlns:cc="http://creativecommons.org/ns#"
   xmlns:rdf="http://www.w3.org/1999/02/22-rdf-syntax-ns#"
   xmlns:svg="http://www.w3.org/2000/svg"
   xmlns="http://www.w3.org/2000/svg"
   xmlns:sodipodi="http://sodipodi.sourceforge.net/DTD/sodipodi-0.dtd"
   xmlns:inkscape="http://www.inkscape.org/namespaces/inkscape"
   width="200"
   height="200"
   viewBox="0 0 52.916665 52.916668"
   version="1.1"
   id="svg8"
   inkscape:version="0.92.3 (2405546, 2018-03-11)"
   sodipodi:docname="icono.svg">
  <defs
     id="defs2" />
  <sodipodi:namedview
     id="base"
     pagecolor="#ffffff"
     bordercolor="#666666"
     borderopacity="1.0"
     inkscape:pageopacity="0.0"
     inkscape:pageshadow="2"
     inkscape:zoom="2.8"
     inkscape:cx="91.434644"
     inkscape:cy="96.113752"
     inkscape:document-units="mm"
     inkscape:current-layer="layer1"
     showgrid="false"
     units="px"
     inkscape:window-width="1366"
     inkscape:window-height="745"
     inkscape:window-x="-8"
     inkscape:window-y="-8"
     inkscape:window-maximized="1" />
  <metadata
     id="metadata5">
    <rdf:RDF>
      <cc:Work
         rdf:about="">
        <dc:format>image/svg+xml</dc:format>
        <dc:type
           rdf:resource="http://purl.org/dc/dcmitype/StillImage" />
        <dc:title />
      </cc:Work>
    </rdf:RDF>
  </metadata>
  <g
     inkscape:label="Capa 1"
     inkscape:groupmode="layer"
     id="layer1"
     transform="translate(0,-244.08332)">
    <rect
       style="fill:#ecf0f1;fill-opacity:1;fill-rule:evenodd;stroke:none;stroke-width:2.16031361;stroke-linejoin:miter;stroke-miterlimit:4;stroke-dasharray:none;stroke-dashoffset:0;stroke-opacity:1"
       id="rect815"
       width="52.916668"
       height="52.916668"
       x="2.5687237e-008"
       y="244.08334" />
    <circle
       style="fill:#2ecc71;fill-opacity:1;fill-rule:evenodd;stroke:#34495e;stroke-width:0.47070965;stroke-linejoin:miter;stroke-miterlimit:4;stroke-dasharray:none;stroke-dashoffset:0;stroke-opacity:1"
       id="path827"
       r="8.8952999"
       cy="270.17984"
       cx="14.521945" />
    <path
       style="fill:#e74c3c;fill-opacity:1;fill-rule:evenodd;stroke:#e74c3c;stroke-width:0.2588903;stroke-linejoin:miter;stroke-miterlimit:4;stroke-dasharray:none;stroke-dashoffset:0;stroke-opacity:1"
       d="m 13.030022,278.69278 c -1.697082,-0.37865 -2.73652,-0.8524 -3.9115101,-1.78276 -3.4349514,-2.71982 -4.2424969,-7.72189 -1.8433438,-11.41798 0.1309166,-0.20168 0.243524,-0.37283 0.2502387,-0.38031 0.00671,-0.007 1.5189853,1.12479 3.3606012,2.51617 2.875203,2.17228 3.34553,2.54244 3.328132,2.61933 -0.01114,0.0492 -0.253212,1.97605 -0.537929,4.28179 -0.284718,2.30575 -0.527673,4.19007 -0.539901,4.18739 -0.01223,-0.003 -0.06006,-0.0133 -0.106288,-0.0236 z"
       id="path4680"
       inkscape:connector-curvature="0" />
    <path
       style="fill:#e74c3c;fill-opacity:1;fill-rule:evenodd;stroke:#e74c3c;stroke-width:0.2588903;stroke-linejoin:miter;stroke-miterlimit:4;stroke-dasharray:none;stroke-dashoffset:0;stroke-opacity:1"
       d="m 14.00273,278.79744 c -0.211997,-0.013 -0.398836,-0.0371 -0.415197,-0.0535 -0.02405,-0.0242 0.941969,-8.05998 1.015013,-8.44334 0.01943,-0.10197 0.298157,-0.22717 3.916915,-1.7595 2.142798,-0.90734 3.916548,-1.65783 3.941666,-1.66775 0.05352,-0.0211 0.355707,0.84694 0.477827,1.37261 0.280643,1.20803 0.278628,2.66772 -0.0054,3.88755 -0.951158,4.08548 -4.750025,6.9201 -8.930858,6.66398 z"
       id="path4682"
       inkscape:connector-curvature="0" />
    <g
       id="g4564"
       transform="matrix(0.52199099,0,0,0.52199099,2.0509692,128.77784)"
       style="stroke-width:0.67631859;stroke-miterlimit:4;stroke-dasharray:none">
      <path
         style="fill:none;stroke:#34495e;stroke-width:0.67631859;stroke-linecap:butt;stroke-linejoin:miter;stroke-miterlimit:4;stroke-dasharray:none;stroke-opacity:1"
         d="M 23.653353,270.67394 39.28862,264.05902"
         id="use4544"
         inkscape:connector-curvature="0"
         inkscape:transform-center-x="-7.752843"
         inkscape:transform-center-y="-3.2818104"
         inkscape:tile-x0="23.601806"
         inkscape:tile-y0="19.853863" />
      <path
         style="fill:none;stroke:#34495e;stroke-width:0.67631859;stroke-linecap:butt;stroke-linejoin:miter;stroke-miterlimit:4;stroke-dasharray:none;stroke-opacity:1"
         d="M 23.728324,270.57936 21.63938,287.42735"
         id="use4546"
         inkscape:connector-curvature="0"
         inkscape:transform-center-x="-7.752843"
         inkscape:transform-center-y="-3.2818104"
         inkscape:tile-x0="23.601806"
         inkscape:tile-y0="19.853863" />
      <path
         style="fill:none;stroke:#34495e;stroke-width:0.67631859;stroke-linecap:butt;stroke-linejoin:miter;stroke-miterlimit:4;stroke-dasharray:none;stroke-opacity:1"
         d="M 23.772752,270.69157 10.226429,260.4585"
         id="use4548"
         inkscape:connector-curvature="0"
         inkscape:transform-center-x="-7.752843"
         inkscape:transform-center-y="-3.2818104"
         inkscape:tile-x0="23.601806"
         inkscape:tile-y0="19.853863" />
    </g>
    <text
       xml:space="preserve"
       style="font-style:normal;font-weight:normal;font-size:7.89931393px;line-height:1.25;font-family:sans-serif;letter-spacing:0px;word-spacing:0px;fill:#e67e22;fill-opacity:1;stroke:none;stroke-width:0.19748284"
       x="24.577326"
       y="272.69205"
       id="text4580"><tspan
         sodipodi:role="line"
         id="tspan4578"
         x="24.577326"
         y="272.69205"
         style="fill:#e67e22;fill-opacity:1;stroke-width:0.19748284">+</tspan></text>
    <circle
       cx="39.112949"
       cy="270.17984"
       r="8.8952999"
       id="circle4609"
       style="fill:#2ecc71;fill-opacity:1;fill-rule:evenodd;stroke:#34495e;stroke-width:0.47070965;stroke-linejoin:miter;stroke-miterlimit:4;stroke-dasharray:none;stroke-dashoffset:0;stroke-opacity:1" />
    <path
       style="fill:#e74c3c;fill-opacity:1;fill-rule:evenodd;stroke:#e74c3c;stroke-width:0.2588903;stroke-linejoin:miter;stroke-miterlimit:4;stroke-dasharray:none;stroke-dashoffset:0;stroke-opacity:1"
       d="m 35.578435,267.36734 c -1.779623,-1.34364 -3.240699,-2.46481 -3.246832,-2.49148 -0.01485,-0.0646 0.604005,-0.74625 0.9988,-1.10019 0.658591,-0.59044 1.20779,-0.96065 1.996316,-1.34569 1.23229,-0.60174 2.377252,-0.86968 3.747432,-0.87694 0.396794,-0.002 0.732242,0.007 0.745446,0.0201 0.01937,0.0194 -0.959685,8.09039 -0.995226,8.20429 -0.0056,0.0181 -1.466312,-1.06648 -3.245936,-2.41012 z"
       id="path4688"
       inkscape:connector-curvature="0" />
    <path
       style="fill:#e74c3c;fill-opacity:1;fill-rule:evenodd;stroke:#e74c3c;stroke-width:0.2588903;stroke-linejoin:miter;stroke-miterlimit:4;stroke-dasharray:none;stroke-dashoffset:0;stroke-opacity:1"
       d="m 42.744596,272.8132 c -1.814543,-1.37258 -3.299169,-2.51768 -3.299169,-2.54466 0,-0.0418 7.356877,-3.19168 7.614086,-3.25995 0.08404,-0.0223 0.104211,0.0162 0.258874,0.49433 0.825018,2.55048 0.441432,5.29461 -1.048804,7.50304 -0.114051,0.16902 -0.211516,0.30629 -0.216591,0.30506 -0.0051,-8.9e-4 -1.49385,-1.12525 -3.308396,-2.49782 z"
       id="path4686"
       inkscape:connector-curvature="0" />
    <path
       inkscape:tile-y0="21.805155"
       inkscape:tile-x0="40.823945"
       inkscape:transform-center-y="-1.8976942"
       inkscape:transform-center-x="-4.5203348"
       inkscape:connector-curvature="0"
       id="use4622"
       d="m 38.904755,270.23021 8.161468,-3.45293"
       style="fill:none;stroke:#34495e;stroke-width:0.3530322;stroke-linecap:butt;stroke-linejoin:miter;stroke-miterlimit:4;stroke-dasharray:none;stroke-opacity:1" />
    <path
       inkscape:tile-y0="21.805155"
       inkscape:tile-x0="40.823945"
       inkscape:transform-center-y="-1.8976942"
       inkscape:transform-center-x="-4.5203348"
       inkscape:connector-curvature="0"
       id="use4624"
       d="m 38.901371,270.15925 7.071062,5.34157"
       style="fill:none;stroke:#34495e;stroke-width:0.3530322;stroke-linecap:butt;stroke-linejoin:miter;stroke-miterlimit:4;stroke-dasharray:none;stroke-opacity:1" />
    <path
       inkscape:tile-y0="21.805155"
       inkscape:tile-x0="40.823945"
       inkscape:transform-center-y="-1.8976942"
       inkscape:transform-center-x="-4.5203348"
       inkscape:connector-curvature="0"
       id="use4626"
       d="m 38.961131,270.12084 -1.090407,8.79451"
       style="fill:none;stroke:#34495e;stroke-width:0.3530322;stroke-linecap:butt;stroke-linejoin:miter;stroke-miterlimit:4;stroke-dasharray:none;stroke-opacity:1" />
    <path
       inkscape:tile-y0="21.805155"
       inkscape:tile-x0="40.823945"
       inkscape:transform-center-y="-1.8976942"
       inkscape:transform-center-x="-4.5203348"
       inkscape:connector-curvature="0"
       id="use4628"
       d="m 39.024274,270.15339 -8.161468,3.45293"
       style="fill:none;stroke:#34495e;stroke-width:0.3530322;stroke-linecap:butt;stroke-linejoin:miter;stroke-miterlimit:4;stroke-dasharray:none;stroke-opacity:1" />
    <path
       inkscape:tile-y0="21.805155"
       inkscape:tile-x0="40.823945"
       inkscape:transform-center-y="-1.8976942"
       inkscape:transform-center-x="-4.5203348"
       inkscape:connector-curvature="0"
       id="use4630"
       d="m 39.027658,270.22435 -7.071062,-5.34158"
       style="fill:none;stroke:#34495e;stroke-width:0.3530322;stroke-linecap:butt;stroke-linejoin:miter;stroke-miterlimit:4;stroke-dasharray:none;stroke-opacity:1" />
    <path
       inkscape:tile-y0="21.805155"
       inkscape:tile-x0="40.823945"
       inkscape:transform-center-y="-1.8976942"
       inkscape:transform-center-x="-4.5203348"
       inkscape:connector-curvature="0"
       id="use4632"
       d="m 38.967898,270.26276 1.090407,-8.79451"
       style="fill:none;stroke:#34495e;stroke-width:0.3530322;stroke-linecap:butt;stroke-linejoin:miter;stroke-miterlimit:4;stroke-dasharray:none;stroke-opacity:1" />
    <path
       style="fill:#e74c3c;fill-opacity:1;fill-rule:evenodd;stroke:#e74c3c;stroke-width:0.2588903;stroke-linejoin:miter;stroke-miterlimit:4;stroke-dasharray:none;stroke-dashoffset:0;stroke-opacity:1"
       d="m 37.238977,278.60799 c -2.517593,-0.56602 -4.685741,-2.25618 -5.840532,-4.55295 -0.09662,-0.19216 -0.160082,-0.36409 -0.141025,-0.38206 0.05111,-0.0482 7.417451,-3.15793 7.436167,-3.1392 0.01542,0.0154 -0.98452,8.1496 -1.003788,8.16553 -0.0052,0.004 -0.208113,-0.0367 -0.450822,-0.0913 z"
       id="path4684"
       inkscape:connector-curvature="0" />
  </g>
</svg>
