<?xml version="1.0" encoding="UTF-8" standalone="no"?>
<svg
   xmlns:dc="http://purl.org/dc/elements/1.1/"
   xmlns:cc="http://creativecommons.org/ns#"
   xmlns:rdf="http://www.w3.org/1999/02/22-rdf-syntax-ns#"
   xmlns:svg="http://www.w3.org/2000/svg"
   xmlns="http://www.w3.org/2000/svg"
   xmlns:xlink="http://www.w3.org/1999/xlink"
   xmlns:sodipodi="http://sodipodi.sourceforge.net/DTD/sodipodi-0.dtd"
   xmlns:inkscape="http://www.inkscape.org/namespaces/inkscape"
   version="1.1"
   x="0px"
   y="0px"
   width="200px"
   height="200px"
   viewBox="0 0 200 200"
   xml:space="preserve"
   id="svg2898"
   sodipodi:docname="icono.svg"
   inkscape:version="0.92.3 (2405546, 2018-03-11)"><metadata
     id="metadata2904"><rdf:RDF><cc:Work
         rdf:about=""><dc:format>image/svg+xml</dc:format><dc:type
           rdf:resource="http://purl.org/dc/dcmitype/StillImage" /></cc:Work></rdf:RDF></metadata><defs
     id="defs2902" /><sodipodi:namedview
     pagecolor="#ffffff"
     bordercolor="#666666"
     borderopacity="1"
     objecttolerance="10"
     gridtolerance="10"
     guidetolerance="10"
     inkscape:pageopacity="0"
     inkscape:pageshadow="2"
     inkscape:window-width="724"
     inkscape:window-height="480"
     id="namedview2900"
     showgrid="false"
     inkscape:zoom="1.18"
     inkscape:cx="100"
     inkscape:cy="100"
     inkscape:window-x="0"
     inkscape:window-y="0"
     inkscape:window-maximized="0"
     inkscape:current-layer="svg2898" /><style
     type="text/css"
     id="style2872">.st0{clip-path:url(#XMLID_12_);fill:#99D468;} .st1{clip-path:url(#XMLID_12_);fill-rule:evenodd;clip-rule:evenodd;fill:#82C250;} .st2{clip-path:url(#XMLID_12_);} .st3{fill:#99D468;stroke:#F1F2F6;stroke-width:2;stroke-linecap:round;stroke-linejoin:round;stroke-miterlimit:10;} .st4{fill:#ED5564;stroke:#F1F2F6;stroke-width:2;stroke-linecap:round;stroke-linejoin:round;stroke-miterlimit:10;} .st5{fill:none;stroke:#F1F2F6;stroke-width:2;stroke-linecap:round;stroke-linejoin:round;stroke-miterlimit:10;} .st6{fill:#36404B;} .st7{font-family:Arial;font-weight:bold;} .st8{font-size:19px;} .st9{clip-path:url(#XMLID_12_);fill:#36404B;stroke:#36404B;stroke-width:2;stroke-linecap:round;stroke-linejoin:round;stroke-miterlimit:10;}</style><g
     id="XMLID_138_"><defs
       id="defs2875"><circle
         id="XMLID_140_"
         cx="100"
         cy="100"
         r="100" /></defs><clipPath
       id="XMLID_12_"><use
         xlink:href="#XMLID_140_"
         overflow="visible"
         id="use2877"
         style="overflow:visible"
         x="0"
         y="0"
         width="100%"
         height="100%" /></clipPath><path
       id="XMLID_10_"
       class="st0"
       d="M 0,0 H 200 V 200 H 0 Z"
       clip-path="url(#XMLID_12_)"
       inkscape:connector-curvature="0"
       style="fill:#99d468" /><path
       class="st1"
       d="m 96,-4.2 c 0,-0.2 -0.2,-0.3 -0.4,-0.4 -0.3,-0.1 -0.4,-0.1 -0.5,-0.2 -0.2,-0.2 -0.3,-0.4 -0.4,-0.7 -0.1,-0.4 -0.1,-0.9 0,-1.5 0.1,-0.6 0.2,-1.1 0.3,-1.5 0.1,-0.4 0.2,-0.6 0.1,-0.8 0,-0.1 -0.1,-0.2 -0.2,-0.4 0.1,-0.3 0.1,-0.5 0,-0.7 0,-0.2 -0.2,-0.4 -0.4,-0.5 -0.2,-0.1 -0.5,-0.2 -0.8,-0.1 -0.5,0.1 -0.9,0.4 -1.3,0.8 -0.6,0.7 -1.1,1.6 -1.5,2.8 -0.3,1 -0.3,1.9 -0.2,2.7 0.1,0.3 0.2,0.6 0.4,0.8 0.3,0.3 0.6,0.4 1,0.3 0.4,-0.1 0.8,-0.5 1.1,-1.1 0.2,-0.3 0.3,-0.7 0.5,-1.2 0,0.3 0.1,0.6 0.1,0.7 0.2,0.7 0.4,1 0.7,1.2 0.3,0.3 0.7,0.4 1.1,0.3 0.1,0 0.2,-0.1 0.3,-0.2 C 96,-4 96,-4.1 96,-4.2 Z M 94.2,-9 c -0.1,0.2 -0.2,0.6 -0.3,1.1 -0.2,0.8 -0.4,1.5 -0.6,1.9 -0.3,0.8 -0.6,1.2 -0.9,1.3 -0.1,0 -0.2,0 -0.3,-0.1 C 92,-4.9 92,-5 91.9,-5.2 c -0.2,-0.7 0,-1.6 0.5,-2.8 0.4,-1.1 0.9,-1.6 1.4,-1.8 h 0.3 c 0.1,0.1 0.2,0.1 0.3,0.3 -0.1,0.3 -0.2,0.4 -0.2,0.5 z"
       clip-path="url(#XMLID_12_)"
       id="path2881"
       inkscape:connector-curvature="0"
       style="clip-rule:evenodd;fill:#82c250;fill-rule:evenodd" /><g
       class="st2"
       clip-path="url(#XMLID_12_)"
       id="g2888"><path
         id="XMLID_7_"
         class="st3"
         d="m 34.7,42 h 128.6 v 74.8 H 34.7 Z"
         inkscape:connector-curvature="0"
         style="fill:#99d468;stroke:#f1f2f6;stroke-width:2;stroke-linecap:round;stroke-linejoin:round;stroke-miterlimit:10" /><path
         id="XMLID_6_"
         class="st4"
         d="M 34.7,42 H 131 v 74.8 H 34.7 Z"
         inkscape:connector-curvature="0"
         style="fill:#ed5564;stroke:#f1f2f6;stroke-width:2;stroke-linecap:round;stroke-linejoin:round;stroke-miterlimit:10" /><path
         id="XMLID_5_"
         class="st5"
         d="m 99,116.7 v -74"
         inkscape:connector-curvature="0"
         style="fill:none;stroke:#f1f2f6;stroke-width:2;stroke-linecap:round;stroke-linejoin:round;stroke-miterlimit:10" /><path
         id="XMLID_4_"
         class="st5"
         d="m 67.7,116.7 v -74"
         inkscape:connector-curvature="0"
         style="fill:none;stroke:#f1f2f6;stroke-width:2;stroke-linecap:round;stroke-linejoin:round;stroke-miterlimit:10" /><path
         id="XMLID_3_"
         class="st5"
         d="m 131,116.7 v -74"
         inkscape:connector-curvature="0"
         style="fill:none;stroke:#f1f2f6;stroke-width:2;stroke-linecap:round;stroke-linejoin:round;stroke-miterlimit:10" /></g><g
       id="XMLID_2_"
       class="st2"
       clip-path="url(#XMLID_12_)"><text
         id="XMLID_28_"
         transform="translate(96,142.25)"><tspan
           x="0"
           y="0"
           class="st6 st7 st8"
           id="tspan2890"
           style="font-weight:bold;font-size:19px;font-family:Arial;fill:#36404b">3</tspan><tspan
           x="0"
           y="22.799999"
           class="st6 st7 st8"
           id="tspan2892"
           style="font-weight:bold;font-size:19px;font-family:Arial;fill:#36404b">4</tspan></text>
</g><path
       id="XMLID_1_"
       class="st9"
       d="m 94.9,147.4 h 12.8"
       clip-path="url(#XMLID_12_)"
       inkscape:connector-curvature="0"
       style="fill:#36404b;stroke:#36404b;stroke-width:2;stroke-linecap:round;stroke-linejoin:round;stroke-miterlimit:10" /></g></svg>