<?xml version="1.0" encoding="UTF-8" standalone="no"?>
<!-- Created with Inkscape (http://www.inkscape.org/) -->

<svg
   xmlns:dc="http://purl.org/dc/elements/1.1/"
   xmlns:cc="http://creativecommons.org/ns#"
   xmlns:rdf="http://www.w3.org/1999/02/22-rdf-syntax-ns#"
   xmlns:svg="http://www.w3.org/2000/svg"
   xmlns="http://www.w3.org/2000/svg"
   xmlns:sodipodi="http://sodipodi.sourceforge.net/DTD/sodipodi-0.dtd"
   xmlns:inkscape="http://www.inkscape.org/namespaces/inkscape"
   width="200"
   height="200"
   viewBox="0 0 52.916665 52.916668"
   version="1.1"
   id="svg8"
   inkscape:version="0.92.3 (2405546, 2018-03-11)"
   sodipodi:docname="icono.svg">
  <defs
     id="defs2" />
  <sodipodi:namedview
     id="base"
     pagecolor="#ffffff"
     bordercolor="#666666"
     borderopacity="1.0"
     inkscape:pageopacity="0.0"
     inkscape:pageshadow="2"
     inkscape:zoom="2.8284271"
     inkscape:cx="85.441012"
     inkscape:cy="104.33703"
     inkscape:document-units="mm"
     inkscape:current-layer="layer1"
     showgrid="false"
     units="px"
     inkscape:window-width="1366"
     inkscape:window-height="745"
     inkscape:window-x="-8"
     inkscape:window-y="-8"
     inkscape:window-maximized="1" />
  <metadata
     id="metadata5">
    <rdf:RDF>
      <cc:Work
         rdf:about="">
        <dc:format>image/svg+xml</dc:format>
        <dc:type
           rdf:resource="http://purl.org/dc/dcmitype/StillImage" />
        <dc:title />
      </cc:Work>
    </rdf:RDF>
  </metadata>
  <g
     inkscape:label="Capa 1"
     inkscape:groupmode="layer"
     id="layer1"
     transform="translate(0,-244.08332)">
    <rect
       style="fill:#7f8c8d;fill-opacity:1;fill-rule:evenodd;stroke:none;stroke-width:2.16031361;stroke-linejoin:miter;stroke-miterlimit:4;stroke-dasharray:none;stroke-dashoffset:0;stroke-opacity:1"
       id="rect815"
       width="52.916668"
       height="52.916668"
       x="2.5687237e-008"
       y="244.08334" />
    <path
       style="fill:#fad390;fill-opacity:1;stroke:none;stroke-width:0.39962915;stroke-linecap:butt;stroke-linejoin:miter;stroke-miterlimit:4;stroke-dasharray:none;stroke-opacity:1"
       d="m 11.538862,291.68959 c 0,0 1.345695,-5.95711 1.616118,-8.98966 0.09869,-1.10669 0,-3.33324 0,-3.33324 0,0 -3.1654482,-4.30942 -4.1413004,-6.76748 -0.7870032,-1.98239 -1.0930726,-4.14097 -1.3130956,-6.26247 -0.1076712,-1.03817 -0.1080919,-2.09308 0,-3.13122 0.2031067,-1.95066 0.333979,-4.00377 1.2120883,-5.75742 0.6622676,-1.3226 1.8281577,-2.34555 2.9292117,-3.33323 1.133383,-1.01671 2.371423,-1.95338 3.73727,-2.6262 2.025207,-0.99762 4.220964,-1.76838 6.464469,-2.02014 2.9537,-0.33147 6.032697,-0.1162 8.888642,0.70704 2.373173,0.6841 4.750633,1.75904 6.565476,3.43426 1.578744,1.45727 2.739672,3.42125 3.434251,5.45439 0.339,0.9923 0.349604,2.08364 0.30302,3.13122 -0.02435,0.54756 -0.30302,1.61612 -0.30302,1.61612 l 4.949358,5.85843 c 0,0 0.363402,1.00362 0.30302,1.51511 -0.05651,0.47873 -0.255196,0.98251 -0.606044,1.31308 -0.605213,0.5703 -1.888869,0.19994 -2.323167,0.90908 -0.327917,0.53545 -0.04017,1.28865 0.185799,1.87445 0.143965,0.37319 0.70432,0.56435 0.714228,0.9642 0.01597,0.6436 -1.134782,0.96635 -1.071345,1.60702 0.04146,0.41881 0.892787,0.89278 0.892787,0.89278 0,0 -0.914969,0.91407 -1.142768,1.49988 -0.142951,0.36764 -0.159857,0.78758 -0.107133,1.17848 0.09517,0.70557 0.622912,1.29934 0.749942,1.99985 0.07008,0.38653 0.127797,0.80701 0,1.17848 -0.201419,0.58543 -0.656128,1.08145 -1.142769,1.46416 -0.431319,0.33924 -1.499881,0.67852 -1.499881,0.67852 l -6.49949,0.17856 c 0,0 -1.031548,1.57829 -1.321324,2.46409 -0.291542,0.89123 -0.392825,2.78551 -0.392825,2.78551 z"
       id="path3277"
       inkscape:connector-curvature="0"
       sodipodi:nodetypes="cscsssssssssssccsssssscsssssccscc" />
    <ellipse
       style="fill:#2ecc71;fill-opacity:1;fill-rule:evenodd;stroke:none;stroke-width:0.41285798;stroke-linejoin:miter;stroke-miterlimit:4;stroke-dasharray:none;stroke-dashoffset:0;stroke-opacity:1"
       id="path3279"
       cx="24.661972"
       cy="263.14487"
       rx="14.343793"
       ry="11.728128" />
    <path
       style="fill:#2ecc71;fill-opacity:1;fill-rule:evenodd;stroke:#34495e;stroke-width:0.66145833;stroke-linejoin:miter;stroke-miterlimit:4;stroke-dasharray:0.66145833,0.66145833;stroke-dashoffset:0;stroke-opacity:1"
       d="m 15.467763,257.2586 c 0,0 6.576646,2.67022 12.609358,1.78015 3.032971,-0.4475 4.598707,-2.96691 4.598707,-2.96691 0,0 4.912251,7.91011 1.186763,11.57093 -3.259121,3.20256 0.0011,0.0812 -7.862306,0.14834 -6.773893,0.0578 -8.067979,2.76124 -10.23583,0.59339 -1.223787,-1.22379 1.038417,-4.05478 1.038417,-5.78547 0,-1.73069 -1.335109,-5.34043 -1.335109,-5.34043 z"
       id="rect2068"
       inkscape:connector-curvature="0"
       sodipodi:nodetypes="cscssssc" />
    <text
       xml:space="preserve"
       style="font-style:normal;font-weight:normal;font-size:5.29166667px;line-height:1.25;font-family:sans-serif;letter-spacing:0px;word-spacing:0px;fill:#2c3e50;fill-opacity:1;stroke:none;stroke-width:0.13030885;-inkscape-font-specification:'sans-serif, Normal';font-stretch:normal;font-variant:normal;text-anchor:start;text-align:start;writing-mode:lr;font-variant-ligatures:normal;font-variant-caps:normal;font-variant-numeric:normal;font-feature-settings:normal;"
       x="17.449411"
       y="257.05563"
       id="text2073"><tspan
         sodipodi:role="line"
         id="tspan2071"
         x="17.449411"
         y="257.05563"
         style="fill:#2c3e50;fill-opacity:1;stroke-width:0.13030885;-inkscape-font-specification:'sans-serif, Normal';font-family:sans-serif;font-weight:normal;font-style:normal;font-stretch:normal;font-variant:normal;font-size:5.29166667px;text-anchor:start;text-align:start;writing-mode:lr;font-variant-ligatures:normal;font-variant-caps:normal;font-variant-numeric:normal;font-feature-settings:normal;">A</tspan></text>
    <text
       id="text2077"
       y="256.4682"
       x="27.435524"
       style="font-style:normal;font-weight:normal;font-size:5.29166667px;line-height:1.25;font-family:sans-serif;letter-spacing:0px;word-spacing:0px;fill:#2c3e50;fill-opacity:1;stroke:none;stroke-width:0.13030885;-inkscape-font-specification:'sans-serif, Normal';font-stretch:normal;font-variant:normal;text-anchor:start;text-align:start;writing-mode:lr;font-variant-ligatures:normal;font-variant-caps:normal;font-variant-numeric:normal;font-feature-settings:normal;"
       xml:space="preserve"><tspan
         style="fill:#2c3e50;fill-opacity:1;stroke-width:0.13030885;-inkscape-font-specification:'sans-serif, Normal';font-family:sans-serif;font-weight:normal;font-style:normal;font-stretch:normal;font-variant:normal;font-size:5.29166667px;text-anchor:start;text-align:start;writing-mode:lr;font-variant-ligatures:normal;font-variant-caps:normal;font-variant-numeric:normal;font-feature-settings:normal;"
         y="256.4682"
         x="27.435524"
         id="tspan2075"
         sodipodi:role="line">B</tspan></text>
    <text
       xml:space="preserve"
       style="font-style:normal;font-weight:normal;font-size:5.29166667px;line-height:1.25;font-family:sans-serif;letter-spacing:0px;word-spacing:0px;fill:#2c3e50;fill-opacity:1;stroke:none;stroke-width:0.13030885;-inkscape-font-specification:'sans-serif, Normal';font-stretch:normal;font-variant:normal;text-anchor:start;text-align:start;writing-mode:lr;font-variant-ligatures:normal;font-variant-caps:normal;font-variant-numeric:normal;font-feature-settings:normal;"
       x="18.683146"
       y="273.52795"
       id="text2081"><tspan
         sodipodi:role="line"
         id="tspan2079"
         x="18.683146"
         y="273.52795"
         style="fill:#2c3e50;fill-opacity:1;stroke-width:0.13030885;-inkscape-font-specification:'sans-serif, Normal';font-family:sans-serif;font-weight:normal;font-style:normal;font-stretch:normal;font-variant:normal;font-size:5.29166667px;text-anchor:start;text-align:start;writing-mode:lr;font-variant-ligatures:normal;font-variant-caps:normal;font-variant-numeric:normal;font-feature-settings:normal;">C</tspan></text>
    <text
       id="text2085"
       y="266.92657"
       x="29.438187"
       style="font-style:normal;font-weight:normal;font-size:5.29166667px;line-height:1.25;font-family:sans-serif;letter-spacing:0px;word-spacing:0px;fill:#2c3e50;fill-opacity:1;stroke:none;stroke-width:0.13030885;-inkscape-font-specification:'sans-serif, Normal';font-stretch:normal;font-variant:normal;text-anchor:start;text-align:start;writing-mode:lr;font-variant-ligatures:normal;font-variant-caps:normal;font-variant-numeric:normal;font-feature-settings:normal;"
       xml:space="preserve"><tspan
         style="fill:#2c3e50;fill-opacity:1;stroke-width:0.13030885;-inkscape-font-specification:'sans-serif, Normal';font-family:sans-serif;font-weight:normal;font-style:normal;font-stretch:normal;font-variant:normal;font-size:5.29166667px;text-anchor:start;text-align:start;writing-mode:lr;font-variant-ligatures:normal;font-variant-caps:normal;font-variant-numeric:normal;font-feature-settings:normal;"
         y="266.92657"
         x="29.438187"
         id="tspan2083"
         sodipodi:role="line">D</tspan></text>
    <path
       sodipodi:type="star"
       style="fill:#e74c3c;fill-opacity:1;fill-rule:evenodd;stroke:none;stroke-width:0.52916664;stroke-linejoin:miter;stroke-miterlimit:4;stroke-dasharray:0.52916666, 0.52916666;stroke-dashoffset:0;stroke-opacity:1"
       id="path2087"
       sodipodi:sides="4"
       sodipodi:cx="-26.726952"
       sodipodi:cy="249.96056"
       sodipodi:r1="5.7478485"
       sodipodi:r2="0.56756055"
       sodipodi:arg1="0.62024949"
       sodipodi:arg2="1.4443656"
       inkscape:flatsided="false"
       inkscape:rounded="0"
       inkscape:randomized="0"
       d="m -22.049735,253.30143 -4.605651,-2.77784 -3.412435,4.11418 2.777839,-4.60565 -4.114186,-3.41243 4.60565,2.77784 3.412436,-4.11419 -2.777839,4.60565 z"
       transform="matrix(0.20021942,-0.64009034,0.43891909,0.13729332,-89.271055,205.86594)" />
    <path
       transform="matrix(0.56367455,-0.3634205,0.24920263,0.3865197,-31.243755,162.08269)"
       d="m -22.049735,253.30143 -4.605651,-2.77784 -3.412435,4.11418 2.777839,-4.60565 -4.114186,-3.41243 4.60565,2.77784 3.412436,-4.11419 -2.777839,4.60565 z"
       inkscape:randomized="0"
       inkscape:rounded="0"
       inkscape:flatsided="false"
       sodipodi:arg2="1.4443656"
       sodipodi:arg1="0.62024949"
       sodipodi:r2="0.56756055"
       sodipodi:r1="5.7478485"
       sodipodi:cy="249.96056"
       sodipodi:cx="-26.726952"
       sodipodi:sides="4"
       id="path2089"
       style="fill:#e74c3c;fill-opacity:1;fill-rule:evenodd;stroke:none;stroke-width:0.52916664;stroke-linejoin:miter;stroke-miterlimit:4;stroke-dasharray:0.52916666, 0.52916666;stroke-dashoffset:0;stroke-opacity:1"
       sodipodi:type="star" />
    <path
       transform="matrix(0.20021942,-0.64009034,0.43891909,0.13729332,-71.946832,204.61477)"
       d="m -22.049735,253.30143 -4.605651,-2.77784 -3.412435,4.11418 2.777839,-4.60565 -4.114186,-3.41243 4.60565,2.77784 3.412436,-4.11419 -2.777839,4.60565 z"
       inkscape:randomized="0"
       inkscape:rounded="0"
       inkscape:flatsided="false"
       sodipodi:arg2="1.4443656"
       sodipodi:arg1="0.62024949"
       sodipodi:r2="0.56756055"
       sodipodi:r1="5.7478485"
       sodipodi:cy="249.96056"
       sodipodi:cx="-26.726952"
       sodipodi:sides="4"
       id="path2091"
       style="fill:#e74c3c;fill-opacity:1;fill-rule:evenodd;stroke:none;stroke-width:0.52916664;stroke-linejoin:miter;stroke-miterlimit:4;stroke-dasharray:0.52916666, 0.52916666;stroke-dashoffset:0;stroke-opacity:1"
       sodipodi:type="star" />
    <path
       sodipodi:type="star"
       style="fill:#e74c3c;fill-opacity:1;fill-rule:evenodd;stroke:none;stroke-width:0.52916664;stroke-linejoin:miter;stroke-miterlimit:4;stroke-dasharray:0.52916666, 0.52916666;stroke-dashoffset:0;stroke-opacity:1"
       id="path2093"
       sodipodi:sides="4"
       sodipodi:cx="-26.726952"
       sodipodi:cy="249.96056"
       sodipodi:r1="5.7478485"
       sodipodi:r2="0.56756055"
       sodipodi:arg1="0.62024949"
       sodipodi:arg2="1.4443656"
       inkscape:flatsided="false"
       inkscape:rounded="0"
       inkscape:randomized="0"
       d="m -22.049735,253.30143 -4.605651,-2.77784 -3.412435,4.11418 2.777839,-4.60565 -4.114186,-3.41243 4.60565,2.77784 3.412436,-4.11419 -2.777839,4.60565 z"
       transform="matrix(0.64723274,-0.17576469,0.12052436,0.44381675,19.586595,153.30822)" />
  </g>
</svg>
