<?xml version="1.0" encoding="UTF-8" standalone="no"?>
<svg
   xmlns:dc="http://purl.org/dc/elements/1.1/"
   xmlns:cc="http://creativecommons.org/ns#"
   xmlns:rdf="http://www.w3.org/1999/02/22-rdf-syntax-ns#"
   xmlns:svg="http://www.w3.org/2000/svg"
   xmlns="http://www.w3.org/2000/svg"
   xmlns:xlink="http://www.w3.org/1999/xlink"
   xmlns:sodipodi="http://sodipodi.sourceforge.net/DTD/sodipodi-0.dtd"
   xmlns:inkscape="http://www.inkscape.org/namespaces/inkscape"
   version="1.1"
   x="0px"
   y="0px"
   width="200px"
   height="200px"
   viewBox="0 0 200 200"
   xml:space="preserve"
   id="svg3519"
   sodipodi:docname="icono.svg"
   inkscape:version="0.92.3 (2405546, 2018-03-11)"><metadata
     id="metadata3525"><rdf:RDF><cc:Work
         rdf:about=""><dc:format>image/svg+xml</dc:format><dc:type
           rdf:resource="http://purl.org/dc/dcmitype/StillImage" /></cc:Work></rdf:RDF></metadata><defs
     id="defs3523" /><sodipodi:namedview
     pagecolor="#ffffff"
     bordercolor="#666666"
     borderopacity="1"
     objecttolerance="10"
     gridtolerance="10"
     guidetolerance="10"
     inkscape:pageopacity="0"
     inkscape:pageshadow="2"
     inkscape:window-width="1366"
     inkscape:window-height="745"
     id="namedview3521"
     showgrid="false"
     inkscape:zoom="2.965"
     inkscape:cx="100"
     inkscape:cy="96.964587"
     inkscape:window-x="-8"
     inkscape:window-y="-8"
     inkscape:window-maximized="1"
     inkscape:current-layer="svg3519" /><style
     type="text/css"
     id="style3492">.st0{clip-path:url(#XMLID_2_);fill:#99D468;} .st1{clip-path:url(#XMLID_2_);} .st2{fill:none;stroke:#82C250;stroke-linecap:round;stroke-linejoin:round;stroke-miterlimit:10;stroke-dasharray:4;} .st3{fill:#CB93EC;stroke:#F1F2F6;stroke-width:2;stroke-linecap:round;stroke-linejoin:round;stroke-miterlimit:10;} .st4{clip-path:url(#XMLID_2_);fill:#B1C252;stroke:#82C250;stroke-width:2;stroke-linecap:round;stroke-linejoin:round;stroke-miterlimit:10;} .st5{clip-path:url(#XMLID_2_);fill:#82C250;} .st6{clip-path:url(#XMLID_2_);fill-rule:evenodd;clip-rule:evenodd;fill:#82C250;}</style><g
     id="XMLID_146_"><defs
       id="defs3495"><circle
         id="XMLID_149_"
         cx="100"
         cy="100"
         r="100" /></defs><clipPath
       id="XMLID_2_"><use
         xlink:href="#XMLID_149_"
         overflow="visible"
         id="use3497"
         style="overflow:visible"
         x="0"
         y="0"
         width="100%"
         height="100%" /></clipPath><path
       class="st0"
       d="M 0,0 H 200 V 200 H 0 Z"
       clip-path="url(#XMLID_2_)"
       id="path3500"
       inkscape:connector-curvature="0"
       style="fill:#99d468" /><g
       class="st1"
       clip-path="url(#XMLID_2_)"
       id="g3508"><path
         class="st2"
         d="M 1.5,120.6 H 199.2 M 8.3,65.1 H 193.5 M 8.3,29 H 193.5 M -2.8,142.2 147.8,29.6 M 92.5,203.5 149,29.6"
         id="path3502"
         inkscape:connector-curvature="0"
         style="fill:none;stroke:#82c250;stroke-linecap:round;stroke-linejoin:round;stroke-miterlimit:10;stroke-dasharray:4" /><path
         class="st3"
         d="m 137.9,65 h -36.4 l -75,55.6 h 92.9 z"
         id="path3504"
         inkscape:connector-curvature="0"
         style="fill:#cb93ec;stroke:#f1f2f6;stroke-width:2;stroke-linecap:round;stroke-linejoin:round;stroke-miterlimit:10" /><path
         class="st3"
         d="m 137.9,65 h 38.9 l -57.4,55.6 z"
         id="path3506"
         inkscape:connector-curvature="0"
         style="fill:#cb93ec;stroke:#f1f2f6;stroke-width:2;stroke-linecap:round;stroke-linejoin:round;stroke-miterlimit:10" /></g><path
       class="st4"
       d="M 118.7,133.7 H 24"
       clip-path="url(#XMLID_2_)"
       id="path3510"
       inkscape:connector-curvature="0"
       style="fill:#b1c252;stroke:#82c250;stroke-width:2;stroke-linecap:round;stroke-linejoin:round;stroke-miterlimit:10" /><circle
       class="st5"
       cx="24.1"
       cy="133.8"
       r="2.3"
       clip-path="url(#XMLID_2_)"
       id="circle3512"
       style="fill:#82c250" /><circle
       class="st5"
       cx="118.9"
       cy="133.8"
       r="2.3"
       clip-path="url(#XMLID_2_)"
       id="circle3514"
       style="fill:#82c250" /><path
       class="st6"
       d="m 69.7,147.6 c -0.1,-0.4 -0.3,-0.7 -0.5,-0.9 -0.3,-0.3 -0.7,-0.4 -1,-0.3 -0.6,0.1 -1.2,0.6 -1.9,1.4 0.4,-1.8 1.1,-4.1 2.2,-7 0.3,-1 0.5,-1.5 0.6,-1.6 0.1,-0.3 0.1,-0.6 0.1,-0.8 0,-0.2 -0.1,-0.3 -0.2,-0.4 -0.2,-0.2 -0.4,-0.2 -0.6,-0.2 -0.2,0 -0.3,0.2 -0.4,0.5 -0.1,0.3 -0.4,1.1 -0.9,2.6 -1.2,3.6 -2.2,7.1 -3,10.7 -0.6,2.5 -0.8,3.9 -0.7,4.2 0,0.1 0.1,0.3 0.2,0.4 0.2,0.2 0.4,0.2 0.5,0.2 0.1,0 0.2,-0.1 0.3,-0.2 0,-0.1 0.1,-0.3 0.2,-0.7 0,0 0,-0.1 0.1,-0.3 0.2,0.2 0.4,0.3 0.7,0.3 h 0.8 c 0.7,-0.2 1.4,-0.7 2,-1.7 0.8,-1.2 1.3,-2.4 1.6,-3.6 0,-1 0.1,-1.9 -0.1,-2.6 z m -1.3,2 c -0.1,0.7 -0.3,1.3 -0.6,2 -0.6,1.6 -1.3,2.4 -2.1,2.6 h -0.5 c -0.2,-0.1 -0.3,-0.2 -0.5,-0.3 0,0 0,-0.1 0.1,-0.4 0.1,-0.5 0.2,-1 0.4,-1.6 0.3,-1.2 0.8,-2.1 1.2,-2.8 0.5,-0.7 0.9,-1.1 1.3,-1.2 h 0.4 c 0.1,0.1 0.2,0.2 0.2,0.4 0.2,0.3 0.2,0.7 0.1,1.3 z"
       clip-path="url(#XMLID_2_)"
       id="path3516"
       inkscape:connector-curvature="0"
       style="clip-rule:evenodd;fill:#82c250;fill-rule:evenodd" /></g></svg>