<?xml version="1.0" encoding="UTF-8" standalone="no"?>
<!-- Created with Inkscape (http://www.inkscape.org/) -->

<svg
   xmlns:dc="http://purl.org/dc/elements/1.1/"
   xmlns:cc="http://creativecommons.org/ns#"
   xmlns:rdf="http://www.w3.org/1999/02/22-rdf-syntax-ns#"
   xmlns:svg="http://www.w3.org/2000/svg"
   xmlns="http://www.w3.org/2000/svg"
   xmlns:sodipodi="http://sodipodi.sourceforge.net/DTD/sodipodi-0.dtd"
   xmlns:inkscape="http://www.inkscape.org/namespaces/inkscape"
   width="200"
   height="200"
   viewBox="0 0 52.916665 52.916668"
   version="1.1"
   id="svg8"
   inkscape:version="0.92.3 (2405546, 2018-03-11)"
   sodipodi:docname="icono.svg">
  <defs
     id="defs2" />
  <sodipodi:namedview
     id="base"
     pagecolor="#ffffff"
     bordercolor="#666666"
     borderopacity="1.0"
     inkscape:pageopacity="0.0"
     inkscape:pageshadow="2"
     inkscape:zoom="2.8"
     inkscape:cx="26.204354"
     inkscape:cy="79.742102"
     inkscape:document-units="mm"
     inkscape:current-layer="layer1"
     showgrid="false"
     units="px"
     inkscape:window-width="1366"
     inkscape:window-height="745"
     inkscape:window-x="-8"
     inkscape:window-y="-8"
     inkscape:window-maximized="1" />
  <metadata
     id="metadata5">
    <rdf:RDF>
      <cc:Work
         rdf:about="">
        <dc:format>image/svg+xml</dc:format>
        <dc:type
           rdf:resource="http://purl.org/dc/dcmitype/StillImage" />
        <dc:title />
      </cc:Work>
    </rdf:RDF>
  </metadata>
  <g
     inkscape:label="Capa 1"
     inkscape:groupmode="layer"
     id="layer1"
     transform="translate(0,-244.08332)">
    <rect
       style="fill:#ecf0f1;fill-opacity:1;fill-rule:evenodd;stroke:none;stroke-width:2.16031361;stroke-linejoin:miter;stroke-miterlimit:4;stroke-dasharray:none;stroke-dashoffset:0;stroke-opacity:1"
       id="rect815"
       width="52.916668"
       height="52.916668"
       x="2.5687237e-008"
       y="244.08334" />
    <path
       style="fill:#fea47f;fill-opacity:1;fill-rule:evenodd;stroke:none;stroke-width:0.23566315;stroke-linejoin:miter;stroke-miterlimit:4;stroke-dasharray:none;stroke-dashoffset:0;stroke-opacity:1"
       d="m 34.214873,280.22364 c 3e-6,4.8381 -3.510506,10.92142 -7.745721,10.92142 -4.235216,0 -7.591349,-6.08332 -7.591345,-10.92142 3e-6,-6.53622 3.433322,-8.76013 7.668533,-8.76013 4.235212,0 7.668529,2.22391 7.668533,8.76013 z"
       id="path3954"
       inkscape:connector-curvature="0"
       sodipodi:nodetypes="sssss" />
    <ellipse
       style="fill:#d35400;fill-opacity:1;fill-rule:evenodd;stroke:none;stroke-width:0.30379045;stroke-linejoin:miter;stroke-miterlimit:4;stroke-dasharray:none;stroke-dashoffset:0;stroke-opacity:1"
       id="path3960"
       cx="26.466433"
       cy="274.03891"
       rx="5.4713998"
       ry="2.4700227" />
    <path
       style="fill:#d35400;fill-opacity:1;fill-rule:evenodd;stroke:none;stroke-width:0.21439889;stroke-linejoin:miter;stroke-miterlimit:4;stroke-dasharray:none;stroke-dashoffset:0;stroke-opacity:1"
       d="m 31.09805,272.70015 c 0,0 0.726872,0.55886 1.276717,1.18887 0.549845,0.63001 0.922662,1.33116 1.196997,2.16155 0.274332,0.83039 0.403859,1.44011 0.492092,2.5245 0.08824,1.08437 0.135173,2.64341 0.135173,2.64341 l -1.100292,-0.36456 c 0,0 0.590404,2.70308 0.196109,-3.51578 -0.110669,-1.74555 -3.50217,-4.00848 -3.50217,-4.00848 z"
       id="rect3962"
       inkscape:connector-curvature="0"
       sodipodi:nodetypes="csssccscc" />
    <path
       sodipodi:nodetypes="csssccscc"
       inkscape:connector-curvature="0"
       id="path3965"
       d="m 21.890257,272.70015 c 0,0 -0.726872,0.55886 -1.276716,1.18887 -0.549845,0.63001 -0.78621,1.30387 -1.060545,2.13426 -0.274334,0.83039 -0.540312,1.4674 -0.628545,2.55179 -0.08823,1.08437 -0.135172,2.64341 -0.135172,2.64341 l 1.100291,-0.36456 c 0,0 -0.590403,2.70308 -0.196108,-3.51578 0.110669,-1.74555 3.50217,-4.00848 3.50217,-4.00848 z"
       style="fill:#d35400;fill-opacity:1;fill-rule:evenodd;stroke:none;stroke-width:0.21439889;stroke-linejoin:miter;stroke-miterlimit:4;stroke-dasharray:none;stroke-dashoffset:0;stroke-opacity:1" />
    <ellipse
       style="fill:#34495e;fill-opacity:1;fill-rule:evenodd;stroke:none;stroke-width:0.23566315;stroke-linejoin:miter;stroke-miterlimit:4;stroke-dasharray:none;stroke-dashoffset:0;stroke-opacity:1"
       id="path3967"
       cx="23.803679"
       cy="280.50751"
       rx="1.4327332"
       ry="1.4736685" />
    <ellipse
       ry="1.4736685"
       rx="1.4327332"
       cy="280.50751"
       cx="29.414543"
       id="ellipse3969"
       style="fill:#34495e;fill-opacity:1;fill-rule:evenodd;stroke:none;stroke-width:0.23566315;stroke-linejoin:miter;stroke-miterlimit:4;stroke-dasharray:none;stroke-dashoffset:0;stroke-opacity:1" />
    <path
       style="fill:#2c3e50;fill-opacity:1;fill-rule:evenodd;stroke:none;stroke-width:0.23566315;stroke-linejoin:miter;stroke-miterlimit:4;stroke-dasharray:none;stroke-dashoffset:0;stroke-opacity:1"
       d="m 23.271523,286.4731 c 0,0 0.982559,0.47989 1.828441,0.54581 0.916171,0.0714 1.773859,-0.43665 1.773859,-0.43665 0,0 0.798769,-0.59125 1.937601,-0.62767 1.14502,-0.0366 1.337218,2.01947 1.337218,2.01947 v 0 c 0,0 0.116353,-0.64835 -1.228057,-0.5185 -1.151215,0.11113 -2.046761,0.62767 -2.046761,0.62767 0,0 -0.67316,0.2456 -1.6647,0.24561 -0.845996,0 -1.937601,-1.85574 -1.937601,-1.85574 z"
       id="rect3971"
       inkscape:connector-curvature="0"
       sodipodi:nodetypes="csssccssscc" />
    <path
       style="fill:#d35400;fill-opacity:1;fill-rule:evenodd;stroke:none;stroke-width:0.23566315;stroke-linejoin:miter;stroke-miterlimit:4;stroke-dasharray:none;stroke-dashoffset:0;stroke-opacity:1"
       d="m 27.365044,278.51536 c 0,0 1.446379,-1.06433 2.306019,-1.06433 0.85964,0 2.851821,1.58284 2.851821,1.58284 v 0 0.51851 c 0,0 -1.992181,-1.06431 -2.851821,-1.06431 -0.85964,0 -2.306019,1.06431 -2.306019,1.06431 v -0.51851 z"
       id="rect3974"
       inkscape:connector-curvature="0"
       sodipodi:nodetypes="cscccsccc" />
    <path
       sodipodi:nodetypes="cscccsccc"
       inkscape:connector-curvature="0"
       id="path3977"
       d="m 26.055113,277.90405 c 0,0 -0.765057,-0.85932 -2.537089,-0.62767 -1.556789,0.20349 -2.51159,2.10134 -2.51159,2.10134 v 0 l 0.254985,0.49123 c 0,0 0.14855,-1.10338 1.950625,-1.99219 0.897269,-0.44255 2.843069,1.06433 2.843069,1.06433 v -0.51852 z"
       style="fill:#d35400;fill-opacity:1;fill-rule:evenodd;stroke:none;stroke-width:0.22779542;stroke-linejoin:miter;stroke-miterlimit:4;stroke-dasharray:none;stroke-dashoffset:0;stroke-opacity:1" />
    <ellipse
       style="fill:#7ed6df;fill-opacity:1;fill-rule:evenodd;stroke:none;stroke-width:0.24163036;stroke-linejoin:miter;stroke-miterlimit:4;stroke-dasharray:none;stroke-dashoffset:0;stroke-opacity:1"
       id="path3999"
       cx="14.995825"
       cy="261.33231"
       rx="8.2722292"
       ry="6.7601008" />
    <ellipse
       style="fill:#7ed6df;fill-opacity:1;fill-rule:evenodd;stroke:none;stroke-width:0.17583318;stroke-linejoin:miter;stroke-miterlimit:4;stroke-dasharray:none;stroke-dashoffset:0;stroke-opacity:1"
       id="path4017"
       cx="16.513525"
       cy="270.21002"
       rx="1.547493"
       ry="1.384599" />
    <ellipse
       style="fill:#7ed6df;fill-opacity:1;fill-rule:evenodd;stroke:none;stroke-width:0.17583318;stroke-linejoin:miter;stroke-miterlimit:4;stroke-dasharray:none;stroke-dashoffset:0;stroke-opacity:1"
       id="path4019"
       cx="17.759665"
       cy="273.42722"
       rx="0.93664062"
       ry="0.85519356" />
    <ellipse
       ry="6.7601008"
       rx="8.2722292"
       cy="261.33231"
       cx="-37.801003"
       id="ellipse4021"
       style="fill:#7ed6df;fill-opacity:1;fill-rule:evenodd;stroke:none;stroke-width:0.24163036;stroke-linejoin:miter;stroke-miterlimit:4;stroke-dasharray:none;stroke-dashoffset:0;stroke-opacity:1"
       transform="scale(-1,1)" />
    <ellipse
       ry="1.384599"
       rx="1.547493"
       cy="270.21002"
       cx="-36.283298"
       id="ellipse4023"
       style="fill:#7ed6df;fill-opacity:1;fill-rule:evenodd;stroke:none;stroke-width:0.17583318;stroke-linejoin:miter;stroke-miterlimit:4;stroke-dasharray:none;stroke-dashoffset:0;stroke-opacity:1"
       transform="scale(-1,1)" />
    <ellipse
       ry="0.85519356"
       rx="0.93664062"
       cy="273.42722"
       cx="-35.037155"
       id="ellipse4025"
       style="fill:#7ed6df;fill-opacity:1;fill-rule:evenodd;stroke:none;stroke-width:0.17583318;stroke-linejoin:miter;stroke-miterlimit:4;stroke-dasharray:none;stroke-dashoffset:0;stroke-opacity:1"
       transform="scale(-1,1)" />
    <rect
       style="fill:#6ab04c;fill-opacity:1;fill-rule:evenodd;stroke:none;stroke-width:0.25789675;stroke-linejoin:miter;stroke-miterlimit:4;stroke-dasharray:none;stroke-dashoffset:0;stroke-opacity:1"
       id="rect4027"
       width="4.0616179"
       height="1.0751396"
       x="210.1037"
       y="153.84769"
       transform="rotate(51.210973)" />
    <rect
       transform="rotate(51.210973)"
       y="153.84769"
       x="210.1037"
       height="1.0751396"
       width="4.0616179"
       id="rect4031"
       style="fill:#6ab04c;fill-opacity:1;fill-rule:evenodd;stroke:none;stroke-width:0.25789675;stroke-linejoin:miter;stroke-miterlimit:4;stroke-dasharray:none;stroke-dashoffset:0;stroke-opacity:1" />
    <path
       style="fill:#6ab04c;fill-opacity:1;stroke:none;stroke-width:0.2280516px;stroke-linecap:butt;stroke-linejoin:miter;stroke-opacity:1"
       d="m 14.247027,263.31148 c 0,0 1.220679,-2.25963 2.290932,-2.83439 0.921283,-0.49477 3.38005,-1.50677 3.38005,-1.50677 0,0 -2.615697,0.33468 -3.665114,0.81451 -1.154395,0.52783 -2.524858,2.85064 -2.524858,2.85064"
       id="path4033"
       inkscape:connector-curvature="0"
       sodipodi:nodetypes="cscsc" />
    <path
       style="fill:#eb4d4b;fill-opacity:1;stroke:none;stroke-width:0.28122076px;stroke-linecap:butt;stroke-linejoin:miter;stroke-opacity:1"
       d="m 35.125787,257.94406 c 0,0 2.629271,1.4933 3.642921,2.53159 1.080976,1.10725 2.481408,3.82127 2.481408,3.82127 0,0 -1.681819,-2.37707 -2.798184,-3.34361 -1.096861,-0.94965 -3.748513,-2.34053 -3.748513,-2.34053 z"
       id="path4035"
       inkscape:connector-curvature="0"
       sodipodi:nodetypes="cscscc" />
    <path
       sodipodi:nodetypes="cscscc"
       inkscape:connector-curvature="0"
       id="path4037"
       d="m 34.584406,263.8266 c 0,0 1.542517,-2.4374 2.648071,-3.39585 1.17898,-1.0221 4.119515,-2.39819 4.119515,-2.39819 0,0 -2.556991,1.61678 -3.579138,2.66517 -1.004281,1.03007 -2.432775,3.48356 -2.432775,3.48356 z"
       style="fill:#eb4d4b;fill-opacity:1;stroke:none;stroke-width:0.28122076px;stroke-linecap:butt;stroke-linejoin:miter;stroke-opacity:1" />
  </g>
</svg>
