<?xml version="1.0" encoding="UTF-8" standalone="no"?>
<!-- Created with Inkscape (http://www.inkscape.org/) -->

<svg
   xmlns:dc="http://purl.org/dc/elements/1.1/"
   xmlns:cc="http://creativecommons.org/ns#"
   xmlns:rdf="http://www.w3.org/1999/02/22-rdf-syntax-ns#"
   xmlns:svg="http://www.w3.org/2000/svg"
   xmlns="http://www.w3.org/2000/svg"
   xmlns:sodipodi="http://sodipodi.sourceforge.net/DTD/sodipodi-0.dtd"
   xmlns:inkscape="http://www.inkscape.org/namespaces/inkscape"
   width="200"
   height="200"
   viewBox="0 0 52.916665 52.916668"
   version="1.1"
   id="svg8"
   inkscape:version="0.92.3 (2405546, 2018-03-11)"
   sodipodi:docname="icono.svg">
  <defs
     id="defs2" />
  <sodipodi:namedview
     id="base"
     pagecolor="#ffffff"
     bordercolor="#666666"
     borderopacity="1.0"
     inkscape:pageopacity="0.0"
     inkscape:pageshadow="2"
     inkscape:zoom="2"
     inkscape:cx="37.48759"
     inkscape:cy="88.367989"
     inkscape:document-units="mm"
     inkscape:current-layer="layer1"
     showgrid="false"
     units="px"
     inkscape:window-width="1366"
     inkscape:window-height="745"
     inkscape:window-x="-8"
     inkscape:window-y="-8"
     inkscape:window-maximized="1"
     showguides="true"
     inkscape:guide-bbox="true" />
  <metadata
     id="metadata5">
    <rdf:RDF>
      <cc:Work
         rdf:about="">
        <dc:format>image/svg+xml</dc:format>
        <dc:type
           rdf:resource="http://purl.org/dc/dcmitype/StillImage" />
        <dc:title />
      </cc:Work>
    </rdf:RDF>
  </metadata>
  <g
     inkscape:label="Capa 1"
     inkscape:groupmode="layer"
     id="layer1"
     transform="translate(0,-244.08332)">
    <rect
       style="fill:#f1c40f;fill-opacity:1;fill-rule:evenodd;stroke:none;stroke-width:2.16031361;stroke-linejoin:miter;stroke-miterlimit:4;stroke-dasharray:none;stroke-dashoffset:0;stroke-opacity:1"
       id="rect815"
       width="52.916668"
       height="52.916668"
       x="2.5687237e-008"
       y="244.08334" />
    <rect
       style="fill:#ecf0f1;fill-opacity:1;fill-rule:evenodd;stroke:#34495e;stroke-width:0.52916667;stroke-linejoin:miter;stroke-miterlimit:4;stroke-dasharray:none;stroke-dashoffset:0;stroke-opacity:1"
       id="rect827"
       width="18.993017"
       height="24.408381"
       x="7.4275188"
       y="258.27795" />
    <rect
       y="258.27795"
       x="26.420536"
       height="24.408381"
       width="18.993017"
       id="rect833"
       style="fill:#ecf0f1;fill-opacity:1;fill-rule:evenodd;stroke:#34495e;stroke-width:0.52916667;stroke-linejoin:miter;stroke-miterlimit:4;stroke-dasharray:none;stroke-dashoffset:0;stroke-opacity:1" />
    <path
       style="fill:#ecf0f1;fill-opacity:1;fill-rule:evenodd;stroke:#34495e;stroke-width:0.52916667;stroke-linejoin:miter;stroke-miterlimit:4;stroke-dasharray:none;stroke-dashoffset:0;stroke-opacity:1"
       d="m 8.5943298,258.99945 c 0,0 3.1381982,0.59598 4.6260272,0.59598 1.48783,0 2.872084,-0.36541 4.30095,-0.59598 1.475442,-0.23807 2.92148,-0.81269 4.40931,-0.81269 1.487828,0 4.517668,0.81269 4.517668,0.81269 v 22.94454 c 0,0 -3.02984,-0.81268 -4.517668,-0.81268 -1.48783,0 -2.933868,0.57461 -4.40931,0.81268 -1.428866,0.23057 -2.81312,0.59597 -4.30095,0.59597 -1.487829,0 -4.6260272,-0.59597 -4.6260272,-0.59597 z"
       id="rect835"
       inkscape:connector-curvature="0"
       sodipodi:nodetypes="czazcczazcc" />
    <path
       sodipodi:nodetypes="czazcczazcc"
       inkscape:connector-curvature="0"
       id="path838"
       d="m 44.302239,258.99945 c 0,0 -3.138198,0.59598 -4.626027,0.59598 -1.48783,0 -2.872084,-0.36541 -4.300951,-0.59598 -1.475441,-0.23807 -2.921479,-0.81269 -4.409309,-0.81269 -1.487828,0 -4.517667,0.81269 -4.517667,0.81269 v 22.94454 c 0,0 3.029839,-0.81268 4.517667,-0.81268 1.48783,0 2.933868,0.57461 4.409309,0.81268 1.428867,0.23057 2.813121,0.59597 4.300951,0.59597 1.487829,0 4.626027,-0.59597 4.626027,-0.59597 z"
       style="fill:#ecf0f1;fill-opacity:1;fill-rule:evenodd;stroke:#34495e;stroke-width:0.52916667;stroke-linejoin:miter;stroke-miterlimit:4;stroke-dasharray:none;stroke-dashoffset:0;stroke-opacity:1" />
    <path
       style="color:#000000;font-style:normal;font-variant:normal;font-weight:normal;font-stretch:normal;font-size:medium;line-height:normal;font-family:sans-serif;font-variant-ligatures:normal;font-variant-position:normal;font-variant-caps:normal;font-variant-numeric:normal;font-variant-alternates:normal;font-feature-settings:normal;text-indent:0;text-align:start;text-decoration:none;text-decoration-line:none;text-decoration-style:solid;text-decoration-color:#000000;letter-spacing:normal;word-spacing:normal;text-transform:none;writing-mode:lr-tb;direction:ltr;text-orientation:mixed;dominant-baseline:auto;baseline-shift:baseline;text-anchor:start;white-space:normal;shape-padding:0;clip-rule:nonzero;display:inline;overflow:visible;visibility:visible;opacity:1;isolation:auto;mix-blend-mode:normal;color-interpolation:sRGB;color-interpolation-filters:linearRGB;solid-color:#000000;solid-opacity:1;vector-effect:none;fill:#000000;fill-opacity:1;fill-rule:nonzero;stroke:#34495e;stroke-width:0.52916667;stroke-linecap:butt;stroke-linejoin:miter;stroke-miterlimit:4;stroke-dasharray:none;stroke-dashoffset:0;stroke-opacity:1;color-rendering:auto;image-rendering:auto;shape-rendering:auto;text-rendering:auto;enable-background:accumulate"
       d="m 10.909303,261.7757 v 0.0274 0.0274 0.0274 0.0274 0.0274 0.0274 0.0274 0.0274 l 1.64212,-0.29225 1.590605,0.29955 1.616361,-0.29915 1.616362,0.30646 1.61636,-0.30606 1.616362,0.31337 1.603483,-0.31297 1.62924,0.32028 v -0.0276 -0.0276 -0.0276 -0.0276 -0.0276 -0.0276 -0.0276 -0.0276 l -1.62924,-0.32006 -1.603483,0.31316 -1.616362,-0.31316 -1.61636,0.30626 -1.616362,-0.30626 -1.616361,0.29934 -1.590605,-0.29934 z"
       id="path846"
       inkscape:connector-curvature="0"
       sodipodi:nodetypes="ccccccccccccccccccccccccccccccccc" />
    <path
       sodipodi:nodetypes="ccccccccccccccccccccccccccccccccc"
       inkscape:connector-curvature="0"
       id="path864"
       d="m 10.909303,264.41277 v 0.0274 0.0274 0.0274 0.0274 0.0274 0.0274 0.0274 0.0274 l 1.64212,-0.29225 1.590605,0.29955 1.616361,-0.29915 1.616362,0.30646 1.61636,-0.30605 1.616362,0.31336 1.603483,-0.31296 1.62924,0.32028 v -0.0276 -0.0276 -0.0276 -0.0276 -0.0276 -0.0276 -0.0276 -0.0276 l -1.62924,-0.32006 -1.603483,0.31315 -1.616362,-0.31315 -1.61636,0.30625 -1.616362,-0.30625 -1.616361,0.29934 -1.590605,-0.29934 z"
       style="color:#000000;font-style:normal;font-variant:normal;font-weight:normal;font-stretch:normal;font-size:medium;line-height:normal;font-family:sans-serif;font-variant-ligatures:normal;font-variant-position:normal;font-variant-caps:normal;font-variant-numeric:normal;font-variant-alternates:normal;font-feature-settings:normal;text-indent:0;text-align:start;text-decoration:none;text-decoration-line:none;text-decoration-style:solid;text-decoration-color:#000000;letter-spacing:normal;word-spacing:normal;text-transform:none;writing-mode:lr-tb;direction:ltr;text-orientation:mixed;dominant-baseline:auto;baseline-shift:baseline;text-anchor:start;white-space:normal;shape-padding:0;clip-rule:nonzero;display:inline;overflow:visible;visibility:visible;opacity:1;isolation:auto;mix-blend-mode:normal;color-interpolation:sRGB;color-interpolation-filters:linearRGB;solid-color:#000000;solid-opacity:1;vector-effect:none;fill:#000000;fill-opacity:1;fill-rule:nonzero;stroke:#34495e;stroke-width:0.52916667;stroke-linecap:butt;stroke-linejoin:miter;stroke-miterlimit:4;stroke-dasharray:none;stroke-dashoffset:0;stroke-opacity:1;color-rendering:auto;image-rendering:auto;shape-rendering:auto;text-rendering:auto;enable-background:accumulate" />
    <path
       style="color:#000000;font-style:normal;font-variant:normal;font-weight:normal;font-stretch:normal;font-size:medium;line-height:normal;font-family:sans-serif;font-variant-ligatures:normal;font-variant-position:normal;font-variant-caps:normal;font-variant-numeric:normal;font-variant-alternates:normal;font-feature-settings:normal;text-indent:0;text-align:start;text-decoration:none;text-decoration-line:none;text-decoration-style:solid;text-decoration-color:#000000;letter-spacing:normal;word-spacing:normal;text-transform:none;writing-mode:lr-tb;direction:ltr;text-orientation:mixed;dominant-baseline:auto;baseline-shift:baseline;text-anchor:start;white-space:normal;shape-padding:0;clip-rule:nonzero;display:inline;overflow:visible;visibility:visible;opacity:1;isolation:auto;mix-blend-mode:normal;color-interpolation:sRGB;color-interpolation-filters:linearRGB;solid-color:#000000;solid-opacity:1;vector-effect:none;fill:#000000;fill-opacity:1;fill-rule:nonzero;stroke:#34495e;stroke-width:0.43950787;stroke-linecap:butt;stroke-linejoin:miter;stroke-miterlimit:4;stroke-dasharray:none;stroke-dashoffset:0;stroke-opacity:1;color-rendering:auto;image-rendering:auto;shape-rendering:auto;text-rendering:auto;enable-background:accumulate"
       d="m 10.909303,267.04983 v 0.0274 0.0274 0.0274 0.0274 0.0274 0.0274 0.0274 0.0274 l 1.64212,-0.29225 1.590605,0.29955 1.616361,-0.29915 1.616362,0.30647 1.61636,-0.30606 1.616362,0.31337 1.603483,-0.31297 1.62924,0.32028 v -0.0276 -0.0276 -0.0276 -0.0276 -0.0276 -0.0276 -0.0276 -0.0276 l -1.62924,-0.32006 -1.603483,0.31316 -1.616362,-0.31316 -1.61636,0.30625 -1.616362,-0.30625 -1.616361,0.29934 -1.590605,-0.29934 z"
       id="path866"
       inkscape:connector-curvature="0"
       sodipodi:nodetypes="ccccccccccccccccccccccccccccccccc" />
    <path
       sodipodi:nodetypes="ccccccccccccccccccccccccccccccccc"
       inkscape:connector-curvature="0"
       id="path868"
       d="m 10.909303,269.68689 v 0.0274 0.0274 0.0274 0.0274 0.0274 0.0274 0.0274 0.0274 l 1.64212,-0.29224 1.590605,0.29955 1.616361,-0.29915 1.616362,0.30646 1.61636,-0.30606 1.616362,0.31337 1.603483,-0.31297 1.62924,0.32028 v -0.0276 -0.0276 -0.0276 -0.0276 -0.0276 -0.0276 -0.0276 -0.0276 l -1.62924,-0.32006 -1.603483,0.31316 -1.616362,-0.31316 -1.61636,0.30626 -1.616362,-0.30626 -1.616361,0.29934 -1.590605,-0.29934 z"
       style="color:#000000;font-style:normal;font-variant:normal;font-weight:normal;font-stretch:normal;font-size:medium;line-height:normal;font-family:sans-serif;font-variant-ligatures:normal;font-variant-position:normal;font-variant-caps:normal;font-variant-numeric:normal;font-variant-alternates:normal;font-feature-settings:normal;text-indent:0;text-align:start;text-decoration:none;text-decoration-line:none;text-decoration-style:solid;text-decoration-color:#000000;letter-spacing:normal;word-spacing:normal;text-transform:none;writing-mode:lr-tb;direction:ltr;text-orientation:mixed;dominant-baseline:auto;baseline-shift:baseline;text-anchor:start;white-space:normal;shape-padding:0;clip-rule:nonzero;display:inline;overflow:visible;visibility:visible;opacity:1;isolation:auto;mix-blend-mode:normal;color-interpolation:sRGB;color-interpolation-filters:linearRGB;solid-color:#000000;solid-opacity:1;vector-effect:none;fill:#000000;fill-opacity:1;fill-rule:nonzero;stroke:#34495e;stroke-width:0.43950787;stroke-linecap:butt;stroke-linejoin:miter;stroke-miterlimit:4;stroke-dasharray:none;stroke-dashoffset:0;stroke-opacity:1;color-rendering:auto;image-rendering:auto;shape-rendering:auto;text-rendering:auto;enable-background:accumulate" />
    <path
       style="color:#000000;font-style:normal;font-variant:normal;font-weight:normal;font-stretch:normal;font-size:medium;line-height:normal;font-family:sans-serif;font-variant-ligatures:normal;font-variant-position:normal;font-variant-caps:normal;font-variant-numeric:normal;font-variant-alternates:normal;font-feature-settings:normal;text-indent:0;text-align:start;text-decoration:none;text-decoration-line:none;text-decoration-style:solid;text-decoration-color:#000000;letter-spacing:normal;word-spacing:normal;text-transform:none;writing-mode:lr-tb;direction:ltr;text-orientation:mixed;dominant-baseline:auto;baseline-shift:baseline;text-anchor:start;white-space:normal;shape-padding:0;clip-rule:nonzero;display:inline;overflow:visible;visibility:visible;opacity:1;isolation:auto;mix-blend-mode:normal;color-interpolation:sRGB;color-interpolation-filters:linearRGB;solid-color:#000000;solid-opacity:1;vector-effect:none;fill:#000000;fill-opacity:1;fill-rule:nonzero;stroke:#34495e;stroke-width:0.43950787;stroke-linecap:butt;stroke-linejoin:miter;stroke-miterlimit:4;stroke-dasharray:none;stroke-dashoffset:0;stroke-opacity:1;color-rendering:auto;image-rendering:auto;shape-rendering:auto;text-rendering:auto;enable-background:accumulate"
       d="m 10.909303,272.32396 v 0.0274 0.0274 0.0274 0.0274 0.0274 0.0274 0.0274 0.0274 l 1.64212,-0.29225 1.590605,0.29956 1.616361,-0.29916 1.616362,0.30646 1.61636,-0.30605 1.616362,0.31336 1.603483,-0.31296 1.62924,0.32027 v -0.0276 -0.0276 -0.0276 -0.0276 -0.0276 -0.0276 -0.0276 -0.0276 l -1.62924,-0.32007 -1.603483,0.31315 -1.616362,-0.31315 -1.61636,0.30625 -1.616362,-0.30625 -1.616361,0.29934 -1.590605,-0.29934 z"
       id="path870"
       inkscape:connector-curvature="0"
       sodipodi:nodetypes="ccccccccccccccccccccccccccccccccc" />
    <path
       sodipodi:nodetypes="ccccccccccccccccccccccccccccccccc"
       inkscape:connector-curvature="0"
       id="path872"
       d="m 10.909303,274.96102 v 0.0274 0.0274 0.0274 0.0274 0.0274 0.0274 0.0274 0.0274 l 1.64212,-0.29225 1.590605,0.29956 1.616361,-0.29916 1.616362,0.30646 1.61636,-0.30605 1.616362,0.31337 1.603483,-0.31297 1.62924,0.32028 v -0.0276 -0.0276 -0.0276 -0.0276 -0.0276 -0.0276 -0.0276 -0.0276 l -1.62924,-0.32007 -1.603483,0.31316 -1.616362,-0.31316 -1.61636,0.30625 -1.616362,-0.30625 -1.616361,0.29934 -1.590605,-0.29934 z"
       style="color:#000000;font-style:normal;font-variant:normal;font-weight:normal;font-stretch:normal;font-size:medium;line-height:normal;font-family:sans-serif;font-variant-ligatures:normal;font-variant-position:normal;font-variant-caps:normal;font-variant-numeric:normal;font-variant-alternates:normal;font-feature-settings:normal;text-indent:0;text-align:start;text-decoration:none;text-decoration-line:none;text-decoration-style:solid;text-decoration-color:#000000;letter-spacing:normal;word-spacing:normal;text-transform:none;writing-mode:lr-tb;direction:ltr;text-orientation:mixed;dominant-baseline:auto;baseline-shift:baseline;text-anchor:start;white-space:normal;shape-padding:0;clip-rule:nonzero;display:inline;overflow:visible;visibility:visible;opacity:1;isolation:auto;mix-blend-mode:normal;color-interpolation:sRGB;color-interpolation-filters:linearRGB;solid-color:#000000;solid-opacity:1;vector-effect:none;fill:#000000;fill-opacity:1;fill-rule:nonzero;stroke:#34495e;stroke-width:0.43950787;stroke-linecap:butt;stroke-linejoin:miter;stroke-miterlimit:4;stroke-dasharray:none;stroke-dashoffset:0;stroke-opacity:1;color-rendering:auto;image-rendering:auto;shape-rendering:auto;text-rendering:auto;enable-background:accumulate" />
    <path
       style="color:#000000;font-style:normal;font-variant:normal;font-weight:normal;font-stretch:normal;font-size:medium;line-height:normal;font-family:sans-serif;font-variant-ligatures:normal;font-variant-position:normal;font-variant-caps:normal;font-variant-numeric:normal;font-variant-alternates:normal;font-feature-settings:normal;text-indent:0;text-align:start;text-decoration:none;text-decoration-line:none;text-decoration-style:solid;text-decoration-color:#000000;letter-spacing:normal;word-spacing:normal;text-transform:none;writing-mode:lr-tb;direction:ltr;text-orientation:mixed;dominant-baseline:auto;baseline-shift:baseline;text-anchor:start;white-space:normal;shape-padding:0;clip-rule:nonzero;display:inline;overflow:visible;visibility:visible;opacity:1;isolation:auto;mix-blend-mode:normal;color-interpolation:sRGB;color-interpolation-filters:linearRGB;solid-color:#000000;solid-opacity:1;vector-effect:none;fill:#000000;fill-opacity:1;fill-rule:nonzero;stroke:#34495e;stroke-width:0.43950787;stroke-linecap:butt;stroke-linejoin:miter;stroke-miterlimit:4;stroke-dasharray:none;stroke-dashoffset:0;stroke-opacity:1;color-rendering:auto;image-rendering:auto;shape-rendering:auto;text-rendering:auto;enable-background:accumulate"
       d="m 10.909303,277.59808 v 0.0274 0.0274 0.0274 0.0274 0.0274 0.0274 0.0274 0.0274 l 1.64212,-0.29224 1.590605,0.29956 1.616361,-0.29916 1.616362,0.30646 1.61636,-0.30606 1.616362,0.31337 1.603483,-0.31297 1.62924,0.32028 v -0.0276 -0.0276 -0.0276 -0.0276 -0.0276 -0.0276 -0.0276 -0.0276 l -1.62924,-0.32007 -1.603483,0.31316 -1.616362,-0.31316 -1.61636,0.30626 -1.616362,-0.30626 -1.616361,0.29934 -1.590605,-0.29934 z"
       id="path874"
       inkscape:connector-curvature="0"
       sodipodi:nodetypes="ccccccccccccccccccccccccccccccccc" />
    <path
       sodipodi:nodetypes="ccccccccccccccccccccccccccccccccc"
       inkscape:connector-curvature="0"
       id="path876"
       d="m 28.929133,277.59808 v 0.0274 0.0274 0.0274 0.0274 0.0274 0.0274 0.0274 0.0274 l 1.642121,-0.29224 1.590606,0.29956 1.616361,-0.29916 1.616362,0.30646 1.61636,-0.30606 1.616362,0.31337 1.603483,-0.31297 1.62924,0.32028 v -0.0276 -0.0276 -0.0276 -0.0276 -0.0276 -0.0276 -0.0276 -0.0276 l -1.62924,-0.32007 -1.603483,0.31316 -1.616362,-0.31316 -1.61636,0.30626 -1.616362,-0.30626 -1.616361,0.29934 -1.590606,-0.29934 z"
       style="color:#000000;font-style:normal;font-variant:normal;font-weight:normal;font-stretch:normal;font-size:medium;line-height:normal;font-family:sans-serif;font-variant-ligatures:normal;font-variant-position:normal;font-variant-caps:normal;font-variant-numeric:normal;font-variant-alternates:normal;font-feature-settings:normal;text-indent:0;text-align:start;text-decoration:none;text-decoration-line:none;text-decoration-style:solid;text-decoration-color:#000000;letter-spacing:normal;word-spacing:normal;text-transform:none;writing-mode:lr-tb;direction:ltr;text-orientation:mixed;dominant-baseline:auto;baseline-shift:baseline;text-anchor:start;white-space:normal;shape-padding:0;clip-rule:nonzero;display:inline;overflow:visible;visibility:visible;opacity:1;isolation:auto;mix-blend-mode:normal;color-interpolation:sRGB;color-interpolation-filters:linearRGB;solid-color:#000000;solid-opacity:1;vector-effect:none;fill:#000000;fill-opacity:1;fill-rule:nonzero;stroke:#34495e;stroke-width:0.52916667;stroke-linecap:butt;stroke-linejoin:miter;stroke-miterlimit:4;stroke-dasharray:none;stroke-dashoffset:0;stroke-opacity:1;color-rendering:auto;image-rendering:auto;shape-rendering:auto;text-rendering:auto;enable-background:accumulate" />
    <path
       style="color:#000000;font-style:normal;font-variant:normal;font-weight:normal;font-stretch:normal;font-size:medium;line-height:normal;font-family:sans-serif;font-variant-ligatures:normal;font-variant-position:normal;font-variant-caps:normal;font-variant-numeric:normal;font-variant-alternates:normal;font-feature-settings:normal;text-indent:0;text-align:start;text-decoration:none;text-decoration-line:none;text-decoration-style:solid;text-decoration-color:#000000;letter-spacing:normal;word-spacing:normal;text-transform:none;writing-mode:lr-tb;direction:ltr;text-orientation:mixed;dominant-baseline:auto;baseline-shift:baseline;text-anchor:start;white-space:normal;shape-padding:0;clip-rule:nonzero;display:inline;overflow:visible;visibility:visible;opacity:1;isolation:auto;mix-blend-mode:normal;color-interpolation:sRGB;color-interpolation-filters:linearRGB;solid-color:#000000;solid-opacity:1;vector-effect:none;fill:#000000;fill-opacity:1;fill-rule:nonzero;stroke:#34495e;stroke-width:0.52916667;stroke-linecap:butt;stroke-linejoin:miter;stroke-miterlimit:4;stroke-dasharray:none;stroke-dashoffset:0;stroke-opacity:1;color-rendering:auto;image-rendering:auto;shape-rendering:auto;text-rendering:auto;enable-background:accumulate"
       d="m 28.929133,274.96102 v 0.0274 0.0274 0.0274 0.0274 0.0274 0.0274 0.0274 0.0274 l 1.642121,-0.29225 1.590606,0.29956 1.616361,-0.29916 1.616362,0.30646 1.61636,-0.30605 1.616362,0.31337 1.603483,-0.31297 1.62924,0.32028 v -0.0276 -0.0276 -0.0276 -0.0276 -0.0276 -0.0276 -0.0276 -0.0276 l -1.62924,-0.32007 -1.603483,0.31316 -1.616362,-0.31316 -1.61636,0.30625 -1.616362,-0.30625 -1.616361,0.29934 -1.590606,-0.29934 z"
       id="path878"
       inkscape:connector-curvature="0"
       sodipodi:nodetypes="ccccccccccccccccccccccccccccccccc" />
    <path
       sodipodi:nodetypes="ccccccccccccccccccccccccccccccccc"
       inkscape:connector-curvature="0"
       id="path880"
       d="m 28.929133,272.32396 v 0.0274 0.0274 0.0274 0.0274 0.0274 0.0274 0.0274 0.0274 l 1.642121,-0.29225 1.590606,0.29956 1.616361,-0.29916 1.616362,0.30646 1.61636,-0.30605 1.616362,0.31336 1.603483,-0.31296 1.62924,0.32027 v -0.0276 -0.0276 -0.0276 -0.0276 -0.0276 -0.0276 -0.0276 -0.0276 l -1.62924,-0.32007 -1.603483,0.31315 -1.616362,-0.31315 -1.61636,0.30625 -1.616362,-0.30625 -1.616361,0.29934 -1.590606,-0.29934 z"
       style="color:#000000;font-style:normal;font-variant:normal;font-weight:normal;font-stretch:normal;font-size:medium;line-height:normal;font-family:sans-serif;font-variant-ligatures:normal;font-variant-position:normal;font-variant-caps:normal;font-variant-numeric:normal;font-variant-alternates:normal;font-feature-settings:normal;text-indent:0;text-align:start;text-decoration:none;text-decoration-line:none;text-decoration-style:solid;text-decoration-color:#000000;letter-spacing:normal;word-spacing:normal;text-transform:none;writing-mode:lr-tb;direction:ltr;text-orientation:mixed;dominant-baseline:auto;baseline-shift:baseline;text-anchor:start;white-space:normal;shape-padding:0;clip-rule:nonzero;display:inline;overflow:visible;visibility:visible;opacity:1;isolation:auto;mix-blend-mode:normal;color-interpolation:sRGB;color-interpolation-filters:linearRGB;solid-color:#000000;solid-opacity:1;vector-effect:none;fill:#000000;fill-opacity:1;fill-rule:nonzero;stroke:#34495e;stroke-width:0.52916667;stroke-linecap:butt;stroke-linejoin:miter;stroke-miterlimit:4;stroke-dasharray:none;stroke-dashoffset:0;stroke-opacity:1;color-rendering:auto;image-rendering:auto;shape-rendering:auto;text-rendering:auto;enable-background:accumulate" />
    <path
       style="color:#000000;font-style:normal;font-variant:normal;font-weight:normal;font-stretch:normal;font-size:medium;line-height:normal;font-family:sans-serif;font-variant-ligatures:normal;font-variant-position:normal;font-variant-caps:normal;font-variant-numeric:normal;font-variant-alternates:normal;font-feature-settings:normal;text-indent:0;text-align:start;text-decoration:none;text-decoration-line:none;text-decoration-style:solid;text-decoration-color:#000000;letter-spacing:normal;word-spacing:normal;text-transform:none;writing-mode:lr-tb;direction:ltr;text-orientation:mixed;dominant-baseline:auto;baseline-shift:baseline;text-anchor:start;white-space:normal;shape-padding:0;clip-rule:nonzero;display:inline;overflow:visible;visibility:visible;opacity:1;isolation:auto;mix-blend-mode:normal;color-interpolation:sRGB;color-interpolation-filters:linearRGB;solid-color:#000000;solid-opacity:1;vector-effect:none;fill:#000000;fill-opacity:1;fill-rule:nonzero;stroke:#34495e;stroke-width:0.52916667;stroke-linecap:butt;stroke-linejoin:miter;stroke-miterlimit:4;stroke-dasharray:none;stroke-dashoffset:0;stroke-opacity:1;color-rendering:auto;image-rendering:auto;shape-rendering:auto;text-rendering:auto;enable-background:accumulate"
       d="m 28.929133,269.68689 v 0.0274 0.0274 0.0274 0.0274 0.0274 0.0274 0.0274 0.0274 l 1.642121,-0.29224 1.590606,0.29955 1.616361,-0.29915 1.616362,0.30646 1.61636,-0.30606 1.616362,0.31337 1.603483,-0.31297 1.62924,0.32028 v -0.0276 -0.0276 -0.0276 -0.0276 -0.0276 -0.0276 -0.0276 -0.0276 l -1.62924,-0.32006 -1.603483,0.31316 -1.616362,-0.31316 -1.61636,0.30626 -1.616362,-0.30626 -1.616361,0.29934 -1.590606,-0.29934 z"
       id="path882"
       inkscape:connector-curvature="0"
       sodipodi:nodetypes="ccccccccccccccccccccccccccccccccc" />
    <path
       sodipodi:nodetypes="ccccccccccccccccccccccccccccccccc"
       inkscape:connector-curvature="0"
       id="path884"
       d="m 28.929133,267.04983 v 0.0274 0.0274 0.0274 0.0274 0.0274 0.0274 0.0274 0.0274 l 1.642121,-0.29225 1.590606,0.29955 1.616361,-0.29915 1.616362,0.30647 1.61636,-0.30606 1.616362,0.31337 1.603483,-0.31297 1.62924,0.32028 v -0.0276 -0.0276 -0.0276 -0.0276 -0.0276 -0.0276 -0.0276 -0.0276 l -1.62924,-0.32006 -1.603483,0.31316 -1.616362,-0.31316 -1.61636,0.30625 -1.616362,-0.30625 -1.616361,0.29934 -1.590606,-0.29934 z"
       style="color:#000000;font-style:normal;font-variant:normal;font-weight:normal;font-stretch:normal;font-size:medium;line-height:normal;font-family:sans-serif;font-variant-ligatures:normal;font-variant-position:normal;font-variant-caps:normal;font-variant-numeric:normal;font-variant-alternates:normal;font-feature-settings:normal;text-indent:0;text-align:start;text-decoration:none;text-decoration-line:none;text-decoration-style:solid;text-decoration-color:#000000;letter-spacing:normal;word-spacing:normal;text-transform:none;writing-mode:lr-tb;direction:ltr;text-orientation:mixed;dominant-baseline:auto;baseline-shift:baseline;text-anchor:start;white-space:normal;shape-padding:0;clip-rule:nonzero;display:inline;overflow:visible;visibility:visible;opacity:1;isolation:auto;mix-blend-mode:normal;color-interpolation:sRGB;color-interpolation-filters:linearRGB;solid-color:#000000;solid-opacity:1;vector-effect:none;fill:#000000;fill-opacity:1;fill-rule:nonzero;stroke:#34495e;stroke-width:0.52916667;stroke-linecap:butt;stroke-linejoin:miter;stroke-miterlimit:4;stroke-dasharray:none;stroke-dashoffset:0;stroke-opacity:1;color-rendering:auto;image-rendering:auto;shape-rendering:auto;text-rendering:auto;enable-background:accumulate" />
    <path
       style="color:#000000;font-style:normal;font-variant:normal;font-weight:normal;font-stretch:normal;font-size:medium;line-height:normal;font-family:sans-serif;font-variant-ligatures:normal;font-variant-position:normal;font-variant-caps:normal;font-variant-numeric:normal;font-variant-alternates:normal;font-feature-settings:normal;text-indent:0;text-align:start;text-decoration:none;text-decoration-line:none;text-decoration-style:solid;text-decoration-color:#000000;letter-spacing:normal;word-spacing:normal;text-transform:none;writing-mode:lr-tb;direction:ltr;text-orientation:mixed;dominant-baseline:auto;baseline-shift:baseline;text-anchor:start;white-space:normal;shape-padding:0;clip-rule:nonzero;display:inline;overflow:visible;visibility:visible;opacity:1;isolation:auto;mix-blend-mode:normal;color-interpolation:sRGB;color-interpolation-filters:linearRGB;solid-color:#000000;solid-opacity:1;vector-effect:none;fill:#000000;fill-opacity:1;fill-rule:nonzero;stroke:#34495e;stroke-width:0.52916667;stroke-linecap:butt;stroke-linejoin:miter;stroke-miterlimit:4;stroke-dasharray:none;stroke-dashoffset:0;stroke-opacity:1;color-rendering:auto;image-rendering:auto;shape-rendering:auto;text-rendering:auto;enable-background:accumulate"
       d="m 28.929133,264.41277 v 0.0274 0.0274 0.0274 0.0274 0.0274 0.0274 0.0274 0.0274 l 1.642121,-0.29225 1.590606,0.29955 1.616361,-0.29915 1.616362,0.30646 1.61636,-0.30605 1.616362,0.31336 1.603483,-0.31296 1.62924,0.32028 v -0.0276 -0.0276 -0.0276 -0.0276 -0.0276 -0.0276 -0.0276 -0.0276 l -1.62924,-0.32006 -1.603483,0.31315 -1.616362,-0.31315 -1.61636,0.30625 -1.616362,-0.30625 -1.616361,0.29934 -1.590606,-0.29934 z"
       id="path886"
       inkscape:connector-curvature="0"
       sodipodi:nodetypes="ccccccccccccccccccccccccccccccccc" />
    <path
       sodipodi:nodetypes="ccccccccccccccccccccccccccccccccc"
       inkscape:connector-curvature="0"
       id="path888"
       d="m 28.929133,261.7757 v 0.0274 0.0274 0.0274 0.0274 0.0274 0.0274 0.0274 0.0274 l 1.642121,-0.29225 1.590606,0.29955 1.616361,-0.29915 1.616362,0.30646 1.61636,-0.30606 1.616362,0.31337 1.603483,-0.31297 1.62924,0.32028 v -0.0276 -0.0276 -0.0276 -0.0276 -0.0276 -0.0276 -0.0276 -0.0276 l -1.62924,-0.32006 -1.603483,0.31316 -1.616362,-0.31316 -1.61636,0.30626 -1.616362,-0.30626 -1.616361,0.29934 -1.590606,-0.29934 z"
       style="color:#000000;font-style:normal;font-variant:normal;font-weight:normal;font-stretch:normal;font-size:medium;line-height:normal;font-family:sans-serif;font-variant-ligatures:normal;font-variant-position:normal;font-variant-caps:normal;font-variant-numeric:normal;font-variant-alternates:normal;font-feature-settings:normal;text-indent:0;text-align:start;text-decoration:none;text-decoration-line:none;text-decoration-style:solid;text-decoration-color:#000000;letter-spacing:normal;word-spacing:normal;text-transform:none;writing-mode:lr-tb;direction:ltr;text-orientation:mixed;dominant-baseline:auto;baseline-shift:baseline;text-anchor:start;white-space:normal;shape-padding:0;clip-rule:nonzero;display:inline;overflow:visible;visibility:visible;opacity:1;isolation:auto;mix-blend-mode:normal;color-interpolation:sRGB;color-interpolation-filters:linearRGB;solid-color:#000000;solid-opacity:1;vector-effect:none;fill:#000000;fill-opacity:1;fill-rule:nonzero;stroke:#34495e;stroke-width:0.52916667;stroke-linecap:butt;stroke-linejoin:miter;stroke-miterlimit:4;stroke-dasharray:none;stroke-dashoffset:0;stroke-opacity:1;color-rendering:auto;image-rendering:auto;shape-rendering:auto;text-rendering:auto;enable-background:accumulate" />
    <path
       style="color:#000000;font-style:normal;font-variant:normal;font-weight:normal;font-stretch:normal;font-size:medium;line-height:normal;font-family:sans-serif;font-variant-ligatures:normal;font-variant-position:normal;font-variant-caps:normal;font-variant-numeric:normal;font-variant-alternates:normal;font-feature-settings:normal;text-indent:0;text-align:start;text-decoration:none;text-decoration-line:none;text-decoration-style:solid;text-decoration-color:#000000;letter-spacing:normal;word-spacing:normal;text-transform:none;writing-mode:lr-tb;direction:ltr;text-orientation:mixed;dominant-baseline:auto;baseline-shift:baseline;text-anchor:start;white-space:normal;shape-padding:0;clip-rule:nonzero;display:inline;overflow:visible;visibility:visible;opacity:1;isolation:auto;mix-blend-mode:normal;color-interpolation:sRGB;color-interpolation-filters:linearRGB;solid-color:#000000;solid-opacity:1;vector-effect:none;fill:#000000;fill-opacity:1;fill-rule:nonzero;stroke:#34495e;stroke-width:0.52916667;stroke-linecap:butt;stroke-linejoin:miter;stroke-miterlimit:4;stroke-dasharray:none;stroke-dashoffset:0;stroke-opacity:1;color-rendering:auto;image-rendering:auto;shape-rendering:auto;text-rendering:auto;enable-background:accumulate"
       d="m 28.929133,261.7757 v 0.0274 0.0274 0.0274 0.0274 0.0274 0.0274 0.0274 0.0274 l 1.642121,-0.29225 1.590606,0.29955 1.616361,-0.29915 1.616362,0.30646 1.61636,-0.30606 1.616362,0.31337 1.603483,-0.31297 1.62924,0.32028 v -0.0276 -0.0276 -0.0276 -0.0276 -0.0276 -0.0276 -0.0276 -0.0276 l -1.62924,-0.32006 -1.603483,0.31316 -1.616362,-0.31316 -1.61636,0.30626 -1.616362,-0.30626 -1.616361,0.29934 -1.590606,-0.29934 z"
       id="path890"
       inkscape:connector-curvature="0"
       sodipodi:nodetypes="ccccccccccccccccccccccccccccccccc" />
    <rect
       style="fill:#1abc9c;fill-opacity:1;fill-rule:evenodd;stroke:#34495e;stroke-width:0.52916667;stroke-linejoin:miter;stroke-miterlimit:4;stroke-dasharray:none;stroke-dashoffset:0;stroke-opacity:1"
       id="rect892"
       width="1.6121535"
       height="11.915653"
       x="-66.738274"
       y="271.9639"
       transform="rotate(-17.868708)" />
    <ellipse
       style="fill:#1abc9c;fill-opacity:1;fill-rule:evenodd;stroke:#34495e;stroke-width:0.79375;stroke-linejoin:miter;stroke-miterlimit:4;stroke-dasharray:none;stroke-dashoffset:0;stroke-opacity:1"
       id="path894"
       cx="-65.85041"
       cy="263.77487"
       rx="8.4485016"
       ry="8.0396328"
       transform="rotate(-17.868708)" />
    <ellipse
       style="fill:#bdc3c7;fill-opacity:1;fill-rule:evenodd;stroke:#34495e;stroke-width:0.52916667;stroke-linejoin:miter;stroke-miterlimit:4;stroke-dasharray:none;stroke-dashoffset:0;stroke-opacity:1"
       id="path896"
       cx="-65.816826"
       cy="263.74713"
       rx="7.1499457"
       ry="6.6797447"
       transform="rotate(-17.868708)" />
    <text
       xml:space="preserve"
       style="font-style:normal;font-weight:normal;font-size:7.76111111px;line-height:1.25;font-family:sans-serif;letter-spacing:0px;word-spacing:0px;fill:#34495e;fill-opacity:1;stroke:#34495e;stroke-width:0.19059797;stroke-opacity:1;-inkscape-font-specification:'sans-serif, Normal';font-stretch:normal;font-variant:normal;text-anchor:start;text-align:start;writing-mode:lr;font-variant-ligatures:normal;font-variant-caps:normal;font-variant-numeric:normal;font-feature-settings:normal;"
       x="12.384224"
       y="273.67972"
       id="text908"><tspan
         sodipodi:role="line"
         id="tspan906"
         x="12.384224"
         y="273.67972"
         style="fill:#34495e;fill-opacity:1;stroke:#34495e;stroke-width:0.19059797;stroke-opacity:1;-inkscape-font-specification:'sans-serif, Normal';font-family:sans-serif;font-weight:normal;font-style:normal;font-stretch:normal;font-variant:normal;font-size:7.76111111px;text-anchor:start;text-align:start;writing-mode:lr;font-variant-ligatures:normal;font-variant-caps:normal;font-variant-numeric:normal;font-feature-settings:normal;">Así</tspan></text>
  </g>
</svg>
