<?xml version="1.0" encoding="UTF-8" standalone="no"?>
<!-- Created with Inkscape (http://www.inkscape.org/) -->

<svg
   xmlns:dc="http://purl.org/dc/elements/1.1/"
   xmlns:cc="http://creativecommons.org/ns#"
   xmlns:rdf="http://www.w3.org/1999/02/22-rdf-syntax-ns#"
   xmlns:svg="http://www.w3.org/2000/svg"
   xmlns="http://www.w3.org/2000/svg"
   xmlns:xlink="http://www.w3.org/1999/xlink"
   xmlns:sodipodi="http://sodipodi.sourceforge.net/DTD/sodipodi-0.dtd"
   xmlns:inkscape="http://www.inkscape.org/namespaces/inkscape"
   width="200"
   height="200"
   viewBox="0 0 52.916665 52.916668"
   version="1.1"
   id="svg8"
   inkscape:version="0.92.3 (2405546, 2018-03-11)"
   sodipodi:docname="icono.svg">
  <defs
     id="defs2" />
  <sodipodi:namedview
     id="base"
     pagecolor="#ffffff"
     bordercolor="#666666"
     borderopacity="1.0"
     inkscape:pageopacity="0.0"
     inkscape:pageshadow="2"
     inkscape:zoom="2.8284271"
     inkscape:cx="48.556052"
     inkscape:cy="97.255593"
     inkscape:document-units="mm"
     inkscape:current-layer="layer1"
     showgrid="true"
     units="px"
     inkscape:window-width="1366"
     inkscape:window-height="745"
     inkscape:window-x="-8"
     inkscape:window-y="-8"
     inkscape:window-maximized="1"
     inkscape:snap-global="false">
    <inkscape:grid
       type="xygrid"
       id="grid11162" />
  </sodipodi:namedview>
  <metadata
     id="metadata5">
    <rdf:RDF>
      <cc:Work
         rdf:about="">
        <dc:format>image/svg+xml</dc:format>
        <dc:type
           rdf:resource="http://purl.org/dc/dcmitype/StillImage" />
        <dc:title />
      </cc:Work>
    </rdf:RDF>
  </metadata>
  <g
     inkscape:label="Capa 1"
     inkscape:groupmode="layer"
     id="layer1"
     transform="translate(0,-244.08332)">
    <rect
       style="fill:#ecf0f1;fill-opacity:1;fill-rule:evenodd;stroke:none;stroke-width:2.16031361;stroke-linejoin:miter;stroke-miterlimit:4;stroke-dasharray:none;stroke-dashoffset:0;stroke-opacity:1"
       id="rect815"
       width="52.916668"
       height="52.916668"
       x="2.5687237e-008"
       y="244.08334" />
    <circle
       style="fill:#2ecc71;fill-opacity:1;fill-rule:evenodd;stroke:#34495e;stroke-width:0.49450251;stroke-linejoin:miter;stroke-miterlimit:4;stroke-dasharray:none;stroke-dashoffset:0;stroke-opacity:1"
       id="path827"
       r="9.3449287"
       cy="270.1792"
       cx="13.912827" />
    <path
       style="fill:#e74c3c;fill-opacity:1;fill-rule:evenodd;stroke:#e74c3c;stroke-width:0.27197638;stroke-linejoin:miter;stroke-miterlimit:4;stroke-dasharray:none;stroke-dashoffset:0;stroke-opacity:1"
       d="m 13.367367,279.23239 c -0.222713,-0.0136 -0.418995,-0.039 -0.436183,-0.0563 -0.02526,-0.0254 0.989582,-8.46738 1.066318,-8.87012 0.02041,-0.10712 0.313228,-0.23865 4.114902,-1.84843 2.251111,-0.95321 4.114518,-1.74163 4.140906,-1.75205 0.05622,-0.0222 0.373686,0.88974 0.501979,1.44198 0.294829,1.2691 0.292711,2.80257 -0.0056,4.08406 -0.999236,4.29199 -4.990124,7.26989 -9.382284,7.00083 z"
       id="path4682"
       inkscape:connector-curvature="0" />
    <path
       style="fill:#e74c3c;fill-opacity:1;fill-rule:evenodd;stroke:#e74c3c;stroke-width:0.27197638;stroke-linejoin:miter;stroke-miterlimit:4;stroke-dasharray:none;stroke-dashoffset:0;stroke-opacity:1"
       d="m 12.345492,279.12243 c -1.782864,-0.39779 -2.8748427,-0.89548 -4.1092243,-1.87287 -3.6085772,-2.85729 -4.4569416,-8.1122 -1.9365189,-11.99512 0.137534,-0.21188 0.2558333,-0.39168 0.2628874,-0.39954 0.00705,-0.008 1.5957652,1.18165 3.5304688,2.64336 3.020536,2.28208 3.514636,2.67095 3.496359,2.75172 -0.01171,0.0517 -0.266011,2.07594 -0.56512,4.49823 -0.299109,2.42229 -0.554346,4.40186 -0.567191,4.39904 -0.01285,-0.003 -0.06309,-0.014 -0.111661,-0.0248 z"
       id="path4680"
       inkscape:connector-curvature="0" />
    <g
       id="g4564"
       transform="matrix(0.54837596,0,0,0.54837596,0.81148324,121.62977)"
       style="stroke-width:0.67631859;stroke-miterlimit:4;stroke-dasharray:none">
      <path
         style="fill:none;stroke:#34495e;stroke-width:0.67631859;stroke-linecap:butt;stroke-linejoin:miter;stroke-miterlimit:4;stroke-dasharray:none;stroke-opacity:1"
         d="M 23.653353,270.67394 39.28862,264.05902"
         id="use4544"
         inkscape:connector-curvature="0"
         inkscape:transform-center-x="-7.752843"
         inkscape:transform-center-y="-3.2818104"
         inkscape:tile-x0="23.601806"
         inkscape:tile-y0="19.853863" />
      <path
         style="fill:none;stroke:#34495e;stroke-width:0.67631859;stroke-linecap:butt;stroke-linejoin:miter;stroke-miterlimit:4;stroke-dasharray:none;stroke-opacity:1"
         d="M 23.728324,270.57936 21.63938,287.42735"
         id="use4546"
         inkscape:connector-curvature="0"
         inkscape:transform-center-x="-7.752843"
         inkscape:transform-center-y="-3.2818104"
         inkscape:tile-x0="23.601806"
         inkscape:tile-y0="19.853863" />
      <path
         style="fill:none;stroke:#34495e;stroke-width:0.67631859;stroke-linecap:butt;stroke-linejoin:miter;stroke-miterlimit:4;stroke-dasharray:none;stroke-opacity:1"
         d="M 23.772752,270.69157 10.226429,260.4585"
         id="use4548"
         inkscape:connector-curvature="0"
         inkscape:transform-center-x="-7.752843"
         inkscape:transform-center-y="-3.2818104"
         inkscape:tile-x0="23.601806"
         inkscape:tile-y0="19.853863" />
    </g>
    <text
       xml:space="preserve"
       style="font-style:normal;font-weight:normal;font-size:8.29859924px;line-height:1.25;font-family:sans-serif;letter-spacing:0px;word-spacing:0px;fill:#e67e22;fill-opacity:1;stroke:none;stroke-width:0.20746498"
       x="25.306419"
       y="272.26245"
       id="text4580"><tspan
         sodipodi:role="line"
         id="tspan4578"
         x="25.306419"
         y="272.26245"
         style="fill:#e67e22;fill-opacity:1;stroke-width:0.20746498">-</tspan></text>
    <circle
       cx="40.100056"
       cy="270.16064"
       r="9.3449287"
       id="circle4609"
       style="fill:#2ecc71;fill-opacity:1;fill-rule:evenodd;stroke:#34495e;stroke-width:0.49450251;stroke-linejoin:miter;stroke-miterlimit:4;stroke-dasharray:none;stroke-dashoffset:0;stroke-opacity:1" />
    <path
       style="opacity:1;vector-effect:none;fill:#f1c40f;fill-opacity:1;fill-rule:evenodd;stroke:#f1c40f;stroke-width:0.27064607;stroke-linecap:butt;stroke-linejoin:miter;stroke-miterlimit:4;stroke-dasharray:none;stroke-dashoffset:0;stroke-opacity:1"
       d="m 44.279106,272.17147 c -2.090027,-1.11344 -3.808731,-2.03321 -3.819332,-2.04392 -0.02646,-0.0267 6.157108,-6.10984 6.210713,-6.10984 0.07138,0 0.592984,0.64489 0.909046,1.12388 1.564506,2.37105 1.933456,5.34805 0.995487,8.0324 -0.166456,0.47638 -0.415363,1.03015 -0.460939,1.02549 -0.01922,-0.002 -1.744943,-0.91456 -3.834975,-2.02801 z"
       id="path11178"
       inkscape:connector-curvature="0" />
    <path
       style="fill:none;stroke:#34495e;stroke-width:0.34615174;stroke-linecap:butt;stroke-linejoin:miter;stroke-miterlimit:4;stroke-dasharray:none;stroke-opacity:1"
       d="m 40.093056,270.16765 6.730694,-6.55592"
       id="path11164"
       inkscape:connector-curvature="0"
       sodipodi:nodetypes="cc"
       inkscape:transform-center-x="-3.3650193"
       inkscape:transform-center-y="-3.2781206"
       inkscape:tile-cx="41.010765"
       inkscape:tile-cy="26.458502"
       inkscape:tile-w="7.4609651"
       inkscape:tile-h="7.2808264"
       inkscape:tile-x0="40.881187"
       inkscape:tile-y0="19.310176" />
    <use
       x="0"
       y="0"
       inkscape:tiled-clone-of="#path11164"
       xlink:href="#path11164"
       id="use11166"
       inkscape:transform-center-x="-31.549327"
       inkscape:transform-center-y="14.905265"
       width="100%"
       height="100%" />
    <path
       style="opacity:1;vector-effect:none;fill:#f1c40f;fill-opacity:1;fill-rule:evenodd;stroke:#f1c40f;stroke-width:0.26933494;stroke-linecap:butt;stroke-linejoin:miter;stroke-miterlimit:4;stroke-dasharray:none;stroke-dashoffset:0;stroke-opacity:1"
       d="m 39.086004,279.09429 c -0.176285,-0.0205 -0.324201,-0.0423 -0.328706,-0.0485 -0.01146,-0.0158 1.456134,-8.53475 1.473543,-8.55349 0.0078,-0.008 1.746733,0.89634 3.864298,2.01054 l 3.850116,2.02582 -0.21491,0.34841 c -1.450567,2.35176 -3.941426,3.91827 -6.709796,4.21983 -0.484863,0.0528 -1.467974,0.0515 -1.934545,-0.003 z"
       id="path11180"
       inkscape:connector-curvature="0" />
    <use
       x="0"
       y="0"
       inkscape:tiled-clone-of="#path11164"
       xlink:href="#path11164"
       transform="rotate(72,40.093382,270.16781)"
       id="use11168"
       inkscape:transform-center-x="-32.341833"
       inkscape:transform-center-y="20.370716"
       width="100%"
       height="100%" />
    <path
       style="opacity:1;vector-effect:none;fill:#f1c40f;fill-opacity:1;fill-rule:evenodd;stroke:#f1c40f;stroke-width:0.26931921;stroke-linecap:butt;stroke-linejoin:miter;stroke-miterlimit:4;stroke-dasharray:none;stroke-dashoffset:0;stroke-opacity:1"
       d="m 31.158163,271.07801 c -0.04387,-0.32009 -0.03284,-1.56242 0.01748,-1.96801 0.283151,-2.28217 1.415089,-4.36319 3.169698,-5.82734 0.540199,-0.45078 1.548023,-1.11227 1.602805,-1.05202 0.0102,0.0112 0.877561,1.76357 1.927439,3.89409 1.633719,3.31531 1.898093,3.87799 1.834095,3.90358 -0.04113,0.0164 -1.915312,0.29462 -4.164854,0.61821 -2.249543,0.32357 -4.150505,0.59902 -4.22436,0.61212 -0.131792,0.0233 -0.134806,0.02 -0.162307,-0.18063 z"
       id="path11176"
       inkscape:connector-curvature="0" />
    <use
       x="0"
       y="0"
       inkscape:tiled-clone-of="#path11164"
       xlink:href="#path11164"
       transform="rotate(144,40.093382,270.16781)"
       id="use11170"
       inkscape:transform-center-x="-27.388778"
       inkscape:transform-center-y="22.81335"
       width="100%"
       height="100%" />
    <use
       x="0"
       y="0"
       inkscape:tiled-clone-of="#path11164"
       xlink:href="#path11164"
       transform="rotate(-144,40.093382,270.16781)"
       id="use11172"
       inkscape:transform-center-x="-23.535116"
       inkscape:transform-center-y="18.857531"
       width="100%"
       height="100%" />
    <use
       x="0"
       y="0"
       inkscape:tiled-clone-of="#path11164"
       xlink:href="#path11164"
       transform="rotate(-72,40.093382,270.16781)"
       id="use11174"
       inkscape:transform-center-x="-26.106477"
       inkscape:transform-center-y="13.970065"
       width="100%"
       height="100%" />
  </g>
</svg>
