<?xml version="1.0" encoding="UTF-8" standalone="no"?>
<!-- Created with Inkscape (http://www.inkscape.org/) -->

<svg
   xmlns:dc="http://purl.org/dc/elements/1.1/"
   xmlns:cc="http://creativecommons.org/ns#"
   xmlns:rdf="http://www.w3.org/1999/02/22-rdf-syntax-ns#"
   xmlns:svg="http://www.w3.org/2000/svg"
   xmlns="http://www.w3.org/2000/svg"
   xmlns:sodipodi="http://sodipodi.sourceforge.net/DTD/sodipodi-0.dtd"
   xmlns:inkscape="http://www.inkscape.org/namespaces/inkscape"
   width="200"
   height="200"
   viewBox="0 0 52.916665 52.916668"
   version="1.1"
   id="svg8"
   inkscape:version="0.92.2 (5c3e80d, 2017-08-06)"
   sodipodi:docname="icono.svg">
  <defs
     id="defs2" />
  <sodipodi:namedview
     id="base"
     pagecolor="#ffffff"
     bordercolor="#666666"
     borderopacity="1.0"
     inkscape:pageopacity="0.0"
     inkscape:pageshadow="2"
     inkscape:zoom="3.959798"
     inkscape:cx="112.45187"
     inkscape:cy="113.99809"
     inkscape:document-units="mm"
     inkscape:current-layer="layer1"
     showgrid="false"
     units="px"
     inkscape:window-width="1366"
     inkscape:window-height="745"
     inkscape:window-x="-8"
     inkscape:window-y="-8"
     inkscape:window-maximized="1" />
  <metadata
     id="metadata5">
    <rdf:RDF>
      <cc:Work
         rdf:about="">
        <dc:format>image/svg+xml</dc:format>
        <dc:type
           rdf:resource="http://purl.org/dc/dcmitype/StillImage" />
        <dc:title></dc:title>
      </cc:Work>
    </rdf:RDF>
  </metadata>
  <g
     inkscape:label="Capa 1"
     inkscape:groupmode="layer"
     id="layer1"
     transform="translate(0,-244.08332)">
    <rect
       style="fill:#ecf0f1;fill-opacity:1;fill-rule:evenodd;stroke:none;stroke-width:2.16031361;stroke-linejoin:miter;stroke-miterlimit:4;stroke-dasharray:none;stroke-dashoffset:0;stroke-opacity:1"
       id="rect815"
       width="52.916668"
       height="52.916668"
       x="2.5687237e-008"
       y="244.08334" />
    <path
       inkscape:connector-curvature="0"
       id="path2119"
       d="m 34.096843,273.07778 c 3.348342,3.24326 3.19766,3.35253 3.19766,3.35253 l 0.196318,3.22985 0.906379,-2.3434 1.275993,0.91404 -0.394535,-1.70656 1.427821,-0.0391 -2.224171,-1.37606 -3.550793,-5.31905"
       style="fill:#c0392b;fill-opacity:1;stroke:#2c3e50;stroke-width:0.34744588px;stroke-linecap:butt;stroke-linejoin:miter;stroke-opacity:1" />
    <path
       style="fill:#c0392b;fill-opacity:1;stroke:#34495e;stroke-width:0.38436547px;stroke-linecap:butt;stroke-linejoin:miter;stroke-opacity:1"
       d="m 18.00283,267.13378 2.9041,4.45525 -0.367605,3.64386 1.098187,-2.05909 1.44137,0.41183 0.06864,-1.51002 1.372735,0.27455 -2.522823,-1.66258 -3.219802,-4.20815"
       id="path2121"
       inkscape:connector-curvature="0"
       sodipodi:nodetypes="ccccccccc" />
    <path
       style="fill:#c0392b;fill-opacity:1;stroke:#2c3e50;stroke-width:0.34744588px;stroke-linecap:butt;stroke-linejoin:miter;stroke-opacity:1"
       d="m 10.738603,271.02428 -6.142033,5.44009 2.281326,-0.35097 -0.8774323,2.45682 1.8291001,-2.06536 0.2767397,2.30833 1.4612544,-4.47492 2.3117011,-2.49055 c 0,0 2.614919,-0.34985 3.961944,-0.94493 1.740188,-0.76877 2.010494,-2.15314 3.745535,-3.17741 1.735041,-1.02428 3.619853,0.54498 4.218935,1.09173 0.991174,0.90458 3.246651,2.77834 3.746918,3.65697 0.500268,0.87862 -1.935848,4.06941 -0.594965,4.01727 2.64133,-0.10271 4.857923,0.57005 6.769731,-1.25538 2.289687,-2.18622 4.387168,-8.42336 4.387168,-8.42336 0,0 2.807785,3.21725 3.772963,4.82589 0.965175,1.60862 0.263229,6.75622 0.263229,6.75622 v 0 c 0,0 3.45124,-5.32308 2.193584,-7.63367 -1.257655,-2.31056 -3.772965,-6.93171 -3.772965,-6.93171 0,0 4.64851,-1.77359 5.264601,-3.86072 0.372153,-1.26074 -1.403894,-3.68522 -1.403894,-3.68522 0,0 0.03229,2.56935 -0.701945,3.50974 -0.756832,0.96934 -3.334246,1.57938 -3.334246,1.57938 l -2.456814,-2.10583 -3.334247,0.87743 0.175488,2.80779 c 0,0 -2.992323,1.19967 -4.387168,0.70193 -1.326816,-0.47345 -2.807786,-3.15875 -2.807786,-3.15875 0,0 0.0751,3.93543 1.403893,5.08912 1.380637,1.19869 5.440084,0.70194 5.440084,0.70194 l -8.949819,-4.56266 c 0,0 -1.805381,-0.51078 -3.958414,-0.78811 -2.153033,-0.27732 -5.054622,-0.58846 -6.445229,0.34536 -1.205525,0.80953 -1.989156,3.44587 -2.87231,5.61256 -0.883154,2.16668 -1.464927,4.13098 -1.464927,4.13098 z"
       id="path2057"
       inkscape:connector-curvature="0"
       sodipodi:nodetypes="ccccccccsssssscsccscscsccccscsccsssc" />
    <path
       style="fill:#c0392b;fill-opacity:1;stroke:#34495e;stroke-width:0.34744588px;stroke-linecap:butt;stroke-linejoin:miter;stroke-opacity:1"
       d="m 39.063501,262.04916 -1.098621,-6.37364 0.704422,-0.14227 1.215824,6.43128"
       id="path2067"
       inkscape:connector-curvature="0"
       sodipodi:nodetypes="cccc" />
    <path
       style="fill:#c0392b;fill-opacity:1;stroke:#34495e;stroke-width:0.34744588px;stroke-linecap:butt;stroke-linejoin:miter;stroke-opacity:1"
       d="m 35.837215,264.40682 c -3.908765,-5.5219 -3.970809,-5.58395 -3.970809,-5.58395 l 0.868615,-0.55839 3.722636,5.5219"
       id="path2061"
       inkscape:connector-curvature="0" />
    <path
       style="fill:#c0392b;fill-opacity:1;stroke:#2c3e50;stroke-width:0.34744588px;stroke-linecap:butt;stroke-linejoin:miter;stroke-opacity:1"
       d="m 28.143773,276.56743 c 0.806572,4.59125 0.620438,4.59125 0.620438,4.59125 l -1.737229,2.72993 2.109493,-1.36496 0.496351,1.48905 0.682484,-1.61314 1.178833,0.80657 -0.992702,-2.41971 0.248176,-6.39053"
       id="path2059"
       inkscape:connector-curvature="0" />
    <g
       id="g2071"
       transform="matrix(1.3131813,0,0,1.3131813,-8.213957,-83.542233)">
      <circle
         r="1.4882812"
         cy="259.87799"
         cx="30.375113"
         id="path2063"
         style="fill:#c0392b;fill-opacity:1;fill-rule:evenodd;stroke:#2c3e50;stroke-width:0.16500001;stroke-linejoin:miter;stroke-miterlimit:4;stroke-dasharray:none;stroke-dashoffset:0;stroke-opacity:1" />
      <ellipse
         ry="1.0499295"
         rx="1.0026823"
         cy="259.83069"
         cx="30.875931"
         id="path2065"
         style="fill:#ecf0f1;fill-opacity:1;fill-rule:evenodd;stroke:#2c3e50;stroke-width:0.19125716;stroke-linejoin:miter;stroke-miterlimit:4;stroke-dasharray:none;stroke-dashoffset:0;stroke-opacity:1" />
    </g>
    <g
       id="g2077"
       transform="matrix(1.3131813,0,0,1.3131813,-1.8941235,-87.47029)">
      <circle
         style="fill:#c0392b;fill-opacity:1;fill-rule:evenodd;stroke:#2c3e50;stroke-width:0.16500001;stroke-linejoin:miter;stroke-miterlimit:4;stroke-dasharray:none;stroke-dashoffset:0;stroke-opacity:1"
         id="circle2073"
         cx="30.375113"
         cy="259.87799"
         r="1.4882812" />
      <ellipse
         style="fill:#ecf0f1;fill-opacity:1;fill-rule:evenodd;stroke:#2c3e50;stroke-width:0.19125716;stroke-linejoin:miter;stroke-miterlimit:4;stroke-dasharray:none;stroke-dashoffset:0;stroke-opacity:1"
         id="ellipse2075"
         cx="30.875931"
         cy="259.83069"
         rx="1.0026823"
         ry="1.0499295" />
    </g>
    <path
       style="fill:#c0392b;fill-opacity:1;stroke:#34495e;stroke-width:0.26458332px;stroke-linecap:butt;stroke-linejoin:miter;stroke-opacity:1"
       d="m 16.221107,260.80859 c 0,0 -2.488373,-1.06675 -3.124901,-2.16178 -0.640454,-1.10178 -1.303443,-2.66799 -0.73499,-3.80859 0.74979,-1.50446 7.416729,-3.0736 7.416729,-3.0736 l -2.873148,1.40316 6.748556,-2.13815 -8.151721,-0.0668 4.276313,0.80179 c 0,0 -7.608509,1.27541 -8.285356,3.07362 -0.463063,1.23024 0.270608,2.7068 0.96312,3.8241 0.653541,1.05443 2.827639,2.41967 2.827639,2.41967 z"
       id="path2123"
       inkscape:connector-curvature="0"
       sodipodi:nodetypes="csscccccsscc" />
    <ellipse
       style="fill:#2c3e50;fill-opacity:1;fill-rule:evenodd;stroke:#34495e;stroke-width:0.17350483;stroke-linejoin:miter;stroke-miterlimit:4;stroke-dasharray:none;stroke-dashoffset:0;stroke-opacity:1"
       id="path2125"
       cx="32.874149"
       cy="257.55685"
       rx="0.49687794"
       ry="0.48434967" />
    <ellipse
       ry="0.48434967"
       rx="0.49687794"
       cy="253.66908"
       cx="39.137558"
       id="ellipse2135"
       style="fill:#2c3e50;fill-opacity:1;fill-rule:evenodd;stroke:#34495e;stroke-width:0.17350483;stroke-linejoin:miter;stroke-miterlimit:4;stroke-dasharray:none;stroke-dashoffset:0;stroke-opacity:1" />
  </g>
</svg>
